<svg height="170" width="201" xmlns="http://www.w3.org/2000/svg" xmlns:xlink="http://www.w3.org/1999/xlink"><linearGradient id="a" x1="5.041%" x2="74.315%" y1="111.079%" y2="13.802%"><stop offset="0" stop-color="#99c1d3"/><stop offset=".35095" stop-color="#d1d9df"/><stop offset=".45739" stop-color="#d9e1e4" stop-opacity=".832"/><stop offset="1" stop-color="#fff" stop-opacity="0"/></linearGradient><linearGradient id="b" x1="5.041%" x2="67.843%" y1="111.079%" y2="31.267%"><stop offset="0" stop-color="#99c1d3"/><stop offset=".3531" stop-color="#d1d4df"/><stop offset=".64161" stop-color="#d9dbe4" stop-opacity=".832"/><stop offset="1" stop-color="#fff" stop-opacity="0"/></linearGradient><linearGradient id="c"><stop offset="0" stop-color="#244f66"/><stop offset=".32" stop-color="#4dabdb"/><stop offset="1" stop-color="#e1fcff" stop-opacity="0"/></linearGradient><linearGradient id="d" x1="32.409%" x2="63.653%" xlink:href="#c" y1="70.127%" y2="34.447%"/><linearGradient id="e" x1="32.565%" x2="63.663%" xlink:href="#c" y1="70.013%" y2="34.417%"/><linearGradient id="f" x1="32.37%" x2="63.568%" xlink:href="#c" y1="70.085%" y2="34.413%"/><linearGradient id="g" x1="22.928%" x2="71.029%" y1="83.757%" y2="-4.691%"><stop offset="0" stop-color="#a7aab3"/><stop offset=".50468" stop-color="#d1d4df"/><stop offset="1" stop-color="#fff" stop-opacity="0"/></linearGradient><linearGradient id="h" x1="-27.806%" x2="151.088%" y1="166.999%" y2="-89.418%"><stop offset="0" stop-color="#73d4ff"/><stop offset=".2774" stop-color="#d1d4df"/><stop offset=".6834" stop-color="#edeff3" stop-opacity=".438"/><stop offset="1" stop-color="#fff" stop-opacity="0"/></linearGradient><linearGradient id="i"><stop offset="0" stop-color="#006599" stop-opacity="0"/><stop offset="1" stop-color="#003957"/></linearGradient><linearGradient id="j" x1="84.251%" x2="-12.635%" xlink:href="#i" y1="26.316%" y2="97.315%"/><linearGradient id="k" x1="26.114%" x2="75.659%" xlink:href="#i" y1="-31.698%" y2="102.866%"/><g fill="none" fill-rule="evenodd"><path d="m144.262 116.42-67.605 39.91-68.487-39.42 68.246-39.683z" fill="#d4f0ff" opacity=".386"/><path d="m206.852 80.39-62.345 36.248-67.982-39.478 61.85-36.745z" fill="url(#a)" fill-rule="nonzero" transform="translate(.202 .04)"/><path d="m76.55.04-.135 77.187-68.246 39.683.13-77.687z" fill="#c5ebff" opacity=".6"/><path d="m144.515 39.304-.253 77.116-67.847-39.193.134-77.187z" fill="#fff"/><g transform="translate(39.202 33.04)"><path d="m43.728 86.742 5.645-7.32 4.371 2.688 20.084-13.025-.673-10.336 8.99-5.713-1.679-10.083 6.302-4.035-4.455-8.237-6.554 1.599-9.916 6.217 1.595.674-15.965 11.51 2.103 2.271-16.301 9.41v25.642z" fill="url(#b)" fill-rule="nonzero"/><path d="m46.41 63.226c.059-1.454-.873-2.918-2.794-4.032-3.72-2.153-9.727-2.153-13.42 0-1.841 1.077-2.756 2.47-2.756 3.87l-.06 21.381c0 1.416.932 2.832 2.8 3.914 3.72 2.153 9.727 2.153 13.42 0 1.83-1.077 2.75-2.46 2.756-3.854l.059-21.382s-.006.065-.006.103z" fill="#cc7265"/><path d="m46.41 63.226c.059-1.454-.873-2.918-2.794-4.032a10.13 10.13 0 0 0 -1.378-.651l-5.34 23.846a4.7 4.7 0 0 1 5.34 4.656v1.95c.468-.184.923-.4 1.362-.647 1.83-1.076 2.75-2.465 2.756-3.86l.059-21.38c0 .015-.006.08-.006.118z" fill="#ba685c"/><path d="m36.898 28.35-27.766 38.008 27.766 16.03 27.765-16.03z" fill="#87eebf"/><circle cx="46.167" cy="77.162" fill="#f9486a" r="4.08"/><path d="m48.358 73.723c1.33 1.157 1.27 3.326-.215 4.877-1.486 1.55-3.973 1.884-5.34.576a2.81 2.81 0 0 1 -.463-.587 4.08 4.08 0 1 0 6.013-4.872z" fill="#f42f3d"/><ellipse cx="44.662" cy="75.363" fill="#f46e91" rx="1.19" ry="1" transform="matrix(.66483932 -.74698639 .74698639 .66483932 -41.32619 58.62062)"/><circle cx="59.549" cy="67.656" fill="#f9486a" r="3.37"/><path d="m61.363 64.814c1.077.958 1.045 2.745-.183 4.026-1.227 1.281-3.278 1.556-4.403.474a2.072 2.072 0 0 1 -.388-.485 3.37 3.37 0 1 0 4.969-4.02z" fill="#f42f3d"/><ellipse cx="58.305" cy="66.173" fill="#f46e91" rx="1" ry="1" transform="matrix(.66483932 -.74698639 .74698639 .66483932 -29.888787 65.731629)"/><path d="m36.898 28.35-27.766 38.008 27.766 16.03 27.765-16.03z" fill="#259975"/><circle cx="16.561" cy="70.256" fill="#f9486a" r="4.08"/><path d="m18.752 66.81c1.33 1.158 1.265 3.328-.221 4.878s-3.973 1.884-5.34.576a2.81 2.81 0 0 1 -.463-.587 4.08 4.08 0 1 0 6.013-4.872l.01.006z" fill="#f42f3d"/><ellipse cx="15.051" cy="68.455" fill="#f46e91" rx="1.19" ry="1" transform="matrix(.66483932 -.74698639 .74698639 .66483932 -46.09045 34.186316)"/><path d="m9.132 66.359 27.766 16.03v-54.039z" fill="#87eebf"/><path d="m55.873 54.328-3.532-4.829-15.443-15.767-15.45 15.768-1.19 1.626 16.64 12.51z" fill="#4bbb8c" opacity=".39"/><circle cx="27.908" cy="53.644" fill="#f9486a" r="3.515"/><path d="m29.798 50.683c1.146 1.002 1.076 2.87-.189 4.205s-3.423 1.614-4.597.495c-.155-.15-.29-.32-.398-.506a3.515 3.515 0 1 0 5.178-4.194z" fill="#f42f3d"/><ellipse cx="26.61" cy="52.095" fill="#f46e91" rx="1.023" ry="1" transform="matrix(.66483932 -.74698639 .74698639 .66483932 -29.995631 37.337503)"/><path d="m36.898 12.001-23.848 32.649 23.847 13.77 23.852-13.77z" fill="#259975"/><path d="m13.051 44.65 23.847 13.769v-46.419z" fill="#87eebf"/><path d="m52.939 33.964-16.041-21.964-13.242 18.13 13.242 11.773z" fill="#4bbb8c" opacity=".39"/><circle cx="46.167" cy="30.46" fill="#f9486a" r="2.88"/><path d="m47.717 28.026c.943.819.9 2.347-.15 3.44s-2.805 1.335-3.768.41a1.884 1.884 0 0 1 -.334-.415 2.885 2.885 0 1 0 4.252-3.44z" fill="#f42f3d"/><ellipse cx="45.099" cy="29.188" fill="#f46e91" rx="1" ry="1" transform="matrix(.66483932 -.74698639 .74698639 .66483932 -6.687628 43.471009)"/><path d="m36.898.17-18.508 24.035 18.507 10.69 18.506-10.69z" fill="#259975"/><circle cx="23.656" cy="27.574" fill="#f9486a" r="2.88"/><path d="m25.2 25.147c.937.818.894 2.352-.15 3.445-1.045 1.092-2.81 1.33-3.768.409a2.153 2.153 0 0 1 -.329-.415 2.88 2.88 0 1 0 4.247-3.44z" fill="#f42f3d"/><ellipse cx="22.592" cy="26.304" fill="#f46e91" rx="1" ry="1" transform="matrix(.66483932 -.74698639 .74698639 .66483932 -12.07678 25.691983)"/><path d="m18.391 24.205 18.507 10.69v-34.725z" fill="#87eebf"/><path d="m10.936 75.348c1.614.92 1.076 2.751-1.158 4.091s-5.415 1.674-7.04.754c-1.626-.92-1.104-2.75 1.157-4.091 2.26-1.34 5.415-1.674 7.04-.754z" fill="url(#d)"/><circle cx="4.551" cy="76.732" fill="#f9486a" r="3.946"/><ellipse cx="4.363" cy="74.229" fill="#b52854" rx="1" ry="1"/><path d="m4.363 74.148a5.291 5.291 0 0 1 1.615-4" stroke="#b52854" stroke-linecap="round"/><path d="m2.915 74.072c-.173.08-.327.196-.452.34a.91.91 0 1 0 1.313 1.168c.062-.074.118-.154.167-.237a1.028 1.028 0 0 1 -1.028-1.27z" fill="#ff7394"/><path d="m6.683 73.4c1.281 1.12 1.222 3.23-.21 4.715-1.432 1.486-3.843 1.825-5.162.538a2.514 2.514 0 0 1 -.452-.57 3.946 3.946 0 1 0 5.824-4.683z" fill="#f42f3d"/><path d="m80.624 77.146c1.954 1.11 1.33 3.316-1.395 4.926-2.723 1.61-6.513 2.045-8.488.91-1.976-1.136-1.33-3.317 1.394-4.926 2.723-1.61 6.535-2.013 8.489-.91z" fill="url(#e)"/><circle cx="72.942" cy="78.81" fill="#f9486a" r="4.748"/><ellipse cx="72.711" cy="75.8" fill="#b52854" rx="1" ry="1"/><path d="m72.716 75.709a6.357 6.357 0 0 1 1.96-4.818" stroke="#b52854" stroke-linecap="round"/><path d="m70.94 75.612a1.685 1.685 0 0 0 -.539.41 1.077 1.077 0 1 0 1.578 1.404c.076-.087.144-.18.204-.28a1.238 1.238 0 0 1 -1.243-1.534z" fill="#ff7394"/><path d="m75.494 74.805c1.545 1.35 1.475 3.875-.253 5.673-1.798 1.879-4.624 2.196-6.212.673a3.267 3.267 0 0 1 -.539-.684 4.748 4.748 0 1 0 6.998-5.668z" fill="#f42f3d"/><path d="m54.112 101.397c2.261 1.275 1.535 3.827-1.614 5.684-3.15 1.857-7.537 2.336-9.787 1.077-2.25-1.26-1.534-3.828 1.615-5.69 3.15-1.863 7.531-2.353 9.786-1.071z" fill="url(#f)"/><circle cx="45.236" cy="103.318" fill="#f9486a" r="5.485"/><ellipse cx="44.972" cy="99.841" fill="#b52854" rx="1.13" ry="1"/><path d="m44.978 99.728a7.342 7.342 0 0 1 2.26-5.56" stroke="#b52854" stroke-linecap="round"/><path d="m42.927 99.62c-.241.113-.457.272-.636.468-.58.663-.65 1.562-.145 2.008.506.447 1.389.28 1.976-.382.088-.099.166-.207.231-.323a1.426 1.426 0 0 1 -1.426-1.77z" fill="#ff7394"/><path d="m48.18 98.689c1.788 1.56 1.701 4.473-.29 6.556-2.078 2.154-5.346 2.536-7.176.775a3.515 3.515 0 0 1 -.63-.79 5.485 5.485 0 1 0 8.075-6.547z" fill="#f42f3d"/></g><path d="m144.515 39.304-67.858 39.226-68.357-39.307 68.249-39.183z" fill="#edf9ff" opacity=".523"/><path d="m144.515 39.304-.253 77.116-67.987 39.845.382-77.735z" fill="#bee9ff" opacity=".303"/><path d="m76.657 78.53-68.357-39.307-.13 77.687 21.56 12.456v-54.282l24.12 13.878v54.346l22.426 12.957z" fill="#c1e9ff" opacity=".542"/><g opacity=".59"><path d="m.654 137.852 29.101-8.453v-54.33l-29.1 8.399z" fill="#98dbff"/><path d="m29.276 74.772-29.074 8.378v54.384l.452.318v-54.384l29.074-8.384z" fill="#009ff2"/></g><g transform="translate(35 149)"><path d="m24.439 6.761c.682-.372.682-1.054 0-1.427l-8.064-4.714c-.682-.372-1.798-.372-2.48 0l-12.965 7.506c-.682.372-.682 1.054 0 1.426l8.064 4.714c.682.373 1.799.373 2.481 0l12.965-7.505z" fill="url(#g)" transform="translate(4.962 1.86)"/><path d="m11.165 1.799c.186.124.31.186.434.31.869.558 2.11 2.419.372 4.218l-.124.124c-.186.186-.496.372-.806.558a7.23 7.23 0 0 1 -2.047.682c-1.054.125-2.109.062-3.163-.31-.31-.124-.559-.248-.807-.372-1.178-.682-4.404-2.543-4.466-2.543-.124-.062-.124-.248-.124-.434 0-.434.31-.993.683-1.24.186-.125.372-.125.496-.063l2.357 1.365 1.55.868c1.427.807 3.66.807 5.087 0 .062 0 .062-.062.124-.062.434-.31.434-.744 0-.992l-1.24-.745-.559-.31-.806-.496c-.124-.062-.186-.248-.186-.496 0-.434.31-.993.744-1.24.186-.125.372-.125.496-.063 0 .062.869.559 1.985 1.24z" fill="url(#h)" transform="translate(16.127 11.785)"/><path d="m22.454 6.761c.682-.372.682-1.054 0-1.427l-8.064-4.714c-.682-.372-1.798-.372-2.48 0l-11.29 6.513c-.682.372-.682 1.055 0 1.427l8.064 4.714c.682.372 1.799.372 2.481 0l11.29-6.513z" fill="#73d4ff"/><path d="m23.012 11.91c0 .247-.186.496-.496.744l-11.351 6.513c-.682.372-1.799.372-2.481 0l-8.064-4.714c-.31-.187-.496-.435-.496-.745v-5.892c0 .248.186.496.496.744l8.064 4.714c.682.372 1.799.372 2.481 0l11.29-6.513c.371-.186.495-.434.495-.744l.062 5.892z" fill="#1fb1ff"/><path d="m23.012 9.552c0 .31-.186.559-.558.807l-8.932 5.148-.558-1.303 9.49-5.52c.372-.248.558-.558.558-.806z" fill="url(#j)" opacity=".16"/><path d="m25.431 13.336c1.055.682 2.544 2.853.497 5.086-.062.062-.124.124-.124.186a3.614 3.614 0 0 1 -.93.683c-.745.372-1.551.682-2.482.806-1.24.186-2.543.062-3.722-.434-.372-.124-.682-.31-.992-.496-1.365-.807-5.272-3.04-5.334-3.04-.124-.124-.187-.248-.187-.496 0-.558.373-1.178.869-1.489.248-.124.434-.124.558-.062l2.853 1.613 1.861 1.055c1.675.992 4.404.992 6.079 0 .062-.062.124-.062.124-.125h.062c.558-.31.558-.868-.124-1.24l-.806-.496-.993-.559c-.186-.062-.248-.31-.248-.558 0-.558.372-1.24.868-1.488.249-.125.435-.125.559-.062-.124 0 1.426.992 1.612 1.116z" fill="#a3e3ff"/><path d="m24.439 16.686c.558-.31.558-.869 0-1.179l-1.923-1.117c.496-.434 1.055-1.054 1.861-.558 1.613.93 1.55 1.861.062 2.854z" fill="url(#k)" opacity=".16"/><path d="m10.235 5.52c.496-.248.496-.744 0-.992-.31-.186-.807-.248-1.24-.186l-.87-.496a.395.395 0 0 0 -.372 0l-.372.186c-.124.062-.124.186 0 .248l.869.496c-.124.248-.062.496.248.744.434.249 1.24.249 1.737 0z" fill="#007dbd"/><ellipse cx="19.401" cy="11.229" fill="#007dbd" rx="1.054" ry="1" transform="matrix(.5024919 -.86458192 .86458192 .5024919 -.056236 22.360272)"/><path d="m19.849 10.297c.062.062.124.186.124.372 0 .496-.31 1.054-.744 1.302-.186.124-.31.124-.435.062.125.187.373.249.62.062.435-.248.745-.806.745-1.302 0-.248-.124-.434-.31-.496z" fill="#005b8a"/></g></g></svg>