<svg height="157" width="193" xmlns="http://www.w3.org/2000/svg" xmlns:xlink="http://www.w3.org/1999/xlink"><linearGradient id="a" x1="5.041%" x2="74.315%" y1="111.079%" y2="13.802%"><stop offset="0" stop-color="#99c1d3"/><stop offset=".35095" stop-color="#d1d9df"/><stop offset=".45739" stop-color="#d9e1e4" stop-opacity=".832"/><stop offset="1" stop-color="#fff" stop-opacity="0"/></linearGradient><linearGradient id="b"><stop offset="0" stop-color="#244f66"/><stop offset=".32" stop-color="#4dabdb"/><stop offset="1" stop-color="#e1fcff" stop-opacity="0"/></linearGradient><linearGradient id="c" x1="12.511%" x2="61.601%" xlink:href="#b" y1="107.743%" y2="32.195%"/><linearGradient id="d" x1="22.507%" x2="66.555%" xlink:href="#b" y1="111.941%" y2="12.738%"/><linearGradient id="e" x1="22.494%" x2="66.542%" xlink:href="#b" y1="111.941%" y2="12.716%"/><linearGradient id="f" x1="32.428%" x2="63.595%" xlink:href="#b" y1="70.113%" y2="34.419%"/><g fill="none" fill-rule="evenodd"><path d="m198.903 80.397-62.346 36.252-67.993-39.482 61.856-36.748z" fill="url(#a)" fill-rule="nonzero"/><path d="m68.5 78.496-.388 77.743-68.112-39.359.135-77.694z" fill="#cfeeff" opacity=".24"/><path d="m68.386 0-.134 77.194-68.252 39.686.135-77.694z" fill="#c5ebff" opacity=".6"/><path d="m136.358 39.267-.248 77.124-67.858-39.197.134-77.194z" fill="#fff"/><path d="m70.657 76.08c.044-1.077-.647-2.164-2.073-2.99-2.76-1.598-7.216-1.598-9.956 0-1.366.798-2.045 1.833-2.045 2.871l-.044 23.864c0 1.05.691 2.1 2.077 2.903 2.76 1.598 7.217 1.598 9.956 0 1.358-.799 2.041-1.825 2.045-2.86l.044-23.863s-.004.048-.004.076z" fill="#cc7265"/><path d="m70.657 84.08c.044-1.077-.647-2.164-2.073-2.99a7.516 7.516 0 0 0 -1.022-.484l-3.962 17.694a3.487 3.487 0 0 1 3.962 3.455v1.445a7.844 7.844 0 0 0 1.01-.479c1.358-.799 2.041-1.83 2.045-2.863l.044-15.864c0 .012-.004.06-.004.088z" fill="#ba685c"/><path d="m43 78.405 20.6 11.895 20.6-11.894-20.6-32.2z" fill="#2bc092"/><path d="m63.6 90.299v-44.094l-20.6 32.2z" fill="#87eebf"/><path d="m130.926 106.227.108-.06-30.395 17.561c-1.223.705-3.23.948-5.793.539a21.593 21.593 0 0 1 -7.3-2.59c-2.153-1.233-3.8-2.735-4.5-4.226s-.286-2.692.958-3.408l30.395-17.555c1.21-.705 3.23-.953 5.798-.538 2.567.413 5.039 1.289 7.294 2.584 2.154 1.232 3.806 2.74 4.5 4.226.695 1.485.26 2.756-1.065 3.467z" fill="url(#c)"/><ellipse cx="93.152" cy="84.741" fill="#ffd7e2" rx="7.86" ry="13.572" transform="matrix(.00279252 -.9999961 .9999961 .00279252 8.151201 177.655996)"/><path d="m83.546 122.71c-2.692-1.544-4.016-3.574-4.01-5.598l.048-32.403c0 2.024 1.33 4.054 4.01 5.599 5.314 3.068 13.911 3.068 19.193 0 2.627-1.524 3.94-3.521 3.946-5.524l-.049 32.409c0 1.997-1.319 3.994-3.94 5.518-5.303 3.068-13.88 3.068-19.198 0z" fill="#ffb3c3"/><path d="m98.593 91.96c1.468-.353 2.88-.91 4.194-1.652 2.627-1.524 3.94-3.521 3.946-5.524l-.049 32.409c0 1.997-1.319 3.994-3.94 5.518a16.468 16.468 0 0 1 -4.194 1.658z" fill="#ff8297"/><path d="m53.89 36.341-23.43 13.62-18.357-10.68 23.429-13.62z" fill="url(#d)" transform="translate(17 67)"/><path d="m33.081 93.79-15.628-9.022 15.527-17.028 15.628 9.023z" fill="#f47f64"/><path d="m48.559 116.326-15.526 9.023.048-31.558 15.526-17.028z" fill="#e56955"/><path d="m33.033 125.349-15.628-9.023.048-31.558 15.628 9.023z" fill="#fea084"/><path d="m53.972 26.474-23.429 13.62-18.357-10.686 23.429-13.615z" fill="url(#e)" transform="translate(47 96)"/><path d="m63.159 114.608-15.628-9.022 15.53-9.023 15.624 9.023z" fill="#1fb1ff"/><path d="m78.636 135.453-15.526 9.023.049-29.868 15.526-9.022z" fill="#008ad1"/><path d="m63.11 144.476-15.628-9.017.049-29.873 15.628 9.022z" fill="#73d4ff"/><g transform="translate(51.564 88.107)"><path d="m27.24 7.147c4.221 2.394 2.87 7.156-3.013 10.635-5.883 3.478-14.068 4.355-18.299 1.965-4.23-2.39-2.87-7.156 3.013-10.612 5.883-3.455 14.082-4.378 18.299-1.988z" fill="url(#f)"/><circle cx="10.648" cy="10.741" fill="#ffd036" r="10.252"/><path d="m16.153 2.09c3.34 2.911 3.183 8.36-.545 12.254-3.866 4.06-9.966 4.748-13.37 1.463a6.82 6.82 0 0 1 -1.173-1.476 10.252 10.252 0 1 0 15.11-12.241z" fill="#ffc20c"/><ellipse cx="6.856" cy="6.23" fill="#f9e4aa" rx="2.981" ry="2.284" transform="matrix(.66483932 -.74698639 .74698639 .66483932 -2.355864 7.20939)"/></g><path d="m136.358 39.267-.253 77.124-67.993 39.848.387-77.743z" fill="#bee9ff" opacity=".303"/><path d="m136.358 39.267-67.859 39.23-68.364-39.311 68.251-39.186z" fill="#edf9ff" opacity=".523"/></g></svg>