<svg height="468" width="911" xmlns="http://www.w3.org/2000/svg"><g fill="none" fill-rule="evenodd"><path d="m117.85 231.84 14.248 10.912v181.09h-14.248z" fill="#d8e6ef"/><path d="m117.85 231.84-51.213 6.355v185.645h51.213z" fill="#fff"/><path d="m74.013 279.42 1.837-.196v-11.386l-1.837.217zm0-32.412v10.995l1.837-.235v-10.996zm0 74.622 1.837-.121v-10.844l-1.837.142zm0-21.146 1.837-.159v-11.032l-1.837.18zm0 63.9 1.837-.047v-11.387l-1.837.067zm0-21.418 1.837-.085v-11.031l-1.837.103zm0 38.368 1.837-.014v-6.914l-1.837.028zm10.282-114.494-1.867.22v11.459l1.867-.2zm0-10.151v-11l-1.867.24v10.999zm0 53.327-1.867.143v10.912l1.867-.124zm0-21.546-1.867.181v11.102l1.867-.162zm0 64.174-1.867.068v11.459l1.867-.048zm0-21.273-1.867.106v11.102l1.867-.086zm-1.867 49.899 1.867-.014v-6.982l-1.867.03zm10.45-115.444-1.897.224v11.552l1.897-.203zm0-10.234v-11.005l-1.897.244v11.003zm-1.898 64.91 1.898-.126v-11.02l-1.898.145zm1.898-32.869-1.897.185v11.192l1.897-.165zm0 64.7-1.897.068v11.553l1.897-.048zm0-21.447-1.897.107v11.193l1.897-.087zm-1.898 50.32 1.898-.014v-7.053l-1.897.03zm8.695-104.536 1.928-.207v-11.668l-1.928.227zm1.928-22.193v-11.009l-1.929.248v11.007zm0 54.207-1.929.148v11.091l1.93-.127zm0-10.597v-11.305l-1.929.188v11.285zm-1.928 65.647 1.928-.05v-11.668l-1.928.07zm1.928-33.341-1.929.109v11.284l1.93-.088zm0 43.61-1.929.03v7.108l1.93-.015zm8.871-110.256-1.961.232v11.744l1.961-.21zm0-10.404v-11.013l-1.961.252v11.011zm-1.962 65.993 1.962-.13v-11.206l-1.962.152zm1.962-33.419-1.961.191v11.379l1.961-.17zm0 77.543v-11.765l-1.961.07v11.745zm-1.962-22.08 1.962-.09v-11.4l-1.962.11zm0 39.694 1.962-.014v-7.195l-1.962.03z" fill="#d8e6ef"/><path d="m169.869 143.884 25.975 15.139v15.772l-16.648-15.772z" fill="#d1e4e5"/><path d="m222.762 185.754-43.61-26.731v264.819h43.61z" fill="#d8e6ef"/><path d="m179.152 159.023-48.792 8.636-.863 256.182h49.655zm14.628-91.996v356.815h77.782v-366.136z" fill="#fff"/><path d="m227.67 81.042-6.58.665v-5.073l6.58-.674zm0 19.294-6.58.63v-5.073l6.58-.639zm0 34.042-6.58.565v-5.073l6.58-.574zm0 19.295-6.58.528v-5.073l6.58-.537zm0 38.957-6.58.455v-5.072l6.58-.465zm0 19.294-6.58.42v-5.073l6.58-.429zm0 53.336-6.58.32v-5.073l6.58-.328zm0-34.041-6.58.383v-5.073l6.58-.392zm0 53.336-6.58.283v-5.073l6.58-.292zm0 19.295-6.58.246v-5.073l6.58-.255zm0 34.041-6.58.182v-5.072l6.58-.191zm-20.7-254.756 6.657-.673v-5.062l-6.657.683zm0 19.18 6.657-.637v-5.061l-6.657.646zm0 33.84 6.657-.571v-5.062l-6.657.581zm0 19.181 6.657-.535v-5.062l-6.657.544zm0 38.727 6.657-.461v-5.062l-6.657.47zm0 19.18 6.657-.424v-5.062l-6.657.434zm0 53.021 6.657-.323v-5.062l-6.657.332zm0-33.841 6.657-.387v-5.062l-6.657.397zm0 53.021 6.657-.286v-5.062l-6.657.296zm0 19.18 6.657-.249v-5.061l-6.657.258zm0 33.841 6.657-.185v-5.062l-6.657.194zm20.7 18.721-6.58.146v-5.073l6.58-.155zm0 19.294-6.58.11v-5.072l6.58-.12zm0 38.957-6.58.037v-24.252l6.58-.045zm-20.7-57.792 6.657-.148v-5.061l-6.657.157zm0 19.18 6.657-.111v-5.061l-6.657.12zm0 38.727 6.657-.037v-24.24l-6.657.046zm49.262-337.399-6.687.676v-5.113l6.687-.686zm0 19.452-6.687.64v-5.115l6.687-.649zm0 34.32-6.687.575v-5.114l6.687-.584zm0 19.452-6.687.537v-5.113l6.687-.547zm0 39.276-6.687.463v-5.114l6.687-.473zm0 19.452-6.687.426v-5.114l6.687-.436zm0 53.772-6.687.324v-5.114l6.687-.334zm0-34.32-6.687.389v-5.114l6.687-.398zm0 53.772-6.687.287v-5.114l6.687-.297zm0 19.451-6.687.251v-5.114l6.687-.26zm0 34.32-6.687.185v-5.113l6.687-.195zm-21.038-256.82 6.766-.683v-5.103l-6.766.694zm0 19.337 6.766-.647v-5.103l-6.766.657zm0 34.115 6.766-.581v-5.103l-6.766.59zm0 19.336 6.766-.544v-5.102l-6.766.553zm0 39.041 6.766-.469v-5.102l-6.766.478zm0 19.336 6.766-.431v-5.103l-6.766.44zm0 53.451 6.766-.328v-5.103l-6.766.338zm0-34.115 6.766-.394v-5.102l-6.766.403zm0 53.451 6.766-.29v-5.103l-6.766.3zm0 19.336 6.766-.253v-5.103l-6.766.263zm0 34.115 6.766-.188v-5.102l-6.766.197zm21.038 18.87-6.687.148v-5.114l6.687-.158zm0 19.452-6.687.111v-5.113l6.687-.122zm0 39.275-6.687.037v-24.293l6.687-.047zm-21.038-58.26 6.766-.151v-5.103l-6.766.16zm0 19.335 6.766-.113v-5.103l-6.766.123zm0 39.041 6.766-.037v-24.282l-6.766.047zm36.368-357.69 18.291 14.696v344.545l-18.29 1.814z" fill="#d8e6ef"/><path d="m271.406 57.574 45.164 33.466.424 332.801h-46.42z" fill="#d8e6ef"/><path d="m362.148 123.201 24.596 11.427v50.9l-25.869-11.294-4.707-20.163z" fill="#d1e4e5"/><path d="m321.17 169.52v-42.198l40.978-4.121v60.197z" fill="#fff"/><path d="m304.166 166.077v257.763h61.811v-263.978z" fill="#fff"/><path d="m365.977 159.862v263.98h46.24l-1.115-243.229zm443.872 5.701-28.49 12.14v246.138h28.49z" fill="#d8e6ef"/><path d="m809.849 165.563 56.251 8.544v249.734h-56.25z" fill="#fff"/><path d="m817.466 180.896 41.857 6.358v5.037l-41.857-5.698zm0 20.019 41.857 5.652v5.037l-41.857-4.991zm0 20.553 41.857 4.592v5.036l-41.857-3.93z" fill="#d8e6ef"/><path d="m793.652 67.804v356.649h-69.351l-.001-366.747z" fill="#fff"/><path d="m724.3 57.706-30.519 16.26v350.486h30.52z" fill="#d8e6ef"/><path d="m683.104 165.563c0 17.274-14.004 31.278-31.279 31.278-17.274 0-31.277-14.004-31.277-31.278 0-17.275 14.003-31.279 31.277-31.279 17.275 0 31.279 14.004 31.279 31.279" fill="#fff"/><path d="m668.625 139.175.05.04c10.19 8.882 9.711 25.509-1.667 37.38-11.841 12.353-30.458 14.446-40.915 4.421a20.984 20.984 0 0 1 -3.574-4.504c4.438 11.874 15.884 20.328 29.307 20.328 17.274 0 31.278-14.003 31.278-31.277 0-11.092-5.774-20.834-14.479-26.388" fill="#d8e6ef"/><path d="m642.33 143.578c-2.464 0-5.2 1.258-7.28 3.593-3.34 3.754-3.718 8.872-.842 11.432 1.087.966 2.482 1.43 3.978 1.43 2.463 0 5.2-1.257 7.279-3.593 3.34-3.754 3.718-8.872.842-11.43-1.087-.968-2.481-1.432-3.978-1.432" fill="#fffefd"/><path d="m707.004 189.933v234.52h-77.004v-245.654z" fill="#fff"/><path d="m630 178.798v245.654h-34.462v-222.621zm63.012 23.636-45.34-6.565v4.856l45.34 6.45zm-45.339 23.146 45.34 5.864v-4.742l-45.34-5.978zm-210.397-110.097 29.919 14.99v293.367h-29.92l-33.885-276.697z" fill="#d8e6ef"/><path d="m391.068 120.143v303.698h46.208v-308.358z" fill="#fff"/><path d="m500.767 43.355 3.253 4.876 16.022 33.579 2.849 342.642h-19.845l7.121-343.592z" fill="#d8e6ef"/><path d="m458.957 424.453 7.121-343.593 46.115-1.899-3.797 345.492z" fill="#fff"/><path d="m492.685.019v2.001a1.66 1.66 0 0 0 -.099.543v44.037h3.355v-44.036c0-2.017-1.37-2.545-3.256-2.545" fill="#d8e6ef"/><path d="m500.767 43.355h-19.805l-14.884 37.505 46.116-1.899zm38.186 100.713 63.15 4.057v276.327h-63.15z" fill="#fff"/><path d="m539.173 144.068-19.507 13.415v266.97h19.507z" fill="#d8e6ef"/><path d="m169.869 143.884-16.083 2.433-24.097 21.468 49.507-8.762zm321.039-98.156v-44.034a1.678 1.678 0 0 1 3.356 0v44.034zm7.486 16.933a7.596 7.596 0 1 1 -15.193 0 7.596 7.596 0 0 1 15.193 0" fill="#fff"/><path d="m475.052 424.453 8.535-344.314 9.289-.382-2.902 344.696z" fill="#d8e6ef"/><path d="m117.85 231.84 14.248 10.912v181.09h-14.248z" fill="#d8e6ef"/><path d="m117.85 231.84-51.213 6.355v185.645h51.213z" fill="#fff"/><path d="m74.013 279.42 1.837-.196v-11.386l-1.837.217zm0-32.412v10.995l1.837-.235v-10.996zm0 74.622 1.837-.121v-10.844l-1.837.142zm0-21.146 1.837-.159v-11.032l-1.837.18zm0 63.9 1.837-.047v-11.387l-1.837.067zm0-21.418 1.837-.085v-11.031l-1.837.103zm0 38.368 1.837-.014v-6.914l-1.837.028zm10.282-114.494-1.867.22v11.459l1.867-.2zm0-10.151v-11l-1.867.24v10.999zm0 53.327-1.867.143v10.912l1.867-.124zm0-21.546-1.867.181v11.102l1.867-.162zm0 64.174-1.867.068v11.459l1.867-.048zm0-21.273-1.867.106v11.102l1.867-.086zm-1.867 49.899 1.867-.014v-6.982l-1.867.03zm10.45-115.444-1.897.224v11.552l1.897-.203zm0-10.234v-11.005l-1.897.244v11.003zm-1.898 64.91 1.898-.126v-11.02l-1.898.145zm1.898-32.869-1.897.185v11.192l1.897-.165zm0 64.7-1.897.068v11.553l1.897-.048zm0-21.447-1.897.107v11.193l1.897-.087zm-1.898 50.32 1.898-.014v-7.053l-1.897.03zm8.695-104.536 1.928-.207v-11.668l-1.928.227zm1.928-22.193v-11.009l-1.929.248v11.007zm0 54.207-1.929.148v11.091l1.93-.127zm0-10.597v-11.305l-1.929.188v11.285zm-1.928 65.647 1.928-.05v-11.668l-1.928.07zm1.928-33.341-1.929.109v11.284l1.93-.088zm0 43.61-1.929.03v7.108l1.93-.015zm8.871-110.256-1.961.232v11.744l1.961-.21zm0-10.404v-11.013l-1.961.252v11.011zm-1.962 65.993 1.962-.13v-11.206l-1.962.152zm1.962-33.419-1.961.191v11.379l1.961-.17zm0 77.543v-11.765l-1.961.07v11.745zm-1.962-22.08 1.962-.09v-11.4l-1.962.11zm0 39.694 1.962-.014v-7.195l-1.962.03z" fill="#d8e6ef"/><path d="m169.869 143.884 25.975 15.139v15.772l-16.648-15.772z" fill="#d1e4e5"/><path d="m222.762 185.754-43.61-26.731v264.819h43.61z" fill="#d8e6ef"/><path d="m179.152 159.023-48.792 8.636-.863 256.182h49.655zm14.628-91.996v356.815h77.782v-366.136z" fill="#fff"/><path d="m227.67 81.042-6.58.665v-5.073l6.58-.674zm0 19.294-6.58.63v-5.073l6.58-.639zm0 34.042-6.58.565v-5.073l6.58-.574zm0 19.295-6.58.528v-5.073l6.58-.537zm0 38.957-6.58.455v-5.072l6.58-.465zm0 19.294-6.58.42v-5.073l6.58-.429zm0 53.336-6.58.32v-5.073l6.58-.328zm0-34.041-6.58.383v-5.073l6.58-.392zm0 53.336-6.58.283v-5.073l6.58-.292zm0 19.295-6.58.246v-5.073l6.58-.255zm0 34.041-6.58.182v-5.072l6.58-.191zm-20.7-254.756 6.657-.673v-5.062l-6.657.683zm0 19.18 6.657-.637v-5.061l-6.657.646zm0 33.84 6.657-.571v-5.062l-6.657.581zm0 19.181 6.657-.535v-5.062l-6.657.544zm0 38.727 6.657-.461v-5.062l-6.657.47zm0 19.18 6.657-.424v-5.062l-6.657.434zm0 53.021 6.657-.323v-5.062l-6.657.332zm0-33.841 6.657-.387v-5.062l-6.657.397zm0 53.021 6.657-.286v-5.062l-6.657.296zm0 19.18 6.657-.249v-5.061l-6.657.258zm0 33.841 6.657-.185v-5.062l-6.657.194zm20.7 18.721-6.58.146v-5.073l6.58-.155zm0 19.294-6.58.11v-5.072l6.58-.12zm0 38.957-6.58.037v-24.252l6.58-.045zm-20.7-57.792 6.657-.148v-5.061l-6.657.157zm0 19.18 6.657-.111v-5.061l-6.657.12zm0 38.727 6.657-.037v-24.24l-6.657.046zm49.262-337.399-6.687.676v-5.113l6.687-.686zm0 19.452-6.687.64v-5.115l6.687-.649zm0 34.32-6.687.575v-5.114l6.687-.584zm0 19.452-6.687.537v-5.113l6.687-.547zm0 39.276-6.687.463v-5.114l6.687-.473zm0 19.452-6.687.426v-5.114l6.687-.436zm0 53.772-6.687.324v-5.114l6.687-.334zm0-34.32-6.687.389v-5.114l6.687-.398zm0 53.772-6.687.287v-5.114l6.687-.297zm0 19.451-6.687.251v-5.114l6.687-.26zm0 34.32-6.687.185v-5.113l6.687-.195zm-21.038-256.82 6.766-.683v-5.103l-6.766.694zm0 19.337 6.766-.647v-5.103l-6.766.657zm0 34.115 6.766-.581v-5.103l-6.766.59zm0 19.336 6.766-.544v-5.102l-6.766.553zm0 39.041 6.766-.469v-5.102l-6.766.478zm0 19.336 6.766-.431v-5.103l-6.766.44zm0 53.451 6.766-.328v-5.103l-6.766.338zm0-34.115 6.766-.394v-5.102l-6.766.403zm0 53.451 6.766-.29v-5.103l-6.766.3zm0 19.336 6.766-.253v-5.103l-6.766.263zm0 34.115 6.766-.188v-5.102l-6.766.197zm21.038 18.87-6.687.148v-5.114l6.687-.158zm0 19.452-6.687.111v-5.113l6.687-.122zm0 39.275-6.687.037v-24.293l6.687-.047zm-21.038-58.26 6.766-.151v-5.103l-6.766.16zm0 19.335 6.766-.113v-5.103l-6.766.123zm0 39.041 6.766-.037v-24.282l-6.766.047zm36.368-357.69 18.291 14.696v344.545l-18.29 1.814z" fill="#d8e6ef"/><path d="m271.406 57.574 45.164 33.466.424 332.801h-46.42z" fill="#d8e6ef"/><path d="m362.148 123.201 24.596 11.427v50.9l-25.869-11.294-4.707-20.163z" fill="#d1e4e5"/><path d="m321.17 169.52v-42.198l40.978-4.121v60.197z" fill="#fff"/><path d="m304.166 166.077v257.763h61.811v-263.978z" fill="#fff"/><path d="m365.977 159.862v263.98h46.24l-1.115-243.229zm443.872 5.701-28.49 12.14v246.138h28.49z" fill="#d8e6ef"/><path d="m809.849 165.563 56.251 8.544v249.734h-56.25z" fill="#fff"/><path d="m817.466 180.896 41.857 6.358v5.037l-41.857-5.698zm0 20.019 41.857 5.652v5.037l-41.857-4.991zm0 20.553 41.857 4.592v5.036l-41.857-3.93z" fill="#d8e6ef"/><path d="m793.652 67.804v356.649h-69.351l-.001-366.747z" fill="#fff"/><path d="m724.3 57.706-30.519 16.26v350.486h30.52z" fill="#d8e6ef"/><path d="m683.104 165.563c0 17.274-14.004 31.278-31.279 31.278-17.274 0-31.277-14.004-31.277-31.278 0-17.275 14.003-31.279 31.277-31.279 17.275 0 31.279 14.004 31.279 31.279" fill="#fff"/><path d="m668.625 139.175.05.04c10.19 8.882 9.711 25.509-1.667 37.38-11.841 12.353-30.458 14.446-40.915 4.421a20.984 20.984 0 0 1 -3.574-4.504c4.438 11.874 15.884 20.328 29.307 20.328 17.274 0 31.278-14.003 31.278-31.277 0-11.092-5.774-20.834-14.479-26.388" fill="#d8e6ef"/><path d="m642.33 143.578c-2.464 0-5.2 1.258-7.28 3.593-3.34 3.754-3.718 8.872-.842 11.432 1.087.966 2.482 1.43 3.978 1.43 2.463 0 5.2-1.257 7.279-3.593 3.34-3.754 3.718-8.872.842-11.43-1.087-.968-2.481-1.432-3.978-1.432" fill="#fffefd"/><path d="m707.004 189.933v234.52h-77.004v-245.654z" fill="#fff"/><path d="m630 178.798v245.654h-34.462v-222.621zm63.012 23.636-45.34-6.565v4.856l45.34 6.45zm-45.339 23.146 45.34 5.864v-4.742l-45.34-5.978zm-210.397-110.097 29.919 14.99v293.367h-29.92l-33.885-276.697z" fill="#d8e6ef"/><path d="m391.068 120.143v303.698h46.208v-308.358z" fill="#fff"/><path d="m500.767 43.355 3.253 4.876 16.022 33.579 2.849 342.642h-19.845l7.121-343.592z" fill="#d8e6ef"/><path d="m458.957 424.453 7.121-343.593 46.115-1.899-3.797 345.492z" fill="#fff"/><path d="m492.685.019v2.001a1.66 1.66 0 0 0 -.099.543v44.037h3.355v-44.036c0-2.017-1.37-2.545-3.256-2.545" fill="#d8e6ef"/><path d="m500.767 43.355h-19.805l-14.884 37.505 46.116-1.899zm38.186 100.713 63.15 4.057v276.327h-63.15z" fill="#fff"/><path d="m539.173 144.068-19.507 13.415v266.97h19.507z" fill="#d8e6ef"/><path d="m169.869 143.884-16.083 2.433-24.097 21.468 49.507-8.762zm321.039-98.156v-44.034a1.678 1.678 0 0 1 3.356 0v44.034zm7.486 16.933a7.596 7.596 0 1 1 -15.193 0 7.596 7.596 0 0 1 15.193 0" fill="#fff"/><path d="m475.052 424.453 8.535-344.314 9.289-.382-2.902 344.696z" fill="#d8e6ef"/><path d="m199.255 276.53-58.527-4.39-2.441 10.68 83.357 7.285z" fill="#e8ab00"/><path d="m140.728 272.14-36.85 5.596-18.078 12.554 52.487-7.472z" fill="#ffce00"/><path d="m221.644 290.105-83.357-7.285v183.208h83.357z" fill="#ddc7af"/><path d="m138.286 282.82-52.485 7.472v175.736h52.485z" fill="#fdebd3"/><path d="m274.21 266.826-66.31-6.347-2.596 13.387 88.608 8.353z" fill="#e8ab00"/><path d="m207.9 260.479-39.172 5.948-19.216 15.077 55.792-7.638z" fill="#ffce00"/><path d="m293.913 282.22-88.61-8.354v191.818h88.61z" fill="#ddc7af"/><path d="m205.304 273.866-55.792 7.638v184.18h55.792z" fill="#fdebd3"/><path d="m246.572 419.741 9.74.223a1.956 1.956 0 0 0 2.001-1.956v-16.866c0-1.056-.837-1.92-1.891-1.956l-9.74-.325a1.957 1.957 0 0 0 -2.022 1.956v16.967c0 1.064.849 1.932 1.912 1.957m27.226-81.775 9.74.63a1.958 1.958 0 0 0 2.083-1.954v-14.524a1.957 1.957 0 0 0 -1.813-1.952l-9.74-.72a1.957 1.957 0 0 0 -2.102 1.952v14.615c0 1.032.802 1.886 1.832 1.953m.026 26.781 9.74.497a1.956 1.956 0 0 0 2.057-1.954v-14.528a1.958 1.958 0 0 0 -1.84-1.953l-9.739-.589a1.958 1.958 0 0 0 -2.075 1.954v14.618c0 1.043.817 1.902 1.857 1.955m.026 26.78 9.74.366a1.958 1.958 0 0 0 2.03-1.956v-14.53a1.957 1.957 0 0 0 -1.865-1.955l-9.74-.456a1.957 1.957 0 0 0 -2.048 1.954v14.621c0 1.053.832 1.917 1.883 1.956m-17.376-46.367-9.74-.59a1.957 1.957 0 0 0 -2.074 1.954v14.876c0 1.042.816 1.901 1.857 1.954l9.74.498a1.957 1.957 0 0 0 2.056-1.955v-14.783a1.957 1.957 0 0 0 -1.839-1.954m-.026 27.012-9.74-.456a1.956 1.956 0 0 0 -2.048 1.955v14.877c0 1.052.832 1.916 1.883 1.955l9.74.365a1.957 1.957 0 0 0 2.03-1.955v-14.785a1.957 1.957 0 0 0 -1.865-1.956m-11.788 55.792v14.88c0 1.073.863 1.946 1.936 1.957l9.74.101a1.956 1.956 0 0 0 1.977-1.956v-14.789a1.957 1.957 0 0 0 -1.918-1.957l-9.74-.193a1.957 1.957 0 0 0 -1.995 1.957m-15.546-29.688-9.74-.325a1.957 1.957 0 0 0 -2.022 1.956v17.252c0 1.063.849 1.932 1.912 1.956l9.74.223a1.957 1.957 0 0 0 2.002-1.956v-17.15c0-1.056-.837-1.921-1.892-1.956m-11.762 29.148v15.136c0 1.072.864 1.946 1.937 1.957l9.74.101a1.957 1.957 0 0 0 1.977-1.956v-15.045a1.957 1.957 0 0 0 -1.918-1.957l-9.74-.193a1.957 1.957 0 0 0 -1.996 1.957m56.551 17.662 9.74.1a1.957 1.957 0 0 0 1.978-1.956v-14.533a1.957 1.957 0 0 0 -1.919-1.956l-9.74-.193a1.957 1.957 0 0 0 -1.996 1.957v14.624c0 1.072.865 1.946 1.937 1.957m-.024-24.72 9.74.224a1.957 1.957 0 0 0 2.001-1.956v-16.582c0-1.055-.837-1.92-1.891-1.956l-9.74-.325a1.958 1.958 0 0 0 -2.022 1.957v16.682c0 1.064.85 1.932 1.912 1.956m-15.566-112.506v-14.775a1.957 1.957 0 0 0 -1.786-1.95l-9.74-.852a1.957 1.957 0 0 0 -2.127 1.95v14.867c0 1.022.786 1.871 1.804 1.95l9.74.762a1.957 1.957 0 0 0 2.11-1.951m-29.147 35.649-9.74-.589a1.957 1.957 0 0 0 -2.075 1.954v15.13c0 1.042.817 1.902 1.857 1.954l9.74.498a1.957 1.957 0 0 0 2.057-1.955v-15.039c0-1.035-.806-1.89-1.84-1.954" fill="#cfbaa4"/><path d="m161.517 292.249a6.593 6.593 0 0 0 -5.757 6.54v12.7l13.185-1.506v-11.193c0-3.973-3.487-7.044-7.428-6.54m17.38 98.153 15.403-.844v-10.784c0-4.46-3.778-7.988-8.228-7.684a7.7 7.7 0 0 0 -7.175 7.684zm0-54.37 15.403-1.452v-10.454a7.702 7.702 0 0 0 -15.403 0zm-16.865 63.555a6.594 6.594 0 0 0 -6.272 6.586v12.223l13.186-.46v-11.763a6.593 6.593 0 0 0 -6.914-6.586" fill="#ddc7af"/><path d="m271.967 453.223v10.504c0 1.08.876 1.957 1.957 1.957h9.74c1.08 0 1.957-.876 1.957-1.957v-10.434c0-1.075-.868-1.949-1.943-1.957l-9.74-.071a1.958 1.958 0 0 0 -1.971 1.958" fill="#0672c9"/><path d="m293.913 392.367-88.449-3.41" stroke="#2d708e" stroke-width=".495"/><path d="m205.304 440.124v6.417l88.609.814v-6.11zm0-27.723v6.395l88.609 2.083v-6.11z" fill="#ffc36d"/><path d="m666.042 188.865v78.625h36.741v-85.43z" fill="#e29b6a"/><path d="m702.783 182.06 34.36 9.124v76.306h-34.36z" fill="#f7c9a9"/><path d="m638.487 222.556v58.207h27.2v-62.746z" fill="#ffdfca"/><path d="m665.687 218.017 25.437 4.37v58.376h-25.437z" fill="#f7c9a9"/><path d="m623.176 261.706 59.875-9.185v208.201h-59.875z" fill="#ffdfca"/><path d="m683.051 252.521 54.092 7.577v200.624h-54.092zm-53.982 23.087c-2.204.257-3.986 2.264-3.986 4.482v13.771l7.983-.85.006-13.836c0-2.228-1.794-3.826-4.003-3.567m37.072-4.332c-2.299.269-4.161 2.324-4.166 4.59l-.025 14.07 8.329-.888.032-14.137c.005-2.277-1.864-3.904-4.17-3.635m18.248-77.041c-2.29.27-4.128 2.324-4.132 4.59l-.025 14.07 8.329-.682.032-14.28c.005-2.316-1.889-3.97-4.204-3.698m-18.311 108.614c-2.296.227-4.156 2.242-4.16 4.502l-.026 14.025 8.316-.736.032-14.093c.005-2.27-1.861-3.925-4.162-3.698m-18.738 32.988c-2.244.181-4.06 2.136-4.063 4.364l-.012 13.833 8.128-.575.018-13.898c.003-2.24-1.822-3.906-4.072-3.724m-18.289 32.196c-2.193.14-3.967 2.034-3.967 4.232v13.646l7.946-.421.006-13.71c0-2.208-1.785-3.885-3.984-3.747m18.254-1.153c-2.24.14-4.053 2.057-4.055 4.278l-.013 13.79 8.115-.43.019-13.855c.003-2.232-1.82-3.926-4.066-3.784m18.645-1.179c-2.289.144-4.143 2.082-4.147 4.327l-.025 13.939 8.29-.44.03-14.004c.006-2.256-1.854-3.967-4.148-3.822m-36.906 32.955c-2.19.1-3.961 1.957-3.961 4.148v13.604l7.934-.28.006-13.667a3.771 3.771 0 0 0 -3.979-3.805m18.226-.83c-2.236.102-4.047 1.98-4.049 4.195l-.012 13.748 8.102-.286.019-13.813c.003-2.224-1.817-3.946-4.06-3.844m-18.231 31.357c-2.187.061-3.956 1.881-3.956 4.067v13.563l7.923-.14.005-13.625a3.843 3.843 0 0 0 -3.972-3.865m18.198-.505c-2.233.061-4.041 1.902-4.043 4.11l-.012 13.706 8.09-.143.018-13.77c.002-2.218-1.815-3.966-4.053-3.903m18.586-.517c-2.281.063-4.13 1.924-4.134 4.155l-.024 13.853 8.262-.146.032-13.918c.005-2.242-1.85-4.008-4.136-3.944" fill="#f7c9a9"/><path d="m726.95 375.385 7.233.495v-12.233c0-1.97-1.612-3.696-3.606-3.859-2-.164-3.627 1.31-3.627 3.29zm-16.756 26.8 7.435.339v-12.402c0-1.996-1.657-3.711-3.706-3.832-2.057-.12-3.729 1.41-3.729 3.417zm16.756.764 7.233.33v-12.233c0-1.969-1.612-3.66-3.606-3.776-2-.119-3.627 1.392-3.627 3.373zm-33.983 26.788 7.645.175v-12.575c0-2.024-1.704-3.726-3.81-3.802-2.115-.076-3.835 1.513-3.835 3.55zm17.227.393 7.435.17v-12.402c0-1.995-1.657-3.673-3.706-3.747-2.057-.074-3.729 1.494-3.729 3.503v12.477zm16.756.383 7.233.165v-12.233c0-1.969-1.612-3.623-3.606-3.695-2-.072-3.627 1.475-3.627 3.457zm-33.983 27.564h7.645v-12.575c0-2.024-1.704-3.687-3.81-3.715-2.115-.028-3.835 1.6-3.835 3.637zm17.227 0h7.435v-12.402c0-1.996-1.657-3.635-3.706-3.663-2.057-.027-3.729 1.58-3.729 3.588zm16.756 0h7.233v-12.233c0-1.969-1.612-3.586-3.606-3.613-2-.025-3.627 1.559-3.627 3.54z" fill="#0672c9"/><path d="m604.365 229.739-62.71-9.611-2.596 15.847 88.61 12.361z" fill="#abaca4"/><path d="m541.655 220.128-39.172 8.186-19.216 17.874 55.792-10.213z" fill="#818271"/><path d="m531.98 222.154-3.165 15.779-5.924 1.184.029-15.103z" fill="#6a6b5d" opacity=".5"/><path d="m627.668 248.336-88.61-12.361v229.915h88.61z" fill="#e6d6c2"/><path d="m539.059 235.975-55.792 10.213v219.702h55.792z" fill="#ceb093"/><path d="m528.815 465.971v-228.124l-16.917 3.1v224.819z" fill="#b3997f" opacity=".5"/><path d="m563.415 271.693-13.934-1.825v-11.345c0-3.935 3.487-6.958 7.383-6.4l1.005.145a6.465 6.465 0 0 1 5.546 6.4zm54.37 7.12-12.928-1.693v-10.65c0-3.936 3.487-6.959 7.383-6.4a6.464 6.464 0 0 1 5.545 6.4zm-54.37 25.305-13.934-1.52v-11.505c0-3.88 3.394-6.885 7.245-6.417l1.005.122a6.465 6.465 0 0 1 5.684 6.417zm0 32.426-13.934-1.217v-11.661a6.464 6.464 0 0 1 7.107-6.433l1.005.101a6.464 6.464 0 0 1 5.822 6.432zm27.692 2.417-13.417-1.171v-11.308c0-3.824 3.301-6.812 7.106-6.432l.49.049a6.464 6.464 0 0 1 5.821 6.432zm26.678 2.329-12.928-1.128v-10.968c0-3.823 3.302-6.811 7.107-6.431a6.464 6.464 0 0 1 5.821 6.431v12.097zm-54.37 27.679-13.934-.912v-11.815a6.464 6.464 0 0 1 6.968-6.445l1.005.079a6.464 6.464 0 0 1 5.961 6.444zm27.692 1.814-13.417-.88v-11.46a6.464 6.464 0 0 1 6.967-6.445l.489.038a6.464 6.464 0 0 1 5.961 6.444zm26.678 1.747-12.928-.847v-11.121a6.464 6.464 0 0 1 12.928 0v11.967zm-54.37 28.865-13.934-.609v-11.965a6.464 6.464 0 0 1 6.827-6.454l1.006.056a6.464 6.464 0 0 1 6.101 6.454zm27.692 1.208-13.417-.585v-11.612a6.464 6.464 0 0 1 6.827-6.454l.489.027a6.464 6.464 0 0 1 6.101 6.454zm26.678 1.165-12.928-.564v-11.272a6.464 6.464 0 1 1 12.928 0zm-54.37 30.052-13.934-.304v-12.113a6.464 6.464 0 0 1 6.687-6.46l1.005.034a6.464 6.464 0 0 1 6.242 6.46zm27.692.605-13.417-.293v-11.76a6.464 6.464 0 0 1 6.686-6.46l.489.017a6.464 6.464 0 0 1 6.242 6.46zm26.678.582-12.928-.283v-11.418a6.464 6.464 0 1 1 12.928 0v11.7zm-54.37 31.239h-13.934v-12.258a6.464 6.464 0 0 1 6.546-6.464l1.005.013a6.464 6.464 0 0 1 6.383 6.464zm27.692 0h-13.417v-11.906a6.463 6.463 0 0 1 6.545-6.463l.49.006a6.464 6.464 0 0 1 6.382 6.464v11.898zm26.678 0h-12.928v-11.564a6.464 6.464 0 0 1 12.928 0z" fill="#ceb093"/><path d="m585.146 352.036 26.678 2.082.716 18.068-29.738-1.947zm-.14 31.944 26.157 1.488 1.659 17.99-30.48-1.237z" fill="#ceb093"/><path d="m641.27 346.937-21.115 7.549v111.259h44.832l-2.527-92.289zm-41.725 118.808-5.937-153.643-20.376-31.677-25.627 33.037-2.495 152.283z" fill="#f9f8f2"/><path d="m498.46 319.55 49.145-6.088-3.003 152.283h-53.125z" fill="#ffdfca"/><path d="m573.233 280.425-25.629 33.037-49.145 6.088 14.09-31.474zm-8.779 43.954c-.79 4.288 2.087 8.662 6.63 8.662 4.542 0 7.325-4.374 6.444-8.662-.702-3.416-3.602-5.713-6.598-5.713-2.995 0-5.847 2.297-6.476 5.713" fill="#81ddf2"/><path d="m620.155 370.757v94.988h-46.914l-2.234-93.745z" fill="#ffdfca"/><path d="m593.878 350.247-22.87 21.753 49.147-1.243 21.116-23.82z" fill="#4fc0d3"/><path d="m635.918 383.803v81.942h12.969v-81.942a6.485 6.485 0 0 0 -12.97 0" fill="#d3ecf2"/><path d="m461.787 153.788v36.874h-52.4v-46.578z" fill="#efbca0"/><path d="m409.387 144.085-49.003 10.173v36.404h49.003z" fill="#ffdfca"/><path d="m522.92 184.386-85.392-15.072v296.932h85.392z" fill="#efbca0"/><path d="m437.528 169.314-77.144 14.538v282.393h77.144z" fill="#ffdfca"/><path d="m378.137 224.418v16.448l-11.475 1.646v-.006h-.002v-16.305zm48.968 81.186v17.019l-12.292 1.007v-16.883l12.292-1.154zm0 29.596v17.018l-12.292.755v-16.883l12.292-.902zm0 29.594v17.019l-12.292.503v-16.884l12.292-.649zm0 29.596v17.006l-12.292.252v-16.873l12.292-.397zm0 46.585h-12.292v-16.857l12.292-.145zm-36.78-189.618 11.875-1.602v16.741l-11.875 1.461v-16.592zm-12.188 1.652v16.447l-11.475 1.41v-.003h-.002v-16.314l11.477-1.548zm12.188 27.189 11.875-1.358v16.74l-11.875 1.217v-16.592zm-12.188 1.401v16.447l-11.475 1.176v-.004h-.002v-16.313l11.477-1.313zm12.188 27.441 11.875-1.115v16.739l-11.875.973v-16.592zm-12.188 1.149v16.447l-11.475.941v-.002h-.002v-16.315l11.477-1.078zm12.188 27.692 11.875-.87v16.736l-11.875.73v-16.592zm-12.188.899v16.446l-11.475.705v-.002h-.002v-16.311l11.477-.842zm12.188 27.943 11.875-.628v16.737l-11.875.486v-16.592zm-12.188.647v16.447l-11.475.47h-.002v-16.315l11.477-.606zm12.188 28.194 11.875-.384v16.726l-11.875.243v-16.583zm-12.188.396v16.438l-11.475.235h-.002v-16.305l11.477-.37zm12.188 28.445 11.875-.14v16.71h-11.875v-16.569zm-12.188.145v16.425h-11.477v-16.29l11.477-.136zm12.188-202.025 11.875-1.844v16.731l-11.875 1.705v-.016z" fill="#ea6654"/><path d="m380.762 205.773v260.473h-82.966v-246.199z" fill="#ffdfca"/><path d="m369.343 236.194-7.215 1.1v12.51l7.215-1.058zm-26.457 41.093v-12.332l-7.215.997v12.27zm19.242 22.498 7.215-.813v-12.56l-7.215.876zm-26.457 15.259v12.277l7.215-.692v-12.337zm-26.625 2.778v12.051l7.264-.696v-12.113zm53.082 6.963 7.215-.692v-12.561l-7.215.752z" fill="#efbca0"/><path d="m414.37 105.158-112.903 20.267v8.622l112.903-19.187z" fill="#f1c93e"/><path d="m301.467 134.047 6.95 1.923 90.556-15.557-4.624-2.782z" fill="#efa106"/><path d="m371.392 106.452v19.386l25.224-4.398v-19.6z" fill="#fcd868"/><path d="m396.616 101.839 14.959 4.647v19.41l-14.96-4.456z" fill="#efb43f"/><path d="m393.401 124.173v101.898" stroke="#3f3b3c" stroke-width=".542"/><path d="m374.996 108.417v13.704l17.339-2.826v-14.032z" fill="#80c9ff"/><path d="m381.146 121.119 11.189-1.824v-14.032l-1.032.188z" fill="#80c9ff"/><path d="m392.335 106.06v-.798l-17.339 3.155v13.704l1.067-.174v-12.926z" fill="#158fea"/><path d="m401.064 107.306v10l13.306-2.338v-10.081z" fill="#f1c93e"/><path d="m414.37 114.968-13.307 2.337 6.467 1.993 13.306-2.337z" fill="#efa106"/><path d="m420.836 116.961v-10.08l-6.466-1.994v10.08z" fill="#efb43f"/><path d="m371.392 125.837 14.93 4.708 25.253-4.594-14.96-4.51z" fill="#efa106"/><path d="m399.768 238.408v-112.293l-6.367-1.941v114.476z" fill="#efb43f"/><path d="m385.518 238.65v-113.102l7.883-1.375v114.477z" fill="#f1c93e"/><g fill="#fff"><path d="m390.457 128.49-3.022-1.369v4.365zm-2.024 4.379 3.05 1.455v-4.445zm2.024 3.359-3.022-1.474v4.365zm-2.024 4.308 3.05 1.56v-4.444zm2.024 3.429-3.022-1.578v4.364zm-2.024 4.238 3.05 1.666v-4.445zm2.024 3.499-3.022-1.683v4.365zm-2.024 4.168 3.05 1.77v-4.443zm2.024 3.57-3.022-1.788v4.365zm-2.024 4.098 3.05 1.875v-4.444z"/><path d="m390.457 159.44-3.022-1.788v4.365zm-2.024 4.098 3.05 1.875v-4.444zm2.024 3.638-3.022-1.891v4.364zm-2.024 4.029 3.05 1.98v-4.443zm2.024 3.708-3.022-1.996v4.365zm-2.024 3.958 3.05 2.087v-4.444zm2.024 3.779-3.022-2.1v4.365zm-2.024 3.888 3.05 2.193v-4.444zm-82.265-58.544-1.719 3.456 1.719-.297 1.748-.302zm3.078 1.559 1.803-3.557-1.803.35-1.771.343zm3.174-2.737-1.827 3.573 1.827-.316 1.86-.32zm3.276 1.589 1.92-3.68-1.92.371-1.886.366zm3.381-2.843-1.947 3.698 1.947-.335 1.983-.342zm3.493 1.62 2.048-3.814-2.049.397-2.01.39zm3.608-2.958-2.078 3.834 2.078-.36 2.119-.365zm3.732 1.653 2.191-3.958-2.191.424-2.149.416zm3.86-3.084-2.223 3.98 2.224-.385 2.268-.391zm3.997 1.687 2.35-4.114-2.35.455-2.302.446z"/><path d="m333.77 122.793-2.223 3.98 2.224-.385 2.268-.391zm3.997 1.687 2.35-4.114-2.35.455-2.302.446zm4.14-3.22-2.385 4.136 2.385-.412 2.434-.42zm4.29 1.72 2.524-4.281-2.524.489-2.472.48zm4.45-3.366-2.565 4.304 2.565-.442 2.62-.453zm4.618 1.753 2.72-4.462-2.72.527-2.662.515zm4.796-3.527-2.765 4.488 2.765-.477 2.827-.488zm4.985 1.787 2.94-4.66-2.94.57-2.874.557zm40.225-9.673-2.517 4.797 2.517-.374 2.544-.379zm4.467 2.27 2.59-4.881-2.59.417-2.565.413z"/></g><path d="m309.178 134.238.406.187v12.233l-.772.512z" fill="#722828"/><path d="m308.446 134.392v13.248l.732-.13v-13.272z" fill="#bc4242"/><path d="m314.847 133.387.406.187v12.233l-.772.512z" fill="#722828"/><path d="m314.135 133.542v13.247l.732-.13v-13.272z" fill="#bc4242"/><path d="m313.957 152.013 1.456.127-5.05.542-1.58-.102z" fill="#5e2121"/><path d="m315.085 145.302.037 4.497-1.165 2.214-5.175.567-1.056-1.851.03-4.25z" fill="#bc4242"/><path d="m315.085 145.302 1.41.368.048 4.337-1.42-.208z" fill="#722828"/><path d="m315.122 149.8 1.42.207-1.129 2.133-1.456-.127z" fill="#622222"/><path d="m291.54 160.923a.136.136 0 0 1 -.052-.262l20.558-8.388c.051-.02.11-.01.147.03l4.49 4.427a.136.136 0 1 1 -.19.194l-4.427-4.365-20.475 8.354a.134.134 0 0 1 -.051.01" fill="#5d5d5e"/><path d="m331.388 160.718a.14.14 0 0 1 -.053-.011l-19.29-8.182a.136.136 0 0 1 .106-.251l19.29 8.182c.07.03.102.11.073.179a.137.137 0 0 1 -.126.083" fill="#5d5d5e"/><path d="m291.364 160.679v19.386l25.224-3.853v-19.602z" fill="#ffdfca"/><path d="m316.588 156.61 14.96 3.901v20.156l-14.96-4.455z" fill="#efbca0"/><path d="m291.364 180.064 14.468 4.035 25.715-3.432-14.959-4.455z" fill="#e0a98d"/><path d="m380.762 205.773 26.2 4.342v256.13h-26.2z" fill="#efbca0"/><path d="m299.807 208.322 1.783.342v10.73l-1.783.307z" fill="#7b95a8"/><path d="m297.796 208.697v11.35l2.011-.346v-11.378z" fill="#bfcfdb"/><path d="m325.655 203.53 1.783.342v11.075l-1.783.307z" fill="#7b95a8"/><path d="m323.643 203.905v11.695l2.012-.346v-11.724z" fill="#bfcfdb"/><path d="m353.022 198.306 1.783.342v11.59l-1.783.308z" fill="#7b95a8"/><path d="m351.01 198.68v12.239l2.012-.373v-12.24z" fill="#bfcfdb"/><path d="m378.979 193.628 1.783.342v11.803l-1.783.307z" fill="#7b95a8"/><path d="m376.967 194.002v12.424l2.012-.346v-12.452z" fill="#bfcfdb"/><path d="m405.179 196.498 1.782.342v13.275l-1.782-.296z" fill="#7b95a8"/><path d="m403.167 196.873v12.613l2.012.333v-13.319z" fill="#bfcfdb"/><path d="m454.963 215.015v16.839l12.118 1.733v-16.725zm36.337 5.553-11.758-1.788v16.59l11.759 1.682v-.015zm12.096 30.292v16.358l11.413 1.43v-.007h.002v-16.235zm-12.096-58.934-11.758-2.013v16.589l11.759 1.892v-16.46zm-36.337 140.287v16.851l12.118.865v-16.735l-12.118-.992zm0 29.303v16.85l12.118.65v-16.736l-12.118-.776zm0 29.302v16.851l12.118.431v-16.735l-12.118-.558zm0 29.302v16.84l12.118.216v-16.725l-12.118-.342zm0 46.126h12.118v-16.71l-12.118-.124zm36.337-188.382-11.758-1.383v16.614l11.759 1.262v-16.484zm12.096 29.867v16.358l11.413 1.02v-.003h.002v-16.242l-11.415-1.14zm-12.096 56.093-11.758-.752v16.611l11.759.63v-16.485zm0 28.654-11.758-.542v16.609l11.759.42v-16.485zm0 28.652-11.758-.33v16.597l11.759.21v-16.475zm0 28.654-11.758-.12v16.582h11.759v-16.461z" fill="#dba98c"/><path d="m457.647 466.028 1.299-158.888-21.418-23.974-26.633 20.267-2.555 162.595z" fill="#e29b6a"/><path d="m354.447 308.937 56.448-5.504-2.555 162.595h-53.893z" fill="#f7c9a9"/><path d="m437.528 283.166-26.633 20.267-56.448 5.504 18.217-17.527z" fill="#ff4353"/><path d="m382.646 325.378v140.65h-52.406v-136.158z" fill="#f7c9a9"/><path d="m410.895 316.135-28.249 9.243v140.65h27.472zm41.778-.722 27.77 17.69v132.925h-26.993z" fill="#e29b6a"/><path d="m358.458 320.98-28.138 8.882 52.405-4.471 28.17-9.235z" fill="#ff4353"/><path d="m438.459 448.135-7.392-.083c-2.124-.023-3.848 1.637-3.848 3.71v14.35h15.035v-14.217c0-2.053-1.697-3.736-3.795-3.76m29.473.329-7.124-.08c-2.045-.023-3.708 1.608-3.708 3.642v14.086h14.49v-13.958a3.702 3.702 0 0 0 -3.658-3.69m-29.473-30.611-7.392-.221c-2.124-.064-3.848 1.564-3.848 3.636v14.352l15.035.282v-14.218c0-2.053-1.697-3.768-3.795-3.831m29.473.883-7.124-.214c-2.045-.061-3.708 1.538-3.708 3.572v14.087l14.49.272v-13.958c0-2.016-1.636-3.699-3.658-3.76m0-27.926-7.124-.339c-2.045-.097-3.708 1.473-3.708 3.507v14.086l14.49.529v-13.96c0-2.015-1.636-3.727-3.658-3.823m-71.739-43.528v27.487l15.614.862v-28.349a7.807 7.807 0 0 0 -7.218-7.784c-4.53-.343-8.396 3.24-8.396 7.784m31.025 29.2 15.036.83v-28.338a7.518 7.518 0 1 0 -15.036 0zm37.563-33.013a7.245 7.245 0 0 0 -7.68 7.232v27.432l14.489.8v-28.232a7.245 7.245 0 0 0 -6.809-7.232" fill="#cc8859"/><path d="m858.7 272.13-71.48-11.432-2.596 15.848 88.61 11.615z" fill="#e8895f"/><path d="m787.22 260.698-39.171 5.948-19.216 18.371 55.792-8.471z" fill="#f2a381"/><path d="m873.234 287.912-88.61-11.366v189.358h88.61z" fill="#f7c9a9"/><path d="m784.625 276.546-55.792 8.472v180.886h55.792z" fill="#ffdfca"/><path d="m763.915 337.69 5.582-.5a3.491 3.491 0 0 0 3.179-3.467l.026-8.908a3.49 3.49 0 0 0 -3.841-3.484l-5.591.565a3.492 3.492 0 0 0 -3.14 3.467l-.017 8.843a3.49 3.49 0 0 0 3.802 3.484m-.135 30.482 5.547-.375a3.491 3.491 0 0 0 3.255-3.473l.027-8.837a3.49 3.49 0 0 0 -3.766-3.49l-5.557.439a3.49 3.49 0 0 0 -3.216 3.473l-.017 8.773a3.49 3.49 0 0 0 3.726 3.49m-3.794 30.486 12.494-.573.048-15.795-12.51.715zm-.059 30.075 12.46-.3.048-15.712-12.477.44zm-.066 33.261h12.423l.048-15.62-12.44.14zm-22.468-164.52v8.647a3.49 3.49 0 0 0 3.879 3.47l5.202-.583a3.49 3.49 0 0 0 3.103-3.465l.01-8.708a3.492 3.492 0 0 0 -3.918-3.469l-5.212.643a3.491 3.491 0 0 0 -3.064 3.465m0 72.484 12.117-.82.017-15.614-12.134.96zm0 29.735 12.086-.554.016-15.533-12.102.692zm0 29.582 12.055-.29.016-15.452-12.071.426zm0 32.719h12.02l.016-15.364-12.036.135z" fill="#f7c9a9"/><path d="m810.493 307.63-13.959-1.581v-11.345c0-3.936 3.494-7.019 7.396-6.528l1.007.127a6.33 6.33 0 0 1 5.556 6.302v13.026zm54.468 6.17-12.951-1.466v-10.65c0-3.937 3.493-7.02 7.395-6.529a6.33 6.33 0 0 1 5.556 6.302zm-54.468 58.681-13.959-.973v-11.662c0-3.823 3.308-6.87 7.12-6.556l1.007.083a6.331 6.331 0 0 1 5.832 6.33zm54.468 3.798-12.951-.904v-10.967c0-3.824 3.307-6.87 7.119-6.556a6.33 6.33 0 0 1 5.832 6.33zm-54.468 61.053-13.959-.365v-11.965c0-3.713 3.126-6.717 6.84-6.574l1.007.04a6.332 6.332 0 0 1 6.112 6.347zm54.468 1.424-12.951-.339v-11.271c0-3.712 3.126-6.717 6.839-6.573a6.333 6.333 0 0 1 6.112 6.347z" fill="#ebb794"/><path d="m484.675 401.746v64.282h25.869v-59.933z" fill="#f7c9a9"/><path d="m457.537 384.757 27.138 19.794 25.869 1.544-19.243-15.243z" fill="#ff864a"/><path d="m457.537 384.757 27.138 19.794v61.477h-52.246v-58.043z" fill="#ffdfca"/><path d="m230.519 466.028-.25-121.321 25.77-37.808 26.682 33.42 5.022 125.71z" fill="#f7c9a9"/><path d="m337.619 347.12-54.898-6.8 5.022 125.708h57.675z" fill="#c67d4b"/><path d="m256.039 306.899 26.682 33.42 54.898 6.801-28.035-28.24z" fill="#ffc36d"/><path d="m263.284 352.653c.808 4.387-2.135 8.863-6.782 8.863-4.648 0-7.496-4.476-6.594-8.863.717-3.495 3.685-5.846 6.75-5.846s5.982 2.35 6.626 5.846" fill="#fff"/><path d="m325.298 389.812v76.216h46.953l-1.72-74.156z" fill="#c67d4b"/><path d="m283.701 364.85 41.597 24.962 45.233 2.06-31.528-23.648z" fill="#ffc36d"/><path d="m283.701 364.85 41.597 24.962v76.216h-41.635z" fill="#f7c9a9"/><path d="m117.501 327.373v138.655h-52.406v-132.702z" fill="#fdebd3"/><path d="m138.286 310.978-20.785 6.887v148.163h20.785z" fill="#ddc7af"/><path d="m85.22 317.865-20.125 15.46 52.406-5.952 20.785-16.483z" fill="#ffce00"/><path d="m599.295 412.976v53.052h-46.31l-.37-51.505z" fill="#ffdfca"/><path d="m620.08 400.5-20.785 1.73v63.798h20.86z" fill="#f7c9a9"/><path d="m571.771 402.405-18.628 12.102 46.152-1.53 20.786-12.477z" fill="#4fc0d3"/><path d="m106.047 442.109-10.922.25v-14.443a2.24 2.24 0 0 1 2.164-2.238l6.445-.214a2.239 2.239 0 0 1 2.313 2.237zm-21.845-22.593-10.924.41v-12.607c0-1.196.94-2.18 2.135-2.236l6.445-.303a2.24 2.24 0 0 1 2.344 2.237v12.5zm12.996-58.694 6.445-.476a2.238 2.238 0 0 1 2.404 2.233v12.64l-10.922.705v-12.869a2.24 2.24 0 0 1 2.073-2.233m-23.919-4.782v-12.693a2.24 2.24 0 0 1 2.044-2.23l6.445-.564a2.24 2.24 0 0 1 2.434 2.23v12.403l-10.923.853z" fill="#ddc7af"/><path d="m304.075 432.34-2.84.05c-2.223.037-4.018 1.86-4.018 4.07v14.143l10.923-.123v-14.168a3.973 3.973 0 0 0 -4.065-3.971m0-30.741-2.84.124c-2.223.099-4.018 1.97-4.018 4.18v15.31l10.923-.585v-15.168c0-2.232-1.824-3.96-4.065-3.862" fill="#ffdfca"/><path d="m451.243 441.712-10.756.187v24.658h10.756zm22.106-13.832-11.09.192v38.486h11.09z" fill="#0672c9"/><path d="m699.563 465.977-1.298-93.533 23.729-20.491 24.321 18.323 2.555 95.7z" fill="#ffdfca"/><path d="m709.488 466.028v-20.258c0-6.907 5.6-12.506 12.506-12.506s12.506 5.6 12.506 12.506v20.258z" fill="#efb383"/><path d="m802.762 373.906-56.447-3.63 2.555 95.203h53.892z" fill="#e29b6a"/><path d="m721.994 351.953 24.321 18.322 56.447 3.631-17.863-16.758z" fill="#ffc36d"/><path d="m767.1 396.403v69.574h52.406l.171-66.714z" fill="#e29b6a"/><path d="m746.315 385.951 20.785 3.618v76.408h-20.008zm-41.778-1.002-21.551 13.942v67.086h20.774z" fill="#ffdfca"/><path d="m802.762 388.424 16.915 10.84-52.577-2.86-20.442-10.46z" fill="#ffc36d"/><path d="m724.767 377.734-8.73.534c-1.363.084-2.471 1.246-2.476 2.598l-.033 29.983c-.005 1.354 1.096 2.396 2.462 2.325l8.741-.45c1.386-.072 2.514-1.238 2.517-2.606l.02-30.067c.003-1.364-1.117-2.402-2.501-2.317m-477.837 16.012v72.282h25.87v-70.75z" fill="#e29b6a"/><path d="m219.794 375.71 27.137 18.036 25.87 1.532-20.67-13.986z" fill="#ff4353"/><path d="m219.794 375.71 27.137 18.036v72.282h-52.246v-69.526z" fill="#ffdfca"/><path d="m274.119 429.199-1.319.034v-.077h1.319" fill="#008eaf"/><path d="m210.72 452.736v13.552h17.993v-13.552a8.996 8.996 0 0 0 -17.993 0" fill="#00a7db"/><path d="m427.17 423.876v42.152h-21.01v-41.48z" fill="#efb383"/><path d="m449.21 413.561-22.04 10.315-21.01.672 11.879-6.918z" fill="#ffa82d"/><path d="m449.21 413.561-22.04 10.315v42.152h42.433v-41.07z" fill="#f7c9a9"/><path d="m442.62 466.246v-13.798a6.28 6.28 0 0 1 6.281-6.28 6.28 6.28 0 0 1 6.28 6.28v13.798h-12.56" fill="#00468a"/><path d="m652.66 431.165v34.863h41.35l.212-31.021z" fill="#e29b6a"/><path d="m639.926 417.856 12.734 13.309 41.562 3.842-8.007-12.294z" fill="#ff4353"/><path d="m639.926 417.856 12.734 13.309v34.863h-25.47v-34.432z" fill="#f7c9a9"/><path d="m633.99 466.028v-15.673a4.188 4.188 0 0 1 8.376 0v15.535z" fill="#073d72"/><path d="m57.506 432.699v34.213h43.102v-30.344z" fill="#efb383"/><path d="m42.935 417.618 14.57 15.08 43.103 3.87-11.03-13.756z" fill="#f62"/><path d="m42.935 417.618 14.57 15.08v34.214h-27.922v-33.272z" fill="#f7c9a9"/><path d="m116.32 466.578-1.26-38.985h-.406l-1.26 38.985z" fill="#693b27"/><path d="m115.193 427.594-7.902 30.936h15.132z" fill="#46a96f"/><path d="m115.193 427.594-2.606 10.199c.857 1.258 1.251 2.795 1.396 4.347.258 2.773-.643 4.971 1.549 7.18.909.916 2.034 1.786 2.484 3.042.677 1.888-.315 3.793-.362 5.694-.003.145.002.306.017.474h4.752z" fill="#398d5b"/><path d="m115.193 404.895-7.902 30.937h15.132z" fill="#46a96f"/><path d="m115.193 404.895-3.739 14.636c1.37 7.268 6.43 6.007 8.026 13.33.263 1.203.675 2.177 1.166 2.971h1.777z" fill="#398d5b"/><path d="m93.474 443.9a7.035 7.035 0 0 0 .437-3.154c-.291-3.295-2.921-5.994-6.209-6.358a7.043 7.043 0 0 0 -7.391 9.478c.814 2.15.428 4.562-1.075 6.302a10.084 10.084 0 0 0 -2.44 7.236c.314 5.232 4.702 9.415 9.943 9.496 5.664.088 10.282-4.477 10.282-10.121 0-2.498-.904-4.783-2.404-6.547-1.5-1.765-1.974-4.17-1.143-6.332" fill="#b3bd4d"/><path d="m89.755 434.955c.777.402 1.395.813 1.88 1.234a7.055 7.055 0 0 0 -1.88-1.234" fill="#56802b"/><path d="m97.022 456.779c0-2.498-.905-4.783-2.405-6.547-1.5-1.765-1.974-4.17-1.143-6.332a7.037 7.037 0 0 0 .437-3.155 6.97 6.97 0 0 0 -1.394-3.584c2.663 3.88-3.68 8.532-.533 14.259 3.438 6.256 1.825 13.27-2.888 15.239 4.534-1.003 7.926-5.044 7.926-9.88" fill="#808f1b"/><path d="m223.601 430.308c.292-.759.42-1.598.343-2.477-.228-2.587-2.294-4.706-4.876-4.991a5.53 5.53 0 0 0 -5.804 7.442c.64 1.688.336 3.583-.844 4.949a7.923 7.923 0 0 0 -1.917 5.683c.248 4.108 3.694 7.393 7.81 7.457a7.95 7.95 0 0 0 6.186-13.09c-1.178-1.386-1.55-3.275-.898-4.973" fill="#b3bd4d"/><path d="m220.68 423.284c.61.316 1.096.639 1.477.97a5.555 5.555 0 0 0 -1.476-.97" fill="#56802b"/><path d="m226.387 440.422a7.91 7.91 0 0 0 -1.888-5.141c-1.178-1.386-1.55-3.275-.898-4.972.292-.76.42-1.6.343-2.478a5.475 5.475 0 0 0 -1.094-2.815c2.09 3.048-2.89 6.701-.419 11.198 2.7 4.913 1.433 10.42-2.268 11.968a7.952 7.952 0 0 0 6.224-7.76" fill="#808f1b"/><path d="m219.05 466.955-.612-30.682h-.198l-.613 30.682z" fill="#693b27"/><path d="m218.339 441.967 2.174-2.65v.218l-2.174 3.578z" fill="#693b27"/><path d="m595.04 399.302c-5.19 30.35-10.522 67.677-.483 67.677h.967c10.04 0 4.707-37.327-.483-67.677" fill="#5bc373"/><path d="m595.04 399.302-.708 30.65 1.373-.753v21.392l1.817-3.72s1.763 18.957-1.998 20.108c10.04 0 4.707-37.327-.483-67.677" fill="#0e2c0f"/><path d="m142.385 427.829-9.693 39.083h19.385z" fill="#46a96f"/><path d="m142.385 427.829 4.189 39.083h5.503z" fill="#398d5b"/><path d="m135.888 444.836c-38.333-16.548-44.237 16.029-75.652 22.12h153.548c-33.979-29.973-30.373-1.604-77.896-22.12" fill="#5ca05f"/><path d="m96.744 446.571.277-.176c-.092.056-.185.118-.277.176" fill="#5ca05f"/><path d="m135.888 444.836c-18.198-7.856-29.086-4.638-38.867 1.56 19.512-11.911 39.683 20.56 64.272 20.56h52.491c-33.979-29.973-30.373-1.604-77.896-22.12" fill="#3a783f"/><path d="m96.744 446.571c-.238.153-.475.307-.712.462l.002.002c.236-.164.473-.314.71-.464" fill="#5ca05f"/><path d="m170.24 466.916h5.016v-23.122h-5.016z" fill="#c18766"/><path d="m170.24 450.552 5.016 4.008v-4.008z" fill="#aa6b4b"/><path d="m172.748 421.318-10.488 29.322h20.976z" fill="#46a96f"/><path d="m172.748 421.318 4.533 29.323h5.955z" fill="#398d5b"/><path d="m172.748 414.91-7.625 23.52h15.25z" fill="#46a96f"/><path d="m172.748 414.91 3.296 23.52h4.329z" fill="#398d5b"/><path d="m172.748 407.737-4.787 18.484h9.574z" fill="#46a96f"/><path d="m172.748 407.737 2.07 18.484h2.717z" fill="#398d5b"/><path d="m282.376 466.578-1.006-50.352h-.325l-1.005 50.352z" fill="#693b27"/><path d="m281.476 416.226-6.31 24.702h12.082z" fill="#b3bd4d"/><path d="m281.476 416.226-2.08 8.143c.683 1.005.998 2.233 1.113 3.472.207 2.215-.512 3.97 1.238 5.733.726.731 1.624 1.426 1.983 2.429.54 1.508-.252 3.028-.289 4.546-.003.116.002.244.014.38h3.793z" fill="#808f1b"/><path d="m281.476 398.102-6.31 24.702h12.082z" fill="#b3bd4d"/><path d="m281.476 398.102-2.985 11.686c1.093 5.804 5.133 4.796 6.409 10.644.21.96.539 1.738.93 2.372h1.418z" fill="#808f1b"/><path d="m566.118 429.49-9.692 37.422h19.384z" fill="#46a96f"/><path d="m566.118 429.49 4.19 37.422h5.503z" fill="#398d5b"/><path d="m744.204 435.937-8.023 30.975h16.045z" fill="#46a96f"/><path d="m744.204 435.937 3.467 30.975h4.555z" fill="#398d5b"/><path d="m298.526 440.804-9.693 26.108h19.385z" fill="#46a96f"/><path d="m298.526 440.804 4.19 26.108h5.502z" fill="#398d5b"/><path d="m703.898 466.98h7.348v-33.88h-7.348z" fill="#c18766"/><path d="m703.898 440.069 7.348 5.87v-5.87z" fill="#aa6b4b"/><path d="m707.572 399.544-13.772 40.509h27.545z" fill="#46a96f"/><path d="m707.572 399.544 5.953 40.509h7.82z" fill="#398d5b"/><path d="m707.572 393.864-11.172 31.38h22.344z" fill="#46a96f"/><path d="m707.572 393.864 4.829 31.38h6.343z" fill="#398d5b"/><path d="m802.922 466.955s-91.472-19.652-153.173-19.745c-17.55-.026-36.143 1.893-54.834 5.643-31.264 6.274-62.913 10.446-94.684 13.172l-10.836.93z" fill="#5ca05f"/><path d="m621.104 452.52-22.886 11.668h10.545s21.624-14.576 35.177-16.907c1.946-.044 3.886-.074 5.809-.07 61.7.092 153.173 19.744 153.173 19.744h-249.13z" fill="#3a783f"/><path d="m398.55 395.85c-5.456 31.899-11.06 71.129-.508 71.129h1.016c10.55 0 4.947-39.23-.508-71.128" fill="#5bc373"/><path d="m398.55 395.85-.745 32.213 1.443-.791v22.484l1.909-3.91s1.853 19.923-2.1 21.133c10.552 0 4.948-39.23-.507-71.128" fill="#3a783f"/><path d="m217.75 440.873c-6.327 1.527-10.867 5.598-13.544 8.714-2.096 2.439-5.102 3.885-8.312 4.064a76.58 76.58 0 0 0 -3.504.275c-7.876.803-17.686 6.04-23.918 13.053h80.33c0-26.328-22.959-28.06-31.053-26.106" fill="#5ca05f"/><path d="m210.214 460.887c-12.93 9.944 36.29-6.544 38.588 6.092 0-26.328-22.959-28.06-31.053-26.106-2.443.59-4.612 1.563-6.518 2.71 19.366-7.053 11.908 7.361-1.017 17.304" fill="#3a783f"/><path d="m51.132 466.98h4.248v-14.511h-4.248z" fill="#c18766"/><path d="m53.256 418.953-9.427 35.04h18.853z" fill="#46a96f"/><path d="m53.256 418.953 4.074 35.04h5.352z" fill="#398d5b"/><path d="m51.132 453.993 4.248 2.536v-2.536z" fill="#aa6b4b"/><path d="m794.748 466.98h5.38v-24.808h-5.38z" fill="#c18766"/><path d="m794.748 449.424 5.38 4.298v-4.298z" fill="#aa6b4b"/><path d="m797.439 418.06-11.252 31.459h22.503z" fill="#46a96f"/><path d="m797.439 418.06 4.863 31.459h6.388z" fill="#398d5b"/><path d="m797.439 411.185-8.18 25.234h16.36z" fill="#46a96f"/><path d="m797.439 411.185 3.535 25.234h4.644z" fill="#398d5b"/><path d="m797.439 403.49-5.137 19.83h10.272z" fill="#46a96f"/><path d="m797.439 403.49 2.22 19.83h2.915z" fill="#398d5b"/><path d="m346.196 457.098a49.703 49.703 0 0 0 -14.466-7.044 29.837 29.837 0 0 0 -29.806 7.646l-.424.43a18.781 18.781 0 0 1 -10.676 5.404 18.764 18.764 0 0 0 -4.184 1.113l-5.916 2.332h79.44z" fill="#3a783f"/><path d="m262.222 441.578c-2.482 0-4.603 1.03-6.524 2.57-5.308 4.255-9.043 12.507-14.322 14.442-3.7 1.357-5.363 4.872-5.196 8.389h52.653c-6.211-11.81-12.755-25.4-26.611-25.4" fill="#5ca05f"/><path d="m262.222 441.578c-2.482 0-4.603 1.03-6.524 2.57 9.033-3.29 11.82 7 8.041 12.742-1.394 2.12-.925 4.97 1.05 6.561a49.9 49.9 0 0 1 3.933 3.528h20.111c-6.211-11.81-12.755-25.4-26.611-25.4" fill="#3a783f"/><path d="m301.5 458.13a18.779 18.779 0 0 1 -10.675 5.404 18.754 18.754 0 0 0 -4.185 1.113l-5.916 2.332h49.782c-.932-7.63-7.83-7.75-11.652-6.724-3.821 1.026-9.041 2.517-5.313-1.958 3.728-4.473 4.847-10.065-4.056-6.165a29.845 29.845 0 0 0 -7.562 5.568z" fill="#5ca05f"/><path d="m850.246 457.098a49.706 49.706 0 0 0 -14.465-7.044 29.839 29.839 0 0 0 -29.807 7.646l-.424.43a18.78 18.78 0 0 1 -10.675 5.404 18.764 18.764 0 0 0 -4.185 1.113l-5.916 2.332h79.442z" fill="#3a783f"/><path d="m805.55 458.13a18.777 18.777 0 0 1 -10.675 5.404 18.76 18.76 0 0 0 -4.185 1.113l-5.916 2.332h49.782c-.932-7.63-7.83-7.75-11.651-6.724-3.822 1.026-9.042 2.517-5.313-1.958 3.727-4.473 4.846-10.065-4.057-6.165a29.854 29.854 0 0 0 -7.561 5.568z" fill="#5ca05f"/><path d="m354.212 466.98 13.989-15.31c6.994-7.258 20.19-3.166 26.13 1.584 5.938 4.751 10.425 2.772 13.328 6.07 2.904 3.3 6.731 7.655 6.731 7.655h-60.178z" fill="#3a783f"/><path d="m370.89 462.839c1.98-4.14 5.874-12.217 5.874-12.217-1.11.815-2.256 1.658-3.35 2.467-4.553 3.366-8.186 1.835-5.214-1.418l-13.988 15.308h21.131l.94-8.94z" fill="#5ca05f"/><path d="m850.774 466.98 13.988-15.31c6.995-7.258 20.192-3.166 26.13 1.584 5.939 4.751 10.426 2.772 13.33 6.07 2.903 3.3 6.73 7.655 6.73 7.655h-60.178z" fill="#3a783f"/><path d="m867.451 462.839c1.98-4.14 5.875-12.217 5.875-12.217-1.11.815-2.256 1.658-3.35 2.467-4.554 3.366-8.186 1.835-5.214-1.418l-13.988 15.308h21.131l.94-8.94z" fill="#5ca05f"/><path d="m473.704 466.98c-7.64-9.2-1.403-15.437 5.458-14.19 4.119.749 9.145-.176 10.58-4.72.49-1.552.391-3.306 1.509-4.609 2.482-2.892 6.25-1.025 8.103 1.533 1.426 1.968 2.57 4.1 3.942 6.099.497.723 1.34 1.5 2.144 1.868.996.456 2.16.266 3.14.768 1.92.985 2.85 3.06 2.937 5.142.155 3.742-3.898 8.108-3.898 8.108h-33.915z" fill="#315e19"/><path d="m511.517 458.871c-.087-2.082-1.017-4.158-2.937-5.142-.98-.503-2.144-.312-3.14-.768-.804-.367-1.647-1.145-2.144-1.868-1.373-1.998-2.516-4.131-3.941-6.099-1.854-2.558-5.622-4.425-8.104-1.533-1.118 1.303-1.02 3.057-1.51 4.61a6.616 6.616 0 0 1 -1.172 2.204c4.488.73 9.902 2.36 10.083 6.725.2 4.782-4.692 8.091-9.953 9.98h18.92s4.053-4.367 3.898-8.109" fill="#3a783f"/><path d="m470.12 466.967h4.38v-17.559h-4.38z" fill="#c18766"/><path d="m472.31 414.854-9.718 36.126h19.437z" fill="#46a96f"/><path d="m472.31 414.854 4.2 36.126h5.519z" fill="#398d5b"/><path d="m470.12 450.98 4.38 2.613v-2.613z" fill="#aa6b4b"/><path d="m564.641 466.912s-14.198-15.458-24.732-15.458c-7.235 0-13.282 4.375-17.472 7.115h-5.543c-4.809 0-9.961 3.075-12.71 8.343z" fill="#3a783f"/><path d="m516.894 458.57h5.542c3.485-2.279 8.255-5.679 13.922-6.763-1.828 1.296.094 3.236 1.652 4.429.568.435.384 1.33-.314 1.492a.842.842 0 0 0 -.647.744l-.235 2.615a3.43 3.43 0 0 1 -2.682 3.043 3.428 3.428 0 0 0 -2.418 1.999l-.335.783h-27.194c2.748-5.267 7.9-8.343 12.71-8.343" fill="#5ca05f"/><path d="m477.02 466.98-6.665-8.955a17.587 17.587 0 0 0 -5.9-5.053l-4.89-2.581a17.586 17.586 0 0 0 -10.622-1.868l-7.534 1.043a17.59 17.59 0 0 0 -8.916 3.969 17.594 17.594 0 0 1 -7.268 3.66l-8.236 1.954-8.078 7.83h68.108z" fill="#3a783f"/><path d="m440.08 466.98c1.057-3.022 2.694-7.66 4.052-11.328.625-1.686-.712-3.448-2.505-3.302l-.923.075a8.882 8.882 0 0 0 -5.503 2.516l-.624.613a29.01 29.01 0 0 1 -5.153 4.029l-4.377 2.67c-.55.335-1.286.185-1.621-.365a1.613 1.613 0 0 0 -.537-.542 1.745 1.745 0 0 0 -2.108.187l-.224.205c-.826.76-2.16.179-2.169-.94-.003-.347-.113-.7-.358-.944a1.243 1.243 0 0 0 -1.749-.018l-7.37 7.143h68.109-36.94z" fill="#5ca05f"/><path d="m354.959 424.752a6.36 6.36 0 0 0 .395-2.852c-.263-2.98-2.642-5.42-5.615-5.75a6.368 6.368 0 0 0 -6.684 8.571c.736 1.945.387 4.127-.973 5.7a9.12 9.12 0 0 0 -2.207 6.545c.285 4.73 4.254 8.513 8.993 8.587a9.155 9.155 0 0 0 7.125-15.074c-1.357-1.596-1.786-3.771-1.034-5.727" fill="#b3bd4d"/><path d="m351.596 416.663c.702.364 1.26.736 1.7 1.116a6.392 6.392 0 0 0 -1.7-1.116" fill="#56802b"/><path d="m358.167 436.4a9.11 9.11 0 0 0 -2.174-5.921c-1.356-1.596-1.786-3.771-1.034-5.727a6.36 6.36 0 0 0 .395-2.852 6.306 6.306 0 0 0 -1.26-3.243c2.407 3.51-3.328 7.718-.483 12.896 3.11 5.658 1.651 12-2.612 13.782 4.1-.907 7.168-4.562 7.168-8.935" fill="#808f1b"/><path d="m349.718 466.955-.705-35.334h-.228l-.706 35.334z" fill="#693b27"/><path d="m348.899 438.178 2.504-3.05v.25l-2.504 4.12z" fill="#693b27"/><path d="m68.95 466.955-6.664-8.954a17.584 17.584 0 0 0 -5.9-5.054l-4.89-2.58a17.589 17.589 0 0 0 -10.622-1.868l-7.533 1.043a17.59 17.59 0 0 0 -8.918 3.969 17.589 17.589 0 0 1 -7.267 3.66l-8.236 1.954-8.078 7.83z" fill="#3a783f"/><path d="m32.011 466.955c1.057-3.021 2.693-7.658 4.052-11.327.625-1.686-.713-3.448-2.505-3.302l-.923.075a8.882 8.882 0 0 0 -5.503 2.516l-.624.613a29.033 29.033 0 0 1 -5.153 4.029l-4.378 2.669c-.55.336-1.285.186-1.62-.365a1.618 1.618 0 0 0 -.537-.541 1.744 1.744 0 0 0 -2.109.187l-.223.205c-.826.76-2.16.179-2.17-.94-.003-.347-.112-.7-.358-.944a1.244 1.244 0 0 0 -1.748-.019l-7.37 7.144h68.108z" fill="#5ca05f"/><path d="m646.159 413.719-13.818 53.35h27.635z" fill="#46a96f"/><path d="m646.159 413.719 5.972 53.35h7.845z" fill="#398d5b"/><path d="m432.322 422.06-11.657 45.008h23.314z" fill="#46a96f"/><path d="m432.322 422.06 5.038 45.008h6.619z" fill="#398d5b"/><path d="m854.027 419.866-8.023 47.046h16.046z" fill="#46a96f"/><path d="m854.027 419.866 3.467 47.046h4.556z" fill="#398d5b"/></g></svg>