<svg height="283" width="492" xmlns="http://www.w3.org/2000/svg"><g fill="none" fill-rule="evenodd"><path d="m75.857 190.23s25.195 10.615 14.453 41.046c0 0-28.34-9.872-14.453-41.047" fill="#edab39"/><path d="m95.608 247.279c-8.016-20.693-17.928-45.474-18.027-45.722l2.62-1.048c.099.248 10.014 25.043 18.037 45.75zm-1.859 115.791c-3.024-15.676-7.107-30.79-11.427-46.793-10.969-40.616-23.403-86.65-21.589-156.721l2.82.074c-1.802 69.658 10.573 115.481 21.493 155.912 4.335 16.053 8.43 31.214 11.475 46.993l-2.772.536z" fill="#a45a29"/><path d="m125.417 275.67s-24.643 5.237-20.874 34.794c0 0 24.446-1.243 20.874-34.795" fill="#edab39"/><path d="m96.291 325.163-2.386-1.503c11.821-18.796 26.28-41.247 26.425-41.472l2.372 1.527c-.145.224-14.595 22.665-26.41 41.448" fill="#a45a29"/><path d="m49.46 173.927s15.462 19.889-6.471 40.056c0 0-17.888-16.708 6.47-40.056m-49.392 39.211s24.906 3.795 22.864 33.52c0 0-24.476.183-22.864-33.52" fill="#edab39"/><path d="m74.069 282.568c-15.067-8.41-29.458-30.206-42.775-64.782-9.864-25.61-15.436-49.098-15.49-49.334l2.745-.644c.218.925 22.23 92.95 56.895 112.295z" fill="#a45a29"/><path d="m46.344 264.145c-16.68-6.506-31.055-20.679-39-39.062l2.59-1.119c9.34 21.611 27.864 37.148 48.325 40.568l-.463 2.78a57.502 57.502 0 0 1 -11.452-3.167m-8.52-31.285 8.448-42.792a1.412 1.412 0 0 1 2.768.547l-8.447 42.792-2.769-.548zm49.179 228.002c6.51-56.887 6.565-81.55 6.615-127.121.076-70.05.142-130.548 21.709-190.377l2.653.956c-21.4 59.37-21.464 119.636-21.541 189.424-.05 45.645-.104 70.395-6.633 127.437l-2.803-.32z" fill="#a45a29"/><path d="m413.066 104.958s-25.195 10.616-14.452 41.046c0 0 28.339-9.871 14.452-41.046" fill="#edab39"/><path d="m393.315 162.008c8.017-20.693 17.929-45.474 18.028-45.722l-2.62-1.048c-.1.248-10.015 25.043-18.038 45.75zm1.86 115.792c3.023-15.678 7.106-30.792 11.426-46.795 10.969-40.615 23.403-86.649 21.59-156.72l-2.82.075c1.8 69.657-10.574 115.48-21.493 155.91-4.336 16.054-8.43 31.215-11.475 46.994z" fill="#a45a29"/><path d="m363.506 190.399s24.644 5.237 20.875 34.794c0 0-24.446-1.243-20.875-34.794" fill="#edab39"/><path d="m392.632 239.891 2.386-1.502c-11.821-18.796-26.28-41.247-26.425-41.472l-2.371 1.527c.144.224 14.594 22.665 26.41 41.447" fill="#a45a29"/><path d="m439.464 88.655s-15.463 19.89 6.47 40.057c0 0 17.889-16.709-6.47-40.057m49.393 39.212s-24.907 3.795-22.865 33.52c0 0 24.476.183 22.865-33.52m-31.051 76.152s-24.294-6.67-34.528 21.313c0 0 22.284 10.128 34.528-21.313" fill="#edab39"/><g fill="#a45a29"><path d="m414.854 197.297c15.067-8.41 29.458-30.206 42.775-64.782 9.864-25.61 15.437-49.098 15.49-49.334l-2.745-.644c-.218.926-22.23 92.949-56.895 112.296z"/><path d="m442.58 178.873c16.68-6.505 31.054-20.678 39-39.06l-2.59-1.12c-9.34 21.61-27.865 37.149-48.326 40.568l.464 2.78a57.473 57.473 0 0 0 11.452-3.168m8.519-31.285-8.447-42.792a1.41 1.41 0 0 0 -1.658-1.11 1.412 1.412 0 0 0 -1.11 1.658l8.447 42.791zm-47.458 94.442c1.776-6.61 9.898-10.48 19.302-14.96 8.31-3.96 17.729-8.447 24.943-15.869l-2.024-1.965c-6.86 7.057-16.035 11.43-24.132 15.287-10.034 4.78-18.699 8.91-20.814 16.775l2.725.731zm-8.42 63.355c23.129-10.076 38.857-51.8 39.517-53.572l-2.646-.983c-.156.423-15.97 42.371-37.998 51.968z"/><path d="m440.27 278.203.163-2.814c-.723-.043-17.885-.927-26.149 8.997l2.168 1.806c7.37-8.848 23.653-7.999 23.817-7.989m-38.349 124.373c-6.51-56.887-6.565-108.536-6.615-154.106-.076-70.05-.142-130.548-21.708-190.377l-2.654.956c21.4 59.37 21.465 119.637 21.542 189.424.05 45.645.104 97.38 6.632 154.422l2.803-.32z"/></g><path d="m98.727 151.097c-2.12-5.785.446-21.05 6.058-25.616l19.362 13.252c-.97 2.281-2.775 9.56-2.28 14.615.292 2.985.569 11.437-.618 13.498l-12.984.592-4.729-3.705-4.81-12.636zm16.311-28.647.835-1.195c1.139-1.823 3.878-1.644 4.403.139s-1.238 3.692-1.238 3.692c-.675.914-1.179 1.617-1.179 1.617l-2.582-3.944-.239-.31zm3.909 6.062 1.627-1.74c1.334-1.446 3.053-1.022 3.655 0 .602 1.02.252 2.512-.78 3.544-1.033 1.03-2.107 2.212-2.107 2.212z" fill="#cc925e"/><path d="m127.119 149.81.868-.717-.538-.46a1.53 1.53 0 0 0 -.104-.372l-15.557-35.572c-.276-.631-.939-.97-1.564-.8l-13.898 3.785-.325-.127-1.199.67c-.415.364-.582 1-.352 1.585l14.775 37.604c.29.738 1.075 1.123 1.75.858l15.678-6.133c.068-.027.13-.063.19-.1l.003.003.015-.012c.096-.06.183-.131.258-.213" fill="#4f4d54"/><path d="m111.53 155.602c-.466.012-.902-.294-1.087-.762l-14.81-37.637c-.118-.3-.112-.635.017-.92.13-.286.368-.495.657-.574l14.971-4.076a.997.997 0 0 1 .197-.033c.45-.03.88.243 1.071.68l15.58 35.592c.128.292.14.612.033.9a1.031 1.031 0 0 1 -.594.613l-15.702 6.15a.998.998 0 0 1 -.334.067" fill="#e5ecf9"/><path d="m111.452 111.333c-.08.005-.162.019-.243.041l-14.97 4.08c-.747.203-1.138 1.07-.832 1.845l14.803 37.63c.233.592.785.957 1.343.943.138-.004.277-.032.412-.084l15.705-6.146c.708-.277 1.02-1.123.693-1.872l-15.586-35.596c-.242-.55-.777-.878-1.325-.841m.046.534a.846.846 0 0 1 .819.52l15.571 35.585a.915.915 0 0 1 .027.688.787.787 0 0 1 -.454.469l-15.7 6.152a.753.753 0 0 1 -.255.052c-.356.01-.689-.225-.83-.582l-14.816-37.644a.896.896 0 0 1 .013-.704.77.77 0 0 1 .502-.438l14.973-4.073c.05-.013.1-.021.151-.025" fill="#4f4d54"/><path d="m99.091 115.33.649.585a1.34 1.34 0 0 0 1.272.31l7.807-2.25c.32-.094.509-.437.43-.784l-.135-.58c-.081-.35.113-.697.438-.786l-11.708 3.19c.432-.117.898 0 1.247.316" fill="#4f4d54"/><path d="m118.291 136.453-8.12 3.049c-.393.148-.576.62-.402 1.041l.963 2.343c.166.404.598.614.976.474l8.187-3.038c.408-.151.593-.637.406-1.066l-1.023-2.346c-.174-.399-.608-.6-.987-.457" fill="#4bb58a"/><path d="m112.027 140.327.415.988-.191.067-.415-.987zm1.375-.487.416.989-.189.067-.643-.58.295.702-.168.06-.415-.988.218-.078.593.54-.275-.652zm1.375-.486.14 1.087-.217.077-.696-.89.198-.071.519.69-.122-.83zm1.149-.407.074.175-.359.127.098.232.287-.101.069.162-.287.101.103.246.378-.133.074.175-.565.2-.418-.99zm.912-.339c.19-.067.342-.004.442.187l-.174.061c-.052-.085-.114-.11-.198-.08-.083.03-.106.087-.077.156.029.068.07.091.208.07.217-.042.349-.015.436.19.074.179.01.362-.186.432-.23.08-.392-.01-.484-.205l.18-.064c.047.085.108.148.234.104.084-.03.116-.104.084-.18-.034-.08-.083-.095-.215-.073-.227.042-.348-.003-.428-.194-.073-.17-.005-.339.178-.404m1.534-.528.075.176-.226.08.346.817-.193.068-.346-.816-.226.08-.074-.176z" fill="#fff"/><path d="m104.01 129.105a.63.63 0 0 1 -.578-.387l-.027-.067a.592.592 0 0 1 .007-.472.587.587 0 0 1 .37-.326l7.303-2.239a.619.619 0 0 1 .75.353.61.61 0 0 1 -.384.814l-7.256 2.295a.614.614 0 0 1 -.185.03m.985 2.454a.515.515 0 0 1 -.483-.321l-.02-.05a.525.525 0 0 1 .01-.418.559.559 0 0 1 .338-.301l3.64-1.162a.573.573 0 0 1 .167-.028.47.47 0 0 1 .482.356.604.604 0 0 1 -.072.456.685.685 0 0 1 -.381.31l-3.514 1.132a.54.54 0 0 1 -.167.027" fill="#596170"/><path d="m100.21 120.707 1.53 4.008a.596.596 0 0 0 .74.355l4.267-1.364a.597.597 0 0 0 .376-.78l-1.472-3.867a.596.596 0 0 0 -.719-.362l-4.326 1.224a.597.597 0 0 0 -.395.786" fill="#23cae5"/><path d="m130.137 243.064c-14.242-7.903-17.584-25.849-19.16-43.802-1.176-13.38-4.897-26.64-7.44-35.53 0 0 9.64-6.206 17.711 3.115l16.962 49.946 4.06 18.378z" fill="#d7a26c"/><path d="m123.66 214.848c-8.622-14.112 2.95-32.21-2.411-48.001l15.213 45.496-12.801 2.505z" fill="#cc8f58"/><path d="m109.475 132.146c-.734-1.197-1.643-1.702-2.05-1.88a.266.266 0 0 0 -.332.102l-.91 1.397c-1.378 2.398-3.637 3.048-4.953 5.928l-1.297 3.382c-1.97 5.873-3.188 8.404 3.604 22.658l11.658-1.26s1.484-5.667-.65-9.685c-3.352-6.309-6.16-7.387-8.803-9.46l1.221-3.564c2.31-2.71 3.489-6.027 2.512-7.618" fill="#d7a26c"/><path d="m332.601 60.685-7.395-22.87-24.477-15.609-8.362-6.284-11.264 2.07c-1.23 6.252-3.857 16.614-4.153 22.5-.04.787.079 1.574.336 2.32a6.118 6.118 0 0 1 .194 3.363c-.278 1.205-.581 3.121-.578 5.72.28 6.643 1.092 9.072 2.288 14.328 1.243 5.458 2.036 7.408 3.015 9.867.986 2.477 3.137 4.289 5.803 4.289h10.364c2.731 5.986 3.067 24.409 3.067 24.409l32.296-14.473c-2.28-12.316-2.502-22.46-1.134-29.63" fill="#cc7e4c"/><path d="m283.55 78.292c1.128 1.275 2.677 2.087 4.458 2.087h10.364a5.915 5.915 0 0 0 -6.914-3.88l-7.907 1.793zm28.395-9.305c1.085 5.689 8.814 8.291 10.896 11.784 4.667 7.83 2.462 13.958 2.462 13.958l8.435-1.11c-2.174-12.033-2.37-21.961-1.025-29.01l-1.253-3.875h-12.945z" fill="#ba6435"/><path d="m398.836 205.437 1.53 17.744a46.017 46.017 0 0 1 -1.734 17.07l-20.88 70.188-18.664-.028 14.737-92.58 25.01-12.394z" fill="#cc7e4c"/><path d="m382.366 241.331c3.13-13.815 6.702-15.278 4.697-24.998l-3.8-4.666-9.438 6.164-5.849 36.743 3.613 13.246c7.476-1.968 7.648-12.674 10.777-26.489z" fill="#bd6f3e"/><path d="m373.39 252.358.784-45.13-86.616 4.776-21.196-3.282-.693 122.121h108.505z" fill="#1f3b7c"/><path d="m295.441 95.255 2.161-6.556s26.05-5.081 44.443-2.392c0 0 2.351 3.338 4.021 7.635 0 0 28.705 2.32 36.798 29.6 3.36 11.327 18.612 80.508 18.612 80.508s4.776 13.783-22.46 13.737l-86.497 1.51s-5.55-.56-19.19-1.476c-9.73-.653-14.63-1.49-22.135-2.444l1.581-85.937c.091-27.104 42.666-34.185 42.666-34.185" fill="#1f3b7c"/><path d="m319.306 94.166c-8.737.131-23.865 1.09-23.865 1.09s-19.693 3.278-32.321 13.902c14.866-11.77 56.186-14.992 56.186-14.992m51.516 80.827c2.113 8.185 1.849 26.139 3.39 42.842l.275.031 4.529-.079c7.7.013 8.417 0 11.513-1.138-.859-4.692-4.828-6.229-7-20.22-2.172-13.99-12.707-21.436-12.707-21.436z" fill="#172f60"/><path d="m374.211 217.835c0 10.923.773 12.527-.037 23.645-.677 9.28 2.102 19.991 2.982 27.569 1.178 10.132-4.436 10.391-18.068 10.032l-93.42 4.09 15.746-73.864 12.53-11.466 32.114.312z" fill="#1f3b7c"/><path d="m283.568 162.457c2.54 28.48 4.656 39.404 10.153 50.638 5.494 11.225-2.255 32.824 5.212 44.472 7.459 11.636 5.63 13.608 0 10.471-5.634-3.14-6.41.395-2.957 3.382 3.45 2.987 18.195 10.35 18.195 10.35l-34.284 2.915-14.218-4.849-1.197-118.151z" fill="#172f60"/><path d="m265.341 280.342s13.807.918 18.417.99c21.188.33 35.856-3.896 52.477-3.894 18.02.002 37.12.684 37.12.684 9.514 17.798 3.775 53.706 3.775 53.706h-111.789z" fill="#e1f4f2"/><path d="m373.354 278.122s-19.1-.682-37.12-.684c-16.62-.002-31.288 4.224-52.477 3.895-4.068-.064-15.294-.787-17.876-.956-2.473 10.417 3.794 16.017 13.92 15.75 11.99-.317 23.476-5.174 34.031-10.49 10.429-5.254 21.096-8.393 33.056-6.998 10.764 1.255 19.61 7.124 23.46 17.014 1.343 3.449 2.286 7.045 3.043 10.664 1.756 8.408 2.897 16.975 3.58 25.511h.16s5.738-35.908-3.777-53.706" fill="#bad8d5"/><path d="m283.01 204.38-.67 22.292a45.208 45.208 0 0 1 -4.103 17.518l-27.303 59.436-19.477-.038 19.635-61.056 3.8-35.367z" fill="#cc7e4c"/><path d="m283.432 165.423c.366-20.384.992-40.01-7.677-45.247-7.081-4.278-20.082-3.595-22.788 6.612a25.748 25.748 0 0 0 -.322 3.967l-1.571 85.379c4.767 2.65 10.833 4.075 18.08 4.469 4.21.282 11.345-.737 14.285-1.302 1.122-20.863-.373-33.607-.007-53.878" fill="#1f3b7c"/><path d="m266.145 162.38s6.667 39.748 9.7 50.766c3.234 11.75-3.103 13.993-.792 27.36 1.431 8.284-6.05 23.787-6.05 23.787l-18.07 39.333-5.74-42.75 12.04-37.218z" fill="#eadfd8"/><path d="m272.243 226.747c.26 11.053-2.358 23.959-13.394 24.8-11.035.842-17.394-7.387-17.394-7.387l-4.582-17.956 17.114-6.826s8.018 1.496 8.824 1.777c.808.28 9.432 5.592 9.432 5.592" fill="#d7a26c"/><path d="m260.634 229.896-14.564-1.653-7.083-1.967-1.558 2.11 4.026 15.774s2.478 3.204 7.022 5.41c3.312.652 5.926 1.8 10.623 0 2.583-1.873 4.22-9.944 1.534-19.674z" fill="#cc8f58"/><path d="m267.64 168.318c-1.87-18.142-4.177-27.993-16.735-34.228l-18.676-9.538c-2.37-5.985-9.913-8.79-9.913-8.79s-18.276 6.923-40.15 0c0 0-13.84 4.862-24.315 8.79-2.323.871-5.109 1.841-7.86 3.556l10.479 106.606c.748 19.826-11.97 58.73-11.97 96.136h105.113c6.545-25.25-4.863-56.672-7.856-72.009-2.992-15.336-4.863-31.234-4.863-31.234 1.122 4.676 12.143 11.032 21.918 7.855 9.784-3.179 10.252-12.157 10.252-12.157s-3.554-36.845-5.424-54.987" fill="#7c6169"/><path d="m249.386 212.79c0-16.372-12.513-15.892-12.513-15.892l4.127 31.783c.785 6.053 20.804 10.333 20.48 5.822-.073-1.025 1.24-3.323-3.396-8.982-3.363-4.104-8.697-5.52-8.697-12.731zm-81.114 27.832c-3.145-12.035-.807-24.825-2.004-37.083-.54-5.536-1.082-11.46-1.082-11.46l-9.628-8.774 4.912 51.41c.182 4.803-.43 10.73-1.457 17.48l-3.923 22.228-.342 1.862.058-.254-2.215 12.547s28.502 1.897 34.487 5.436c5.986 3.538 11.093-16.58-6.24-34.09-8.189-7.728-11.61-15.646-12.566-19.302z" fill="#6b4f59"/><path d="m318.603 3.156c-.324.015-.649.03-.98.05-2.197.129-4.759.332-7.49.58-8.987.814-19.83 2.111-25.725 2.842a8.167 8.167 0 0 0 -6.887 6.011c-.697 2.595.01 5.369 1.722 7.44l4.777 5.244c.734.806.985 1.943.66 2.984-1.12 3.592-1.51 4.408-2.108 6.118-.747 2.129-.057 2.593.949 4.524 1.563 2.685 4.057 5.36 4.587 9.987.446 3.896.547 4.855.514 7.091-.013.863.68 1.57 1.542 1.58l2.612.026a1.688 1.688 0 0 0 1.7-1.559l-.042-7.336c-.443-9.496 8.805-8.95 10.47-1.373 1.307 5.952-1.083 8.661-1.117 13.416 2.98 4.777 5.952 9.413 10.305 14.622l16.894-.004c4.887-6.969 11.157-19.133 15.271-30.018 3.392-14.804 2.343-29.78-11.07-37.902-4.773-2.89-10.617-4.214-16.584-4.323z" fill="#593623"/><path d="m319.354 3.156c-.33.015-.66.03-.998.05a252.45 252.45 0 0 0 -7.627.58c-9.15.814-20.191 2.111-26.194 2.842-2.755.335-5.154 1.997-6.402 4.433a8.05 8.05 0 0 0 -.666 1.818c-1.093 8.484 9.884 1.987 13.31 6.1 8.656 10.394 5.68 14.654 7.007 14.775 3.31.303 7.217 1.422 8.365 4.879 1.631 4.914-1.315 13.13-2.405 22.11 2.97 4.565 4.86 8.63 9.006 13.502 4.403 3.22 7.431 5.035 9.086 5.447 1.655.413 5.123-1.018 10.404-4.293 9.979-18.552 27.885-53.716 4-67.92-4.86-2.89-10.81-4.214-16.886-4.323z" fill="#3a2111"/><path d="m289.844.4c-12.346-.436-14.316 11.385-12.212 16.713l45.08-13.682c-13.04-1.006-25.482-2.771-32.868-3.031" fill="#3a2111"/><path d="m278.827 19.532a99.058 99.058 0 0 1 4.43 6.377 2.71 2.71 0 0 1 .385 1.93l-1.36 7.759 1.94 1.17 3.165-5.629v-3.864l-2.399-4.297-3.298-2.998z" fill="#593623"/><path d="m220.398 73.791-6.013-21.055-21.186-14.783-7.164-5.869-6.635 1.792c-5.076 3.391-7.636 14.439-8.176 19.768a5.647 5.647 0 0 0 .193 2.124c.287 1 .3 2.065.017 3.077-.307 1.095-.67 2.842-.792 5.23-.062 6.138.56 8.412 1.4 13.335.876 5.137 1.508 6.988 2.289 9.326.789 2.36 2.674 4.127 5.113 4.197l9.46.272c2.262 5.73 1.864 23.363 1.864 23.363l29.958-13.076c-1.767-11.656-1.722-21.114-.328-27.7" fill="#cc7e4c"/><path d="m175.46 88.846c.974 1.234 2.354 2.04 3.984 2.087l9.46.271-.808-2.445zm26.187-11.596c.796 5.318 7.692 7.956 9.471 11.277 4.007 7.478 1.845 13.22 1.845 13.22l7.678-.845c-1.676-11.383-1.614-20.636-.243-27.11l-1.027-3.597-11.568-.376z" fill="#ba6435"/><path d="m155.667 125.39c-18.22 8.707-17.154 22.552-19.697 36.318l-13.796 62.652c-2.8 20.09 17.346 29.738 31.552 4.777 11.366-19.971 14.122-65.404 14.122-65.404z" fill="#d7a26c"/><path d="m156.235 224.024-19.773-6.011h-7.872c25.136 14.956-.697 25.162 6.207 26.05.85-.008 1.722-.104 2.61-.295a15.733 15.733 0 0 0 1.933-.704l.304.034c4.69-1.802 9.672-6.213 14.082-13.961a50.448 50.448 0 0 0 2.509-5.113z" fill="#cc8f58"/><path d="m155.667 125.39c-16.942 6.17-18.728 21.347-21.27 35.113l-11.176 51.911c-1.31 6.421 20.915 18.816 33.248 14.654 11.079-20.272 13.84-65.36 13.84-65.36z" fill="#7c6169"/><path d="m123.242 213.285c1.711 6.043 8.105 6.797 8.007-16.386-.089-20.84 4.64-44.794 4.64-44.794l-12.669 59.915s-.055.277-.054.637c.001.272.075.628.075.628" fill="#7c6169"/><path d="m178.834 140.707c32.663 28.06 61.197 22.533 66.782 7.125 2.475-6.827 5.85-4.162 3.603-10.865l-24.082-16.925c-.499-.791-1.131-1.5-1.834-2.136a11473.08 11473.08 0 0 1 -1.894 2.086z" fill="#6b4f59"/><path d="m240.002 103.549c.554-20.48 8.303-38.26 2.49-58.152-5.81-19.892-20.698-32.9-38.716-30.131-7.69 1.18-13.1 4.18-16.782 7.829-18.35 2.801-16.342 43.787-13.596 61.727 1.361 8.893.887 18.085-.39 26.959-1.075 7.472-2.634 15.244-5.816 22.14-.72 1.559-1.565 2.987-1.262 4.78.784 4.622 5.278 7.29 9.311 8.805 11.876 4.46 24.735 4.995 37.254 4.398 5.48-.262 10.974-.761 16.36-1.837 5.94-1.187 12.315-3.08 16.807-7.368 1.58-1.51 2.817-3.293 3.809-5.228a.782.782 0 0 0 -.065-.815c-1.644-2.276-9.902-14.66-9.404-33.107" fill="#512f1c"/><path d="m244.827 128.402c-3.134 15.433-20.024 17.993-28.333 9.297-1.588-1.47-3.481-2.802-4.494-1.495-.779 1.006.095 3.334.253 4.44.168 1.178-.255 2.18-1.538 2.167-1.877-.02-3.59-1.58-5.028-2.62-4.062-2.938-7.744-6.476-11.54-9.747-1.187-1.023-2.263-2.395-3.904-2.535-1.289-.11-2.19.588-2.479 1.853-.637 2.795 3.49 6.111.186 8.455-1.58.987-3.526-1.147-4.529-2.154-1.25-1.255-2.296-2.698-3.201-4.218-1.77-2.975-3.038-6.27-4.545-9.34-.613-1.247-1.56-4.247-3.487-3.767a2.64 2.64 0 0 0 -.39.177c-1.022 5.16-2.43 10.289-4.606 15.007-.719 1.558-1.565 2.986-1.261 4.778.783 4.624 5.278 7.29 9.31 8.805 11.876 4.46 24.735 4.996 37.254 4.4 5.48-.262 10.974-.763 16.36-1.838 5.94-1.187 12.316-3.08 16.807-7.368 1.58-1.509 2.818-3.294 3.81-5.229a.783.783 0 0 0 -.066-.814c-.709-.984-2.644-3.845-4.579-8.254" fill="#3a2111"/><path d="m413.434 252.822c18.208-4.584 44.274 3.013 44.274 35.367h-35.368l-9.693-29.603.786-5.764z" fill="#748c31"/><path d="m450.242 282.95c-2.489-17.292-20.173-28.294-31.83-25.936" stroke="#627237" stroke-width=".783"/><path d="m427.057 228.72s10.479 37.07-20.958 54.23l-11.134-8.908c0-19.779 12.836-43.88 32.092-45.322" fill="#393939"/><path d="m427.057 228.72s-16.112 19.256-24.626 44.405" stroke="#879e52" stroke-width=".783"/><path d="m462.539 190.403s11.765 36.681-19.054 54.926l-11.438-8.513c-.69-19.767 11.298-44.302 30.492-46.413" fill="#393939"/><path d="m462.539 190.403s-15.43 19.805-23.062 45.236" stroke="#879e52" stroke-width=".783"/><path d="m392.411 250.553c.792-.656 1.425-1.511 1.675-2.509a4.647 4.647 0 0 1 4.015-3.492l.348-.037a4.648 4.648 0 0 1 4.2 1.818c.542.715 1.253 1.293 2.12 1.53 11.55 3.183 20.94 12.575 23.502 25.118 3.624 17.75-7.192 28.635-11.333 32.065-.791.656-1.425 1.511-1.674 2.51a4.646 4.646 0 0 1 -4.015 3.49l-.348.038a4.647 4.647 0 0 1 -4.2-1.817c-.542-.717-1.254-1.293-2.12-1.532-11.55-3.181-20.941-12.575-23.502-25.117-3.625-17.75 7.192-28.635 11.332-32.065" fill="#f3ca58"/><path d="m400.888 248.587c-.532.763.54 1.283.944.855.404-.427.17-.907-.02-.978-.191-.072-.669-.242-.924.123m3.94 1.235c-.608.702.743 1.393 1.19 1.01.446-.382.264-.883.081-.974-.182-.091-.98-.373-1.27-.036m5.981 2.202c-.353.408.43.808.69.587.258-.222.152-.513.047-.566-.106-.052-.569-.216-.737-.02m3.554 2.008c-.232.31.533.69.792.469.259-.222.05-.395-.055-.448-.106-.052-.582-.227-.737-.02m-15.244-6.88c-.166.22.378.49.561.333.184-.158.036-.28-.039-.318-.075-.037-.413-.161-.523-.015" fill="#f6e6a7"/><path d="m309.894 293.095c-.484-.908-1.194-1.7-2.122-2.145a4.646 4.646 0 0 1 -2.613-4.635l.034-.35a4.65 4.65 0 0 1 2.624-3.748c.81-.387 1.52-.967 1.927-1.768 5.44-10.675 16.53-17.985 29.331-17.97 18.116.019 26.603 12.802 29.13 17.549.483.908 1.194 1.7 2.121 2.145a4.647 4.647 0 0 1 2.613 4.635l-.034.348a4.649 4.649 0 0 1 -2.624 3.75c-.81.386-1.519.967-1.927 1.768-5.439 10.674-16.53 17.984-29.33 17.97-18.117-.02-26.604-12.803-29.13-17.55" fill="#f3ca58"/><path d="m311.674 280.784c.566.738 1.514-.447 1.229-.962-.285-.514-.813-.436-.938-.276-.126.16-.562.885-.291 1.238m3.36-5.416c.328.428.878-.26.713-.557-.165-.299-.471-.253-.544-.16s-.326.512-.169.717m2.683-3.078c.257.29.783-.383.618-.68-.165-.299-.377-.13-.449-.038-.073.093-.34.525-.169.718" fill="#f6e6a7"/><path d="m448.65 253.16-2.207 5.881c-12.116-.678-25.54-9.75-29.498-19.859-4.509-11.515-3.59-22.188-3.59-22.188 21.043 2.58 34.523 15.514 35.296 36.167" fill="#879e52"/><path d="m414.744 217.934c4.919 3.482 21.564 16.594 28.07 38.632m26.239-63.233c-.29 6.02-2.394 27.104-17.474 44.442" stroke="#627237" stroke-width=".783"/><path d="m451.364 198.193 2.782 3.863c8.727-2.903 16.743-12.204 17.63-20.383 1.012-9.318-1.78-16.942-1.78-16.942-14.879 6.067-22.17 18.204-18.632 33.462" fill="#879e52"/><path d="m469.167 165.695c-2.906 3.524-12.476 16.42-12.859 33.83" stroke="#627237" stroke-width=".783"/><path d="m456.066 178.6c.522-.22.991-.572 1.28-1.058a2.559 2.559 0 0 1 2.672-1.205l.19.035c.899.17 1.62.799 1.926 1.625.173.464.457.88.875 1.143 5.588 3.51 9.05 9.952 8.412 16.973-.902 9.935-8.332 13.96-11.059 15.112-.522.22-.991.572-1.28 1.058a2.558 2.558 0 0 1 -2.672 1.205l-.19-.035a2.56 2.56 0 0 1 -1.926-1.624c-.173-.464-.457-.88-.876-1.144-5.587-3.509-9.05-9.952-8.412-16.972.903-9.936 8.333-13.96 11.06-15.113" fill="#f3ca58"/><path d="m460.848 178.907c-.402.318.081.761.362.6.281-.16.234-.45.145-.519-.09-.068-.314-.234-.507-.081m1.882 1.275c-.432.275.171.853.467.722s.28-.424.198-.502c-.082-.076-.458-.35-.664-.22m2.805 2.11c-.251.16.099.494.27.419.172-.076.162-.246.115-.291-.048-.044-.266-.204-.385-.128m1.555 1.623c-.171.127.172.449.344.372.171-.076.089-.2.042-.244-.047-.045-.271-.212-.386-.128m-6.948-6.045c-.122.09.121.32.243.265.123-.054.063-.142.03-.174-.034-.031-.193-.15-.273-.09" fill="#f6e6a7"/><path d="m457.285 234.787 4.54 4.341c10.622-5.867 18.784-19.863 17.966-30.687-.932-12.332-6.39-21.55-6.39-21.55-17.842 11.451-24.378 28.952-16.116 47.896" fill="#879e52"/><path d="m472.557 188.34c-2.921 5.27-12.231 24.305-8.536 46.984" stroke="#627237" stroke-width=".783"/><path d="m388.825 292.153 1.565 11.687c-12.744 11.142-30.738 14.804-43.363 9.466-14.38-6.082-22.011-21.158-22.011-21.158 20.89-16.738 44.466-17.513 63.81.005" fill="#393939"/><path d="m398.392 290.107-5.923 10.195c-16.9.999-33.363-7.133-40.07-19.086-7.64-13.618-4.433-30.208-4.433-30.208 26.766-.43 45.872 13.404 50.426 39.1" fill="#879e52"/><path d="m347.966 251.008s29.602 13.194 43.72 44.372" stroke="#627237" stroke-width=".783"/><path d="m276.814 264.48c8.907-4.192 28.686 1.28 35.497 18.47 1.991 5.024 2.592 11.01 2.55 16.602-8.846-.938-17.762-2.877-24.032-6.648-17.42-10.479-14.015-28.424-14.015-28.424" fill="#879e52"/><path d="m276.814 264.48s21.22 5.632 38.047 35.072" stroke="#627237" stroke-width=".783"/><path d="m466.187 228.091c.977-.318 1.88-.881 2.48-1.717a4.648 4.648 0 0 1 5.018-1.77l.337.095a4.646 4.646 0 0 1 3.237 3.235c.24.865.69 1.663 1.408 2.204 9.569 7.208 14.844 19.398 12.61 32.003-3.162 17.838-17.225 23.98-22.337 25.644-.978.318-1.882.882-2.48 1.717a4.648 4.648 0 0 1 -5.019 1.77l-.337-.094a4.647 4.647 0 0 1 -3.237-3.235c-.24-.866-.69-1.664-1.407-2.204-9.57-7.209-14.845-19.4-12.61-32.004 3.161-17.838 17.224-23.978 22.337-25.644" fill="#f3ca58"/><path d="m474.792 229.382c-.775.514.03 1.391.563 1.142.533-.248.492-.78.341-.917-.15-.136-.533-.47-.904-.225m3.21 2.598c-.825.43.178 1.57.733 1.378.556-.192.572-.725.435-.877-.135-.152-.773-.707-1.168-.501m4.751 4.25c-.478.249.103.91.425.798.322-.111.33-.42.252-.508-.079-.088-.448-.41-.677-.29m2.565 3.175c-.329.202.242.838.564.727.323-.11.193-.348.114-.436-.08-.088-.458-.425-.678-.29m-11.643-12.007c-.234.143.171.595.4.516.23-.08.136-.248.08-.31-.055-.062-.324-.302-.48-.206" fill="#f6e6a7"/></g></svg>