<svg id="Layer_1" data-name="Layer 1" xmlns="http://www.w3.org/2000/svg" xmlns:xlink="http://www.w3.org/1999/xlink" viewBox="0 0 150 150"><defs><style>.cls-1,.cls-2{fill:none;}.cls-14,.cls-2{stroke:#fff;stroke-miterlimit:10;stroke-width:2px;}.cls-3{clip-path:url(#clip-path);}.cls-4{fill:#0d1641;}.cls-5{fill:url(#linear-gradient);}.cls-6{fill:url(#linear-gradient-2);}.cls-7{fill:url(#linear-gradient-3);}.cls-8{fill:url(#linear-gradient-4);}.cls-9{fill:url(#linear-gradient-5);}.cls-10{fill:url(#linear-gradient-6);}.cls-11{fill:url(#linear-gradient-7);}.cls-12{isolation:isolate;}.cls-13{clip-path:url(#clip-path-2);}.cls-14,.cls-30{fill:#fff;}.cls-15{clip-path:url(#clip-path-3);}.cls-16{clip-path:url(#clip-path-4);}.cls-17{clip-path:url(#clip-path-5);}.cls-18{clip-path:url(#clip-path-6);}.cls-19{clip-path:url(#clip-path-7);}.cls-20{clip-path:url(#clip-path-8);}.cls-21{clip-path:url(#clip-path-9);}.cls-22{clip-path:url(#clip-path-10);}.cls-23{clip-path:url(#clip-path-11);}.cls-24{fill:url(#linear-gradient-8);}.cls-25{fill:#ffc64b;}.cls-26{fill:#f0bc39;}.cls-27{fill:url(#linear-gradient-9);}.cls-28{fill:url(#linear-gradient-10);}.cls-29{clip-path:url(#clip-path-12);}.cls-31{fill:url(#linear-gradient-11);}.cls-32{fill:url(#linear-gradient-12);}.cls-33{fill:url(#linear-gradient-13);}.cls-34{clip-path:url(#clip-path-13);}.cls-35{clip-path:url(#clip-path-14);}.cls-36{opacity:0.12;}.cls-37{clip-path:url(#clip-path-15);}</style><clipPath id="clip-path"><rect class="cls-1" x="-0.5" y="-1" width="151" height="151"/></clipPath><linearGradient id="linear-gradient" x1="124.92338" y1="-79.72356" x2="123.54971" y2="214.24087" gradientUnits="userSpaceOnUse"><stop offset="0" stop-color="#fff"/><stop offset="0.19003" stop-color="#c8e4ff"/><stop offset="0.40572" stop-color="#90c8ff"/><stop offset="0.50992" stop-color="#7abdff"/><stop offset="0.90883" stop-color="#1b1464"/></linearGradient><linearGradient id="linear-gradient-2" x1="111.14282" y1="-22.21117" x2="110.11864" y2="196.96329" xlink:href="#linear-gradient"/><linearGradient id="linear-gradient-3" x1="56.37736" y1="40.54926" x2="55.67304" y2="191.2736" xlink:href="#linear-gradient"/><linearGradient id="linear-gradient-4" x1="67.32554" y1="109.83224" x2="67.01989" y2="175.2428" xlink:href="#linear-gradient"/><linearGradient id="linear-gradient-5" x1="81.93008" y1="20.74098" x2="77.3577" y2="71.03716" xlink:href="#linear-gradient"/><linearGradient id="linear-gradient-6" x1="34.51083" y1="102.80443" x2="29.93845" y2="153.10061" xlink:href="#linear-gradient"/><linearGradient id="linear-gradient-7" x1="62.63424" y1="58.53291" x2="56.95331" y2="121.02316" gradientUnits="userSpaceOnUse"><stop offset="0" stop-color="#fff"/><stop offset="1" stop-color="#0d1641"/></linearGradient><clipPath id="clip-path-2"><path class="cls-2" d="M-1.82069,158.48263l23.488-13.64975a.04931.04931,0,0,1,.04939-.00007l23.6475,13.6529a.04926.04926,0,0,1,.00012.08525l-23.488,13.64975a.04928.04928,0,0,1-.04939.00007l-23.6475-13.65289A.04927.04927,0,0,1-1.82069,158.48263Z"/></clipPath><clipPath id="clip-path-3"><path class="cls-2" d="M21.80025,144.70942l23.488-13.64975a.04926.04926,0,0,1,.04938-.00007l23.6475,13.6529a.04926.04926,0,0,1,.00012.08525l-23.488,13.64975a.04926.04926,0,0,1-.04938.00007l-23.64751-13.6529A.04926.04926,0,0,1,21.80025,144.70942Z"/></clipPath><clipPath id="clip-path-4"><path class="cls-2" d="M45.4212,130.93621l23.488-13.64975a.04926.04926,0,0,1,.04938-.00007l23.64751,13.65289a.04927.04927,0,0,1,.00012.08526l-23.488,13.64975a.04931.04931,0,0,1-.04939.00007l-23.6475-13.6529A.04926.04926,0,0,1,45.4212,130.93621Z"/></clipPath><clipPath id="clip-path-5"><path class="cls-2" d="M21.80025,117.29063l23.488-13.64975a.04929.04929,0,0,1,.04938-.00007l23.6475,13.6529a.04926.04926,0,0,1,.00012.08525l-23.488,13.64975a.04926.04926,0,0,1-.04938.00007L21.80037,117.37589A.04927.04927,0,0,1,21.80025,117.29063Z"/></clipPath><clipPath id="clip-path-6"><path class="cls-2" d="M45.22833,103.64506l23.488-13.64975a.04924.04924,0,0,1,.04938-.00007l23.64751,13.65289a.04927.04927,0,0,1,.00012.08526l-23.488,13.64974a.04924.04924,0,0,1-.04938.00007l-23.6475-13.65289A.04926.04926,0,0,1,45.22833,103.64506Z"/></clipPath><clipPath id="clip-path-7"><path class="cls-2" d="M68.84927,89.87184l23.488-13.64974a.04926.04926,0,0,1,.04939-.00007l23.6475,13.65289a.04926.04926,0,0,1,.00012.08525l-23.488,13.64975a.04924.04924,0,0,1-.04938.00007L68.84939,89.9571A.04927.04927,0,0,1,68.84927,89.87184Z"/></clipPath><clipPath id="clip-path-8"><path class="cls-2" d="M45.51194,76.178,69,62.52829a.04926.04926,0,0,1,.04938-.00007l23.6475,13.6529a.04926.04926,0,0,1,.00012.08525L69.209,89.91612a.04926.04926,0,0,1-.04938.00007l-23.6475-13.6529A.04926.04926,0,0,1,45.51194,76.178Z"/></clipPath><clipPath id="clip-path-9"><path class="cls-2" d="M69.28232,62.48424l23.488-13.64975a.04924.04924,0,0,1,.04938-.00007l23.6475,13.65289a.04926.04926,0,0,1,.00012.08526l-23.488,13.64974a.04924.04924,0,0,1-.04938.00007L69.28245,62.56949A.04926.04926,0,0,1,69.28232,62.48424Z"/></clipPath><clipPath id="clip-path-10"><path class="cls-2" d="M69.235,35.09663,95.19309,22.67394c.01526-.00887,21.22683,12.42576,21.22683,12.42576a.04926.04926,0,0,1,.00012.08526L92.932,48.83471a.04929.04929,0,0,1-.04938.00007L69.23513,35.18188A.04926.04926,0,0,1,69.235,35.09663Z"/></clipPath><clipPath id="clip-path-11"><path class="cls-2" d="M92.78887,48.79043l23.488-13.64975a.04929.04929,0,0,1,.04938-.00007l23.64751,13.6529a.04926.04926,0,0,1,.00012.08525l-23.488,13.64975a.04926.04926,0,0,1-.04938.00007L92.789,48.87569A.04926.04926,0,0,1,92.78887,48.79043Z"/></clipPath><linearGradient id="linear-gradient-8" x1="35.29874" y1="128.64779" x2="73.32375" y2="99.58269" xlink:href="#linear-gradient-7"/><linearGradient id="linear-gradient-9" x1="1039.30722" y1="3973.26625" x2="1076.58359" y2="3973.26625" gradientTransform="translate(4034.72138 -966.94916) rotate(90)" gradientUnits="userSpaceOnUse"><stop offset="0" stop-color="#fd7654"/><stop offset="0.99866" stop-color="#ecb533"/></linearGradient><linearGradient id="linear-gradient-10" x1="1034.20504" y1="3987.20766" x2="1081.67475" y2="3987.20766" xlink:href="#linear-gradient-9"/><clipPath id="clip-path-12"><polygon class="cls-1" points="51.342 102.684 51.295 86.111 60.509 80.791 60.556 97.364 51.342 102.684"/></clipPath><linearGradient id="linear-gradient-11" x1="85.03705" y1="45.82009" x2="107.87116" y2="28.36643" xlink:href="#linear-gradient-7"/><linearGradient id="linear-gradient-12" x1="978.96713" y1="3934.72869" x2="1001.35168" y2="3934.72869" xlink:href="#linear-gradient-9"/><linearGradient id="linear-gradient-13" x1="975.90326" y1="3943.10054" x2="1004.40894" y2="3943.10054" xlink:href="#linear-gradient-9"/><clipPath id="clip-path-13"><polygon class="cls-1" points="93.923 30.227 93.894 20.279 99.424 17.087 99.452 27.035 93.923 30.227"/></clipPath><clipPath id="clip-path-14"><path class="cls-1" d="M131.23038,268A6.76962,6.76962,0,0,1,138,274.76962V418.197H-12.197V274.76962"/></clipPath><clipPath id="clip-path-15"><rect class="cls-1" x="-241.50532" y="194.62133" width="498.74566" height="498.74566" rx="22.47928"/></clipPath></defs><title>smlcse</title><g class="cls-3"><rect class="cls-4" x="-0.5" y="-1" width="152.8875" height="152.8875"/><path class="cls-5" d="M157.479,15.41035,91.32408,48.48629c-.01593,3.94033.17082,7.88345.42917,11.81878.40869,6.22215,1.05351,12.45054,1.16023,18.68837.11041,6.46607.16333,12.92684.38093,19.39151.21967,6.52487.49179,13.04857.70932,19.5736l13.595-.06905v35.8787H153.368V117.657l.43633-.00222Z"/><path class="cls-6" d="M80.3678,84.47086c-.01526,3.819.16352,7.64078.41094,11.455.39126,6.03062,1.00874,12.06725,1.11087,18.11307.10578,6.267.15643,12.52891.36479,18.79458.21036,6.324.47089,12.64688.67919,18.97106l57.25982-.29444.89434-102.76467Z"/><polygon class="cls-7" points="-5.078 160.822 116.422 160.202 117.042 89.533 -5.078 160.822"/><polygon class="cls-8" points="40.655 162.027 93.384 161.758 93.653 131.09 40.655 162.027"/><polygon class="cls-9" points="68.078 35.185 68.078 62.69 91.896 49.042 68.078 35.185"/><polygon class="cls-10" points="20.659 117.248 20.659 144.754 44.477 131.106 20.659 117.248"/><polygon class="cls-11" points="45.424 76.478 45.424 110.652 75.016 93.696 45.424 76.478"/><g class="cls-12"><g class="cls-13"><polyline class="cls-14" points="45.438 158.528 21.692 144.819 -1.894 158.525 21.852 172.235 45.438 158.528"/></g><path class="cls-2" d="M-1.82069,158.48263l23.488-13.64975a.04931.04931,0,0,1,.04939-.00007l23.6475,13.6529a.04926.04926,0,0,1,.00012.08525l-23.488,13.64975a.04928.04928,0,0,1-.04939.00007l-23.6475-13.65289A.04927.04927,0,0,1-1.82069,158.48263Z"/></g><g class="cls-12"><g class="cls-15"><polyline class="cls-14" points="69.059 144.755 45.313 131.045 21.727 144.752 45.473 158.462 69.059 144.755"/></g><path class="cls-2" d="M21.80025,144.70942l23.488-13.64975a.04926.04926,0,0,1,.04938-.00007l23.6475,13.6529a.04926.04926,0,0,1,.00012.08525l-23.488,13.64975a.04926.04926,0,0,1-.04938.00007l-23.64751-13.6529A.04926.04926,0,0,1,21.80025,144.70942Z"/></g><g class="cls-12"><g class="cls-16"><polyline class="cls-14" points="92.68 130.982 69.094 144.689 45.348 130.979 68.934 117.272 92.68 130.982 92.68 155.857 50.656 155.857"/></g><path class="cls-2" d="M45.4212,130.93621l23.488-13.64975a.04926.04926,0,0,1,.04938-.00007l23.64751,13.65289a.04927.04927,0,0,1,.00012.08526l-23.488,13.64975a.04931.04931,0,0,1-.04939.00007l-23.6475-13.6529A.04926.04926,0,0,1,45.4212,130.93621Z"/></g><g class="cls-12"><g class="cls-17"><polyline class="cls-14" points="69.059 117.336 45.313 103.627 21.727 117.333 45.473 131.043 69.059 117.336"/></g><path class="cls-2" d="M21.80025,117.29063l23.488-13.64975a.04929.04929,0,0,1,.04938-.00007l23.6475,13.6529a.04926.04926,0,0,1,.00012.08525l-23.488,13.64975a.04926.04926,0,0,1-.04938.00007L21.80037,117.37589A.04927.04927,0,0,1,21.80025,117.29063Z"/></g><g class="cls-12"><g class="cls-18"><polyline class="cls-14" points="92.487 103.691 68.741 89.981 45.155 103.688 68.901 117.397 92.487 103.691"/></g><path class="cls-2" d="M45.22833,103.64506l23.488-13.64975a.04924.04924,0,0,1,.04938-.00007l23.64751,13.65289a.04927.04927,0,0,1,.00012.08526l-23.488,13.64974a.04924.04924,0,0,1-.04938.00007l-23.6475-13.65289A.04926.04926,0,0,1,45.22833,103.64506Z"/></g><g class="cls-12"><g class="cls-19"><polyline class="cls-14" points="116.108 89.917 92.362 76.208 68.776 89.915 92.522 103.624 116.108 89.917"/></g><path class="cls-2" d="M68.84927,89.87184l23.488-13.64974a.04926.04926,0,0,1,.04939-.00007l23.6475,13.65289a.04926.04926,0,0,1,.00012.08525l-23.488,13.64975a.04924.04924,0,0,1-.04938.00007L68.84939,89.9571A.04927.04927,0,0,1,68.84927,89.87184Z"/></g><g class="cls-12"><g class="cls-20"><polyline class="cls-14" points="92.771 76.224 69.025 62.514 45.438 76.221 69.184 89.93 92.771 76.224"/></g><path class="cls-2" d="M45.51194,76.178,69,62.52829a.04926.04926,0,0,1,.04938-.00007l23.6475,13.6529a.04926.04926,0,0,1,.00012.08525L69.209,89.91612a.04926.04926,0,0,1-.04938.00007l-23.6475-13.6529A.04926.04926,0,0,1,45.51194,76.178Z"/></g><g class="cls-12"><g class="cls-21"><polyline class="cls-14" points="116.541 62.53 92.795 48.82 69.209 62.527 92.955 76.237 116.541 62.53"/></g><path class="cls-2" d="M69.28232,62.48424l23.488-13.64975a.04924.04924,0,0,1,.04938-.00007l23.6475,13.65289a.04926.04926,0,0,1,.00012.08526l-23.488,13.64974a.04924.04924,0,0,1-.04938.00007L69.28245,62.56949A.04926.04926,0,0,1,69.28232,62.48424Z"/></g><g class="cls-12"><g class="cls-22"><polyline class="cls-14" points="116.494 35.142 94.655 22.405 69.161 35.139 92.907 48.849 116.494 35.142"/></g><path class="cls-2" d="M69.235,35.09663,95.19309,22.67394c.01526-.00887,21.22683,12.42576,21.22683,12.42576a.04926.04926,0,0,1,.00012.08526L92.932,48.83471a.04929.04929,0,0,1-.04938.00007L69.23513,35.18188A.04926.04926,0,0,1,69.235,35.09663Z"/></g><g class="cls-12"><g class="cls-23"><polyline class="cls-14" points="140.047 48.836 116.302 35.126 92.715 48.833 116.461 62.543 140.047 48.836"/></g><path class="cls-2" d="M92.78887,48.79043l23.488-13.64975a.04929.04929,0,0,1,.04938-.00007l23.64751,13.6529a.04926.04926,0,0,1,.00012.08525l-23.488,13.64975a.04926.04926,0,0,1-.04938.00007L92.789,48.87569A.04926.04926,0,0,1,92.78887,48.79043Z"/></g><rect class="cls-1" x="-0.5" y="-1" width="152.8875" height="152.8875" rx="6.89089"/><path class="cls-14" d="M69.218,34.99176,148.72848-2.88315l3.10843-3.20837L167.022,9.76088,116.44583,35.318,69.231,35.049A.03006.03006,0,0,1,69.218,34.99176Z"/><path class="cls-24" d="M50.85258,112.88244c-2.25647.65122-6.90589,4.49012-8.80988,6.06014-2.3316,1.92261-.26794,5.42241,2.78441,4.71149a25.47268,25.47268,0,0,0,5.84691-2.55618,63.63264,63.63264,0,0,0,5.67607-3.87363,41.64971,41.64971,0,0,0,4.32343-3.824c1.71471-1.82886-.103-1.98032-3.19529-1.92754a10.5959,10.5959,0,0,0-5.4192,1.68415C50.88359,113.90077,52.21859,112.48822,50.85258,112.88244Z"/><g class="cls-12"><path class="cls-25" d="M59.59775,77.75771a10.64268,10.64268,0,0,0-5.57353-5.08838q2.38824.00672,4.77639.01353a10.64272,10.64272,0,0,1,5.57353,5.08838c4.21772,7.25774,4.21777,19.06139.00011,26.3666-2.1079,3.65106-4.87126,5.48612-7.63478,5.50114l-4.7764-.01358c2.76355-.015,5.52689-1.85,7.63479-5.50109C63.81553,96.8191,63.81547,85.01545,59.59775,77.75771Z"/><path class="cls-25" d="M54.02422,72.66933a6.47362,6.47362,0,0,0-2.00933-.32983l4.77636.01353a6.47241,6.47241,0,0,1,2.00936.32988q-1.19413-.00344-2.38814-.00681l-.625-.00176-.91308-.00256c-.17282-.00053-.40325-.00117-.57608-.00165A1.95319,1.95319,0,0,1,54.02422,72.66933Z"/><path class="cls-26" d="M56.68743,109.639,51.911,109.6255c-2.746-.00777-5.48816-1.81263-7.58374-5.41863-4.21772-7.25774-4.21777-19.06139-.00208-26.36319,2.12239-3.6761,4.90807-5.51207,7.6895-5.50418l4.77637.01353c-2.78141-.00789-5.5671,1.82808-7.68948,5.50418-4.21575,7.30185-4.21564,19.10545.00208,26.36319C51.19926,107.8264,53.94142,109.63126,56.68743,109.639Z"/><path class="cls-25" d="M51.9105,109.6255c.01752.00006.035,0,.05258-.00005q2.38826.00672,4.77639.01353-.02628.00016-.05257.00005C55.254,109.635,53.34341,109.62955,51.9105,109.6255Z"/><path class="cls-26" d="M64.37425,104.13784c-4.21575,7.30185-11.05282,7.34031-15.27056.08256s-4.21783-19.06134-.00208-26.36319c4.21767-7.30521,11.05476-7.34367,15.27253-.086S68.59191,96.83263,64.37425,104.13784Z"/><path class="cls-27" d="M61.71072,77.77124c4.21777,7.25774,4.21782,19.06139.00015,26.3666-1.77748,3.07875-4.02132,4.86087-6.33806,5.3546,3.19939.68348,6.54522-1.10029,9.00144-5.3546,4.21766-7.30521,4.21761-19.10886-.00016-26.3666-2.43907-4.19711-5.75385-5.94881-8.9317-5.27162C57.73414,72.98926,59.95065,74.7425,61.71072,77.77124Z"/><path class="cls-28" d="M56.67289,114.7256l-4.77637-.01353c-3.49514-.00991-6.9853-2.30718-9.65251-6.89681-5.36643-9.23439-5.36649-24.25838-.00016-33.55318,2.70167-4.67939,6.24773-7.01623,9.78807-7.00616l4.77638.01353c-3.54034-.01007-7.08642,2.32683-9.78807,7.00616-5.36637,9.2948-5.36626,24.31884.00015,33.55324C49.68757,112.41842,53.17776,114.71569,56.67289,114.7256Z"/><path class="cls-25" d="M66.45759,107.72279c-5.36632,9.29475-14.06881,9.34381-19.43721.10606-5.36641-9.2344-5.36652-24.25844-.00015-33.55324,5.36831-9.29816,14.07077-9.34711,19.4372-.11277C71.82584,83.4006,71.82589,98.42458,66.45759,107.72279Zm-17.356-29.86558c-4.2157,7.30185-4.21565,19.10545.00208,26.36319s11.05485,7.21929,15.27055-.08256c4.21766-7.30521,4.21761-19.10886-.00011-26.3666s-11.05485-7.21924-15.27252.086"/></g><g class="cls-12"><g class="cls-29"><path class="cls-30" d="M60.5086,80.79139l-9.21311,5.31919.00464,1.636,1.55789-.89945c1.90263-1.09848,3.06666-1.043,3.37726.24l-4.929,2.84573.00356,1.25454,4.99286-2.88264c-.14835,1.82724-1.4157,3.6906-3.778,5.05447L51.318,94.056l.00443,1.56266a58.76874,58.76874,0,0,1,5.38318,3.96858l2.10051-1.21273A49.486,49.486,0,0,0,53.378,94.30692a9.50712,9.50712,0,0,0,4.78261-7.07475L60.523,85.86825l-.00356-1.25454-2.38151,1.375a1.99144,1.99144,0,0,0-1.23316-1.86l3.60739-2.08273-.00355-1.25454"/></g></g><path class="cls-31" d="M94.37717,36.353c-1.355.39106-4.147,2.69633-5.29036,3.63913a1.67532,1.67532,0,0,0,1.672,2.82926,15.29637,15.29637,0,0,0,3.51108-1.535,38.2111,38.2111,0,0,0,3.40849-2.32613,25.00852,25.00852,0,0,0,2.59623-2.29635c1.02969-1.09823-.06184-1.18918-1.91878-1.15749a6.36281,6.36281,0,0,0-3.25424,1.01134C94.39579,36.96447,95.19746,36.11623,94.37717,36.353Z"/><g class="cls-12"><path class="cls-25" d="M98.87733,15.26047a6.391,6.391,0,0,0-3.34692-3.05558q1.43415.004,2.86823.00813a6.391,6.391,0,0,1,3.34692,3.05558c2.53275,4.35829,2.53278,11.44641.00007,15.83321-1.2658,2.19247-2.92521,3.29443-4.5847,3.30345l-2.86825-.00816c1.65952-.009,3.31891-1.111,4.58471-3.30342C101.41011,26.70689,101.41008,19.61877,98.87733,15.26047Z"/><path class="cls-25" d="M95.53041,12.20489a3.8874,3.8874,0,0,0-1.20661-.19806L97.192,12.015a3.88663,3.88663,0,0,1,1.20662.1981q-.71707-.00207-1.43408-.0041l-.37534-.001-.54831-.00154-.34593-.001A1.17208,1.17208,0,0,1,95.53041,12.20489Z"/><path class="cls-26" d="M97.12967,34.40529l-2.86823-.00813c-1.649-.00467-3.29565-1.08849-4.554-3.2539C87.17463,26.785,87.1746,19.69685,89.70614,15.3121c1.2745-2.2075,2.94731-3.31,4.61756-3.30527l2.86822.00812c-1.67025-.00473-3.34306,1.09777-4.61755,3.30528-2.53157,4.38478-2.5315,11.47286.00125,15.83116C93.834,33.31679,95.48069,34.40062,97.12967,34.40529Z"/><path class="cls-25" d="M94.26111,34.39716c.01053,0,.02105,0,.03158,0q1.43415.004,2.86824.00813-.01579.00009-.03158,0Z"/><path class="cls-26" d="M101.74563,31.10181c-2.53157,4.38477-6.63725,4.40787-9.17.04958S90.0428,19.705,92.57437,15.32023c2.53272-4.3868,6.63841-4.40989,9.17119-.05163S104.27834,26.715,101.74563,31.10181Z"/><path class="cls-32" d="M100.14617,15.2686c2.53278,4.35829,2.53281,11.44641.00009,15.83321a6.12444,6.12444,0,0,1-3.806,3.21545c1.92124.41043,3.93042-.66073,5.40539-3.21545,2.53271-4.3868,2.53268-11.47492-.0001-15.83321-1.46466-2.52037-3.4552-3.57227-5.36351-3.16562A6.06469,6.06469,0,0,1,100.14617,15.2686Z"/><path class="cls-33" d="M97.12094,37.45978l-2.86822-.00812c-2.09884-.00595-4.19469-1.38547-5.79636-4.14155-3.22255-5.54528-3.22258-14.56722-.00009-20.14877,1.62236-2.81,3.75178-4.21326,5.87776-4.20722l2.86822.00813c-2.126-.006-4.25541,1.39727-5.87776,4.20722C88.102,18.751,88.102,27.773,91.32459,33.31827,92.92624,36.07432,95.0221,37.45383,97.12094,37.45978Z"/><path class="cls-25" d="M102.99668,33.25458c-3.22249,5.58152-8.44835,5.611-11.67209.06369C88.102,27.773,88.102,18.751,91.32449,13.16947c3.22369-5.58357,8.44954-5.613,11.67209-.06772C106.22032,18.649,106.22035,27.671,102.99668,33.25458ZM92.57437,15.32023c-2.53153,4.38478-2.5315,11.47286.00125,15.83116s6.63847,4.33519,9.17-.04958c2.53271-4.3868,2.53268-11.47492-.00007-15.83321s-6.63846-4.33517-9.17119.05163"/></g><g class="cls-12"><g class="cls-34"><path class="cls-30" d="M99.42351,17.0868l-5.52916,3.19226.00279.983.93222-.53821c1.14283-.65982,1.84-.62874,2.02759.14481l-2.95609,1.7067.00214.75566,2.99446-1.72885a4.06539,4.06539,0,0,1-2.26806,3.029l-.72153.41657.00266.939a38.42635,38.42635,0,0,1,3.2299,2.38266l1.26415-.72986a29.31693,29.31693,0,0,0-3.262-2.43759,5.71542,5.71542,0,0,0,2.87213-4.24487l1.41743-.81835L99.43,19.38313l-1.43015.8257a1.18768,1.18768,0,0,0-.73863-1.11675l2.16442-1.24962-.00215-.75566"/></g></g></g><g class="cls-35"><g class="cls-36"><g class="cls-37"><path class="cls-30" d="M77.8214,139.26625c-9.40125-4.40825-9.78436,14.27668-.82164,10.52783.82317-.34426.462-1.70406-.37361-1.35459-6.7973,2.84306-6.21247-11.101.48619-7.96044.81512.38235,1.52863-.82823.70906-1.2128Z"/><path class="cls-30" d="M79.07812,139.76118c.66307,2.61567,1.48111,5.17946,2.28819,7.75352.27047.86118,1.62728.49347,1.35536-.37354-.80785-2.57406-1.62513-5.13785-2.28889-7.75352a.703.703,0,0,0-1.35466.37354Z"/><path class="cls-30" d="M82.67415,138.86635c.87507,2.68372,1.802,5.34837,2.61567,8.05179a.703.703,0,0,0,1.35466-.37354c-.81367-2.70342-1.73992-5.36814-2.615-8.051-.28-.85758-1.63684-.49056-1.35535.37278Z"/><path class="cls-30" d="M79.75576,144.74988a38.135,38.135,0,0,0,4.76354-.62138c.89261-.14553.51248-1.49943-.37353-1.35466a34.88809,34.88809,0,0,1-4.39.57095c-.90357.03365-.90648,1.43867,0,1.40509Z"/><path class="cls-30" d="M89.84354,148.27863q1.02862-.91887,2.0572-1.83787-.51547-.20945-1.03156-.4196a6.86764,6.86764,0,0,1-.59946,4.03249c-.24049.62576.53732,1.041,1.03155.7939q.81034,2.00234-.75651,1.4431c-.90149-.09142-.89275,1.31443,0,1.40509,5.08429.51755,4.73343-6.40475.04737-4.06176q.51651.397,1.03225.79321a7.31946,7.31946,0,0,0,.59946-4.77956.70861.70861,0,0,0-1.03224-.41967A7.74081,7.74081,0,0,0,88.63,147.5695c-.53738.73181.68347,1.43144,1.21351.70913Z"/><path class="cls-30" d="M138.88452,139.22019q-.15774-.26428-.32235-.52414c-.291-.46572-1.18429-.47155-1.28377.16815-.41883,2.69024.84655,5.86668,2.02731,8.22139.40635.81069,1.61846.09864,1.21358-.70913-.941-1.87664-2.224-4.9697-1.88608-7.13872q-.64168.08334-1.28384.16814.1644.25878.32165.52344a.70313.70313,0,0,0,1.2135-.70913Z"/><path class="cls-30" d="M141.7042,137.984c1.80506,2.07107,3.428,6.40912,2.7619,9.15715-.21344.88012,1.14192,1.25373,1.35466.37354.799-3.29485-.95407-8.03494-3.123-10.52423-.59593-.68423-1.58572.31367-.99361.99354Z"/><path class="cls-30" d="M138.27777,143.55754a49.62818,49.62818,0,0,0,6.39886-.62215c.89191-.15205.51248-1.506-.37354-1.35466a46.67811,46.67811,0,0,1-6.02532.57172c-.90281.03656-.90648,1.44165,0,1.40509Z"/><path class="cls-30" d="M148.4408,147.03953q1.20189-1.51548,2.09522.75735.2697.64146.541,1.2837.488.88275.97592,1.76475a7.33735,7.33735,0,0,1-1.83933-.29023,6.1296,6.1296,0,0,1-2.28451-1.04029c-.70768-.54682-1.70989.44013-.99347.99354,1.39045,1.07463,6.58019,3.23782,7.679.64913,1.20183-2.832-1.79258-4.9543-4.2467-3.28971a.7057.7057,0,0,0,.54168,1.28377c4.2453-.91314,1.14628-6.56409-3.17782-3.32481-.71649.53586-.01686,1.75671.70906,1.2128Z"/></g></g></g><rect class="cls-1" width="150" height="150"/></svg>