<?xml version="1.0" encoding="UTF-8"?>
<svg width="24px" height="24px" viewBox="0 0 24 24" version="1.1" xmlns="http://www.w3.org/2000/svg" xmlns:xlink="http://www.w3.org/1999/xlink">
    <!-- Generator: Sketch 53.1 (72631) - https://sketchapp.com -->
    <title>edelweiss</title>
    <desc>Created with Sketch.</desc>
    <g id="edelweiss" stroke="none" stroke-width="1" fill="none" fill-rule="evenodd">
        <path d="M19.918914,16.4245197 C18.2682868,18.8616447 15.5244531,20.3175565 12.5757227,20.3175565 C7.98654627,20.3175565 4.16732319,16.8394037 3.73716744,12.3405854 L8.38997637,12.3405854 C7.852918,12.807648 7.68620084,13.5368766 8.02218047,14.1235683 C8.40143022,14.782801 9.31264772,14.9813345 10.0406036,14.5728138 C10.5140295,14.3361008 10.8907339,13.909763 11.2890734,13.4579722 C11.425247,13.3039816 11.5639658,13.146173 11.7077753,12.9960002 C11.650506,13.1856251 11.5856009,13.37525 11.5219684,13.5623296 C11.3247076,14.1401127 11.137628,14.684807 11.1821708,15.1836858 C11.1821708,16.0312708 11.807042,16.7210472 12.5757227,16.7210472 C13.3444034,16.7210472 13.9692746,16.0312708 13.9680019,15.2116841 C14.0138173,14.6695352 13.8267378,14.1222956 13.6282044,13.5445125 C13.5645718,13.3650688 13.502212,13.1818072 13.4462154,12.9972729 C13.5887522,13.1474456 13.7287437,13.3039816 13.8636446,13.4592449 C14.2632568,13.909763 14.6386886,14.3361008 15.0942973,14.5626326 C15.481183,14.7878916 15.913884,14.8540695 16.3147688,14.7446215 C16.6634749,14.6504454 16.9536392,14.430277 17.1305375,14.1235683 C17.5097873,13.4630628 17.2310769,12.5951154 16.503121,12.1560511 C16.0627841,11.8633416 15.5079086,11.7526211 14.9212169,11.6355372 C14.7214108,11.5960851 14.5190595,11.5553603 14.3192534,11.5069996 C14.498697,11.4662748 14.680686,11.4293679 14.8601297,11.3937337 C15.4735471,11.2741046 16.0513302,11.1595661 16.4878492,10.8541301 C17.2361675,10.4201564 17.5174232,9.55220896 17.1305375,8.87643173 C16.7512878,8.21592631 15.8400703,8.01993819 15.1121144,8.42718623 C14.6386886,8.66262651 14.2619841,9.09023696 13.8636446,9.54202776 C13.7274711,9.69601842 13.5874795,9.85382704 13.4436701,10.0052724 C13.5009393,9.81437489 13.5658445,9.62475002 13.6307497,9.43767044 C13.8280104,8.86115993 14.0138173,8.31519302 13.9692746,7.81631416 C13.9692746,6.96745652 13.3444034,6.27768014 12.5757227,6.27768014 C11.807042,6.27768014 11.1821708,6.96745652 11.1834434,7.78958851 C11.137628,8.33173747 11.3259802,8.87643173 11.5245137,9.4542149 C11.5868735,9.63620387 11.6492334,9.81819284 11.70523,10.0014545 C11.5626932,9.85255439 11.425247,9.69601842 11.2890734,9.54202776 C10.8907339,9.09023696 10.5140295,8.66262651 10.0584207,8.43736743 C9.66517181,8.20829041 9.20574511,8.14593055 8.80104236,8.26301436 C8.45488152,8.36228107 8.17617114,8.5837222 8.02218047,8.87643173 C7.69001879,9.4567602 7.86309921,10.1948973 8.39252167,10.6594146 L3.73716744,10.6594146 C4.16732319,6.15932368 7.97509242,2.68244349 12.5515423,2.68244349 C15.502818,2.68244349 18.2568329,4.1472638 19.918914,6.59966063 L20.0130901,6.73965214 L21.9615175,6.73965214 L21.6828071,6.26113569 C19.7852857,3.01587783 16.2867705,1 12.5515423,1 C6.73298588,1 2,5.71135083 2,11.4993637 C2,17.2899218 6.73298588,22 12.5515423,22 C16.2944064,22 19.7929216,19.9943034 21.6828071,16.7643173 L21.9615175,16.2858009 L20.0130901,16.2858009 L19.918914,16.4245197 Z" id="Fill-1" fill="#134094"></path>
    </g>
</svg>