<svg width="543" height="438" xmlns="http://www.w3.org/2000/svg"><defs><linearGradient x1="-10.935%" y1="147.509%" x2="132.727%" y2="-42.464%" id="a"><stop stop-color="#73909C" offset="0%"/><stop stop-color="#A3AAB3" offset="42.4%"/><stop stop-color="#FFF" stop-opacity="0" offset="100%"/></linearGradient><linearGradient x1="5.041%" y1="111.079%" x2="74.315%" y2="13.802%" id="b"><stop stop-color="#73D4FF" offset="0%"/><stop stop-color="#D1D4DF" offset="35.31%"/><stop stop-color="#FFF" stop-opacity="0" offset="100%"/></linearGradient><linearGradient x1="22.498%" y1="111.921%" x2="66.58%" y2="12.66%" id="c"><stop stop-color="#244F66" offset="0%"/><stop stop-color="#4DABDB" offset="32.44%"/><stop stop-color="#E1FCFF" stop-opacity="0" offset="99.87%"/></linearGradient><linearGradient x1="32.326%" y1="70.05%" x2="63.537%" y2="34.419%" id="d"><stop stop-color="#244F66" offset="0%"/><stop stop-color="#4DABDB" offset="32.44%"/><stop stop-color="#E1FCFF" stop-opacity="0" offset="99.87%"/></linearGradient><linearGradient x1="12.539%" y1="107.544%" x2="61.625%" y2="32.074%" id="e"><stop stop-color="#244F66" offset="0%"/><stop stop-color="#4DABDB" offset="32.44%"/><stop stop-color="#E1FCFF" stop-opacity="0" offset="99.87%"/></linearGradient><linearGradient x1="24.847%" y1="61.895%" x2="61.918%" y2="-9.936%" id="f"><stop stop-color="#244F66" offset="0%"/><stop stop-color="#4DABDB" offset="32.44%"/><stop stop-color="#E1FCFF" stop-opacity="0" offset="99.87%"/></linearGradient><linearGradient x1="5.543%" y1="8.184%" x2="59.379%" y2="58.869%" id="g"><stop stop-color="#BB7E90" offset="0%"/><stop stop-color="#C58995" offset="43%"/><stop stop-color="#DA9E9F" offset="100%"/></linearGradient><linearGradient x1="0%" y1="49.981%" x2="99.908%" y2="49.981%" id="h"><stop stop-color="#BB7E90" offset="0%"/><stop stop-color="#C58995" offset="59%"/><stop stop-color="#CF9399" offset="100%"/></linearGradient></defs><g fill="none" fill-rule="evenodd"><path d="M267.283 46.807l5.932-3.438c.543-.314.568-.816.04-1.12a2.14 2.14 0 0 0-1.936 0l-5.933 3.427c-.547.315-.562.817-.04 1.121a2.14 2.14 0 0 0 1.937 0M260.509 42.862l16.869-9.74c.548-.314.563-.816.04-1.12a2.14 2.14 0 0 0-1.936 0l-16.865 9.77c-.547.315-.568.817-.04 1.12a2.13 2.13 0 0 0 1.932 0M245.916 34.385l7.438-4.295c.548-.32.563-.821.046-1.126a2.15 2.15 0 0 0-1.942 0l-7.438 4.3c-.548.314-.568.816-.041 1.12a2.14 2.14 0 0 0 1.937 0" fill="#018AD1" fill-rule="nonzero" opacity=".64"/><path d="M251.453 28.985a2.15 2.15 0 0 1 1.942 0c.507.304.507.806-.046 1.125l-7.433 4.275a2.14 2.14 0 0 1-1.937 0c-.507-.305-.507-.807.04-1.121l7.439-4.3m16.732-1.196a2.14 2.14 0 0 1 1.937 0c.507.304.507.806-.04 1.125l-16.865 9.736a2.15 2.15 0 0 1-1.942 0c-.507-.305-.507-.807.046-1.121l16.864-9.74m7.302 4.244a2.14 2.14 0 0 1 1.937 0c.507.304.507.806-.04 1.12l-16.88 9.73a2.13 2.13 0 0 1-1.932 0c-.507-.304-.507-.806.04-1.12l16.865-9.74m-4.163 10.277a2.14 2.14 0 0 1 1.937 0c.507.304.507.806-.04 1.12l-5.933 3.428a2.14 2.14 0 0 1-1.937 0c-.507-.304-.507-.806.04-1.12l5.933-3.428m-3.874 11.292l28.394-16.388c1.014-.588 1.06-1.52.082-2.089l-31.706-18.42a3.985 3.985 0 0 0-3.615.04l-28.374 16.388c-1.014.588-1.055 1.52-.076 2.089l31.695 18.42c1.14.566 2.483.55 3.61-.04" fill="#CCF0FF" fill-rule="nonzero"/><path d="M253.212 38.629l16.865-9.736c.547-.32.562-.821.04-1.125a2.14 2.14 0 0 0-1.937 0l-16.864 9.76c-.548.315-.563.817-.046 1.12a2.15 2.15 0 0 0 1.942 0" fill="#018AD1" fill-rule="nonzero" opacity=".64"/><g fill-rule="nonzero"><path d="M418.149 10.484l-.04 14.13-3.444 11.577c1.03.987 2.172 1.85 3.403 2.57 6.48 3.742 11.758.452 11.783-7.347.026-7.798-5.222-17.168-11.702-20.93" fill="#1FB1FF"/><path d="M418.149 10.484c-6.49-3.748-11.764-.457-11.784 7.347.05 3.017.686 5.996 1.871 8.771l9.872-1.987.04-14.131" fill="#F6E8A7"/><path d="M418.108 24.635l-9.872 1.988a27.811 27.811 0 0 0 6.43 9.568l3.442-11.556" fill="#FF939D"/></g><path d="M295.961 46.077l29.12 16.814a29.155 29.155 0 0 0 29.226-.041l63.45-36.877M178.079 83.984l63.8-36.933" stroke="#3884E2" stroke-linecap="round" stroke-linejoin="round" stroke-dasharray="0,5"/><path d="M518.64 226.275v10.962a19.055 19.055 0 0 1-9.477 16.47L389.12 323.444" stroke="#3884E2" opacity=".89" stroke-linecap="round" stroke-linejoin="round" stroke-dasharray="0,5"/><path d="M140.211 13.953c32.228 18.603 32.41 48.772.39 67.375-32.02 18.604-84.093 18.599-116.32 0-32.228-18.598-32.395-48.767-.375-67.375 32.02-18.609 84.093-18.599 116.305 0z" opacity=".18" transform="translate(214.324 342.635)" fill="url(#a)" fill-rule="nonzero"/><g transform="translate(409.981 315.398)" fill-rule="nonzero"><path d="M13.873 31.482c-1.14 1.806-2.82 3.136-4.435 4.498-.791.665-1.425 1.235-1.837 2.217-.38.95-.443 2.027-.126 3.009 1.362 4.402 7.158 6.208 11.307 5.764 2.09-.222 6.08-1.552 6.398-4.117.19-1.679-.729-3.136-1.362-4.593a10.961 10.961 0 0 1-.824-2.977c-.127-.918-.032-1.837-.158-2.755-.19-1.552-.76-3.168-2.249-3.928-2.565-1.33-5.353.729-6.714 2.882z" fill="#FFF"/><path d="M41.174 93.687c-4.466 2.629-8.931 3.199-13.967 2.375-4.91-.791-9.819-2.628-13.873-4.972-3.547-2.027-10.198-6.461-9.248-11.402.665-3.484 6.398-5.638 9.185-7.253 4.434-2.597 8.836-5.163 13.27-7.76 3.738-2.185 13.303-7.855 17.072-10.04.475-.285.887-.475 1.203-.665.095-.064.222-.095.349-.159.538-.221.792-.348 1.013-.443.475-.19.887-.317 1.236-.443 3.42-1.204 7.094-1.584 10.705-1.584 3.009 0 6.746 1.14 9.597.253.411-.126.665-.221.95-.348.443-.19.697-.317.95-.475l4.56-2.66a7.473 7.473 0 0 1 4.498-.982c.222.031.349.031.38.031.222.032.349.064.475.064a16.634 16.634 0 0 1 5.48 1.963c1.203.697 2.438 1.742 3.199 2.882 1.203 1.87.126 2.598-1.52 3.548-1.458.855-3.168 1.678-4.561 2.755-2.186 1.71-1.52 2.82-.887 5.29.918 4.18-1.869 7.57-5.226 9.565-.729.443-1.489.886-2.249 1.33l-3.42 1.995c-7.76 4.561-21.38 12.574-29.17 17.135z" fill="url(#b)"/><ellipse fill="#A2DFFF" transform="rotate(-89.837 23.147 85.325)" cx="23.147" cy="85.325" rx="13.207" ry="22.804"/><path d="M45.925 38.324c-.032-.254-.095-.602-.127-.856-.095-.443-.221-1.076-.348-1.52-.063-.253-.317-1.14-.539-1.678a20.03 20.03 0 0 0-.601-1.457l-.412-.824a6.972 6.972 0 0 0-.475-.823 35.116 35.116 0 0 0-.919-1.394c-.126-.19-.475-.665-1.172-1.489 0 0-.665-.76-1.393-1.456-.634-.57-.76-.697-1.71-1.426-.127-.095-.317-.253-.444-.348a.962.962 0 0 0-.222-.158c-.126-.096-.316-.254-.443-.349-.127-.095-.317-.253-.443-.348a.962.962 0 0 0-.222-.159c-.127-.095-.317-.253-.443-.348-.127-.095-.317-.253-.444-.348a.962.962 0 0 0-.222-.159c-.126-.095-.316-.253-.443-.348-.127-.095-.317-.254-.443-.349a.962.962 0 0 0-.222-.158c-.095-.095-.254-.19-.38-.285-.127-.127-.349-.38-.602-.919a7.089 7.089 0 0 1-.443-1.076c-.159-.475-.317-1.236-.349-2.312l.032-8.109c0-1.393-.919-2.755-2.787-3.8-3.61-1.996-9.312-1.964-12.764.126-1.679 1.014-2.502 2.312-2.502 3.611 0 2.439-.032 5.67-.032 8.108 0 2.249-.919 3.77-1.425 4.276a554.592 554.592 0 0 0-4.498 3.389c-.57.443-1.868 1.425-3.23 3.009a20.063 20.063 0 0 0-2.503 3.642l-.411.824c-.19.443-.444 1.013-.602 1.457a15.36 15.36 0 0 0-.538 1.678c-.159.634-.349 1.33-.476 2.376-.031.253-.063.601-.095.855A25.418 25.418 0 0 0 .57 40.73C.538 54.096.475 71.928.443 85.294c0-3.294 2.122-6.556 6.335-9.122 8.71-5.257 23.152-5.384 32.242-.317 4.688 2.598 7.032 6.081 7.032 9.565l.126-44.563c-.095-1.298-.221-2.122-.253-2.533z" fill="#83D0FF"/><path d="M46.02 39.274c-.032-.254-.063-.602-.095-.855-.127-1.046-.317-1.742-.443-2.376a8.737 8.737 0 0 0-.254-.855 6.288 6.288 0 0 0-.285-.823 20.03 20.03 0 0 0-.602-1.457c-.095-.254-.285-.57-.411-.824-.285-.57-1.109-2.059-2.47-3.674-1.331-1.583-2.63-2.565-3.2-3.009-.126-.095-.316-.253-.443-.348a.962.962 0 0 0-.222-.158c-.127-.096-.317-.254-.443-.349-.127-.095-.317-.253-.444-.348a.962.962 0 0 0-.221-.159c-.127-.095-.317-.253-.444-.348-.126-.095-.317-.253-.443-.348a.962.962 0 0 0-.222-.159c-.127-.095-.317-.253-.443-.348-.127-.095-.317-.254-.444-.349a.962.962 0 0 0-.221-.158c-.095-.095-.254-.19-.38-.285-.476-.475-1.267-1.837-1.394-3.864v-.412l.032-8.108c0 1.299-.824 2.597-2.503 3.61-3.452 2.091-9.185 2.123-12.764.127-1.868-1.045-2.787-2.407-2.787-3.8l-.031 8.108v.285c0 .222-.032.507-.064.728a8.297 8.297 0 0 1-.285 1.299c-.063.19-.221.665-.443 1.077-.285.538-.507.792-.602.918l-4.656 3.263c-.063.031-.095.063-.127.095-.823.633-.95.76-1.551 1.298-.76.697-1.394 1.457-1.426 1.457-.697.824-1.045 1.299-1.172 1.489-.285.411-.633.95-.918 1.393-.158.254-.348.57-.475.824-.127.253-.317.57-.412.823-.19.444-.443 1.014-.633 1.457-.159.349-.444 1.235-.539 1.679a21.373 21.373 0 0 0-.348 1.52c-.064.253-.095.602-.127.855-.063.38-.158 1.235-.19 2.502L.348 85.23c0 3.484 2.344 6.968 7.032 9.565 9.09 5.068 23.532 4.91 32.242-.316 4.244-2.534 6.335-5.828 6.335-9.122l.126-44.563c0-.443-.031-1.077-.063-1.52z" fill="#EDFEFF" opacity=".69"/><path d="M46.02 39.274c-.032-.254-.063-.602-.095-.855-.127-1.046-.317-1.742-.443-2.376a8.737 8.737 0 0 0-.254-.855 6.288 6.288 0 0 0-.285-.823 20.03 20.03 0 0 0-.602-1.457c-.095-.254-.285-.57-.411-.824-.285-.57-1.109-2.059-2.47-3.674-1.331-1.583-2.63-2.565-3.2-3.009-.126-.095-.316-.253-.443-.348a.962.962 0 0 0-.222-.158c-.127-.096-.317-.254-.443-.349-.127-.095-.317-.253-.444-.348a.962.962 0 0 0-.221-.159c-.127-.095-.317-.253-.444-.348-.126-.095-.317-.253-.443-.348a.962.962 0 0 0-.222-.159c-.127-.095-.317-.253-.443-.348-.127-.095-.317-.254-.444-.349a.962.962 0 0 0-.221-.158c-.095-.095-.254-.19-.38-.285-.476-.475-1.267-1.837-1.394-3.864v-.412l.032-8.108c0 1.299-.824 2.597-2.503 3.61l-.031 8.109c0 3.23 1.013 6.936 2.85 10.42l4.15 7.823c1.868 3.484 2.882 7.19 2.85 10.42L39.59 94.51c4.245-2.533 6.335-5.827 6.335-9.121l.127-44.563c.031-.475 0-1.109-.032-1.552z" fill="#A2DFFF" opacity=".6"/><path d="M32.4 5.29h-3.99c-3.072-1.204-7.126-1.204-10.167 0h-3.927v4.307c0 1.393.918 2.755 2.787 3.8 3.61 1.996 9.312 1.964 12.764-.126 1.679-1.014 2.502-2.312 2.502-3.61V5.288h.032z" fill="#1FB1FF"/><ellipse fill="#73D4FF" transform="rotate(-89.838 23.36 5.295)" cx="23.36" cy="5.295" rx="5.226" ry="9.027"/><path fill="url(#c)" d="M33.32 30.564l-14.57 8.488-11.402-6.651 14.57-8.457z" transform="translate(5.701 46.242)"/><path fill="#1FB1FF" d="M25.18 51.88l-9.66 5.605-9.724-5.606 9.66-5.606z"/><path fill="#008AD1" d="M25.18 51.88l-.032 33.002-9.66 5.638.031-33.035z"/><path fill="#73D4FF" d="M15.52 57.485l-.032 33.035-9.724-5.638.032-33.003z"/><g transform="translate(8.235 39.907)"><path d="M18.212 4.592c2.85 1.616 1.932 4.846-2.027 7.19-3.96 2.344-9.502 2.946-12.353 1.33C.982 11.497 1.9 8.266 5.86 5.922c3.96-2.343 9.502-2.945 12.353-1.33z" fill="url(#d)"/><circle fill="#FFD036" cx="7" cy="7.031" r="6.936"/><path d="M10.705 1.172c.032 0 .032 0 0 0 2.28 1.964 2.154 5.67-.348 8.298-2.629 2.724-6.746 3.199-9.058.982a5.666 5.666 0 0 1-.792-.982A6.924 6.924 0 0 0 7 13.968a6.934 6.934 0 0 0 6.936-6.937c0-2.47-1.299-4.624-3.23-5.86z" fill="#FFC20C"/><ellipse fill="#F9E4AA" transform="rotate(-48.328 4.43 3.969)" cx="4.43" cy="3.969" rx="2.027" ry="1.552"/></g><path d="M13.873 31.482c-1.14 1.806-2.82 3.136-4.435 4.498-.791.665-1.425 1.235-1.837 2.217-.38.95-.443 2.027-.126 3.009 1.362 4.402 7.158 6.208 11.307 5.764 2.09-.222 6.08-1.552 6.398-4.117.19-1.679-.729-3.136-1.362-4.593a10.961 10.961 0 0 1-.824-2.977c-.127-.918-.032-1.837-.158-2.755-.19-1.552-.76-3.168-2.249-3.928-2.565-1.33-5.353.729-6.714 2.882z" fill-opacity=".48" fill="#E1FCFF" style="mix-blend-mode:soft-light"/><g transform="translate(20.27 62.395)"><path d="M31.99 18.307c.03 0 .03-.032.062-.032L13.144 29.202c-.76.443-2.027.602-3.61.348-1.584-.253-3.2-.855-4.53-1.615s-2.375-1.71-2.787-2.629c-.443-.918-.19-1.678.602-2.122l18.908-10.927c.76-.443 2.027-.602 3.61-.348 1.585.253 3.2.855 4.53 1.615s2.376 1.71 2.787 2.629c.444.95.159 1.71-.665 2.154z" fill="url(#e)"/><ellipse fill="#FFD7E2" transform="rotate(-89.837 8.52 4.922)" cx="8.52" cy="4.922" rx="4.878" ry="8.457"/><path d="M2.534 28.537C.855 27.587.032 26.32.032 25.053L.063 4.909c0 1.267.824 2.534 2.502 3.484 3.294 1.9 8.647 1.9 11.941 0 1.647-.95 2.439-2.185 2.439-3.42l-.032 20.143c0 1.235-.823 2.47-2.439 3.42-3.294 1.933-8.646 1.933-11.94 0z" fill="#FFB3C3"/><path d="M11.877 9.407c.95-.254 1.837-.57 2.597-1.014 1.647-.95 2.44-2.185 2.44-3.42l-.033 20.143c0 1.235-.823 2.47-2.438 3.42a9.445 9.445 0 0 1-2.598 1.014l.032-20.143z" fill="#FF8297"/></g><g><path fill="url(#f)" d="M15.583 5.1l-4.624 3.547-6.303-3.231z" transform="translate(23.438 57.96)"/><path fill="#3654EA" d="M28.949 58.246l-5.416 8.361 5.416 3.136 5.447-3.136z"/><path fill="#8D8DFF" d="M23.533 66.607l5.416 3.136V58.246z"/></g></g><path d="M316.146 24.64c-.152 4.238-3.747 9.263-5.775 11.661-1.323 1.572-2.347 1.49-4.35 1.045l-.781-9.553 10.906-3.154z" fill="#574438" fill-rule="nonzero"/><path d="M255.418 101.902c-1.13-4.188-5.106-9.253-9.558-11.966-2.535-1.546-4.563-3.083-5.623-2.287-.259.416-.507.832-.77 1.253-.16 1.281-.105 2.58.162 3.843 1.176 4.366 5.405 9.583 9.917 12.17 2.165 1.247 4.761 1.475 5.826.968.3-.294.507-1.065.822-1.36.37-.714-.406-1.241-.776-2.62z" fill="#274695" fill-rule="nonzero"/><path d="M255.403 102.572c-1.182-4.391-5.37-9.72-10.04-12.565-1.825-1.11-3.377-1.597-4.563-1.52l-9.69 12.569c-9.345-6.592-15.211-4.204-31.259-13.016l-9.75-4.7-1.577 3.635.507 1.39c11.423 12.863 22.898 19.14 34.727 27.319 3.316 2.292 7.099 3.468 11.125 3.002 3.295-.38 5.724-2.272 8.173-4.305 3.99-3.504 12.676-10.435 12.91-10.648.06-.685-.315-.243-.563-1.161z" fill="#E6AAA4" fill-rule="nonzero"/><path d="M190.202 83.426c-2.312-.852-7.966-2.064-7.966-2.064l-6.591-.603a4.98 4.98 0 0 0-1.836.172l-2.403.695c-.801.315-1.28 1.14-1.156 1.992l.264 1.83c.106.632.625 1.111 1.262 1.167l2.419-3.995h.066l1.455-.457 6.546 6.085-.801 3.427 7.656.67 4.72.37.224-4.787-3.859-4.502z" fill="#E6AAA4" fill-rule="nonzero"/><path d="M175.736 81.464l-3.341.72a1.435 1.435 0 0 0-1.106 1.353l-.09 2.825c.184.128.399.208.623.233l2.418-3.996h.066l1.455-.456 1.4 1.298.096-.3-1.52-1.677z" fill="#D4877F" fill-rule="nonzero"/><path d="M176.253 82.021l-3.6.766a1.44 1.44 0 0 0-1.105 1.354l-.096 3.042c-.015.471.06.94.218 1.384l.507 1.39 1.282.06 4.23-6.312-1.436-1.684z" fill="#E6AAA4" fill-rule="nonzero"/><path d="M176.289 85.758l1.39-2.069-.447-.507-2.961.726c-.808.2-1.451.81-1.694 1.607l-.836 3.25.03.091.396 1.1 1.18.056 1.694-3.889 1.248-.365z" fill="#D4877F" fill-rule="nonzero"/><path d="M177.845 83.583l-3.513.857c-.81.2-1.454.814-1.694 1.612l-1.47 4.914 1.42 1.465 2.535-5.775 4.725-1.085-2.003-1.988z" fill="#E6AAA4" fill-rule="nonzero"/><path d="M179.443 85.57l1.52 1.466-5.262 1.333-1.76 3.753-1.374-.112.578-2.028.862-2.657a1.39 1.39 0 0 1 .756-.847l.278-.132c1.664-.507 2.982-.415 4.27-.73l.132-.045z" fill="#D4877F" fill-rule="nonzero"/><path d="M180.441 86.255l-6.155 1.673-6.18 3.61a1.78 1.78 0 0 0-.919 1.476 1.435 1.435 0 0 0 .725 1.318c.39.223.863.253 1.278.081l5.851-2.322 6.44-.436.801-3.427-1.84-1.973z" fill="#E6AAA4" fill-rule="nonzero"/><path d="M283.468 47.066l-9.345.654a11.12 11.12 0 0 0-7.606 3.787l-.532.609c-9.411 10.79-18.974 24.612-26.509 36.786 1.126-.832 3.23-.507 5.897 1.105 4.67 2.845 8.858 8.174 10.04 12.565.39 1.445.35 2.56-.03 3.326 6.444-6.445 14.197-14.948 20.454-21.468.662-.69 1.26-1.44 1.784-2.241l4.939-7.55a15.617 15.617 0 0 1 2.926-3.321 15.526 15.526 0 0 0 5.43-10.775l.218-3.18-7.666-10.297z" fill="#0070CC" fill-rule="nonzero"/><path d="M271.973 79.055c-.294 2.373-2.358 3.58-4.325 4.503a37.521 37.521 0 0 0-6.495 3.584 34.479 34.479 0 0 0-8.838 9.467 19.268 19.268 0 0 1 3.088 5.942c.39 1.446.35 2.561-.03 3.327 6.444-6.445 14.196-14.948 20.453-21.469.399-.424.774-.87 1.126-1.333l-4.98-4.02z" fill="#005EAB" fill-rule="nonzero"/><path d="M254.86 101.025c-.116-.274-.258-.557-.395-.841-.137-.284-.218-.457-.345-.69-.208-.39-.436-.786-.68-1.181l-.187-.294a25.592 25.592 0 0 0-.938-1.385 35.14 35.14 0 0 0-1.709 3.012c-2.631 5.304-4.563 11.662-8.975 15.85.477-.37.944-.745 1.41-1.135l.948-.822.33-.279.745-.634.396-.334.862-.72.294-.244 1.211-1.014.29-.238.953-.78.405-.335.959-.781.218-.178c2.292-1.87 4.264-3.458 4.989-4.056a7.651 7.651 0 0 0-.238-1.38 12.57 12.57 0 0 0-.543-1.54z" fill="#D4877F" fill-rule="nonzero"/><path d="M297.031 397.737c-7.94 3.889-12.676 9.284-9.213 14.927 4.893 7.97 16.854 2.784 32.603-5.506l1.44.573 6.287-3.327c6.42-3.042 5.208-5.161 5.121-7.742l-.568-16.839s-.74 4.71-8.797 4.984-10.176-4.31-10.176-4.31-2.535 8.483-5.547 10.648c-3.012 2.165-11.15 6.592-11.15 6.592z" fill="#003057" fill-rule="nonzero"/><path d="M333.27 396.662c.167 2.758-6.85 6.292-13.914 9.517-6.368 2.905-19.268 11.246-27.573 8.113-4.239-1.602-4.786-3.894-4.563-5.471a4.974 4.974 0 0 0 .588 3.848c4.893 7.97 16.854 2.784 32.603-5.506l1.44.573 6.287-3.327c6.43-3.037 5.218-5.166 5.131-7.747z" fill="#004980" fill-rule="nonzero"/><path d="M253.344 372.603c-8.062 3.62-13.02 8.706-9.75 14.466 4.614 8.112 16.788 3.498 32.81-4.254l1.425.618 6.83-2.758c6.516-2.81 5.38-4.98 5.38-7.565v-16.85s-1.334 4.33-9.396 4.33c-8.062 0-10.024-4.654-10.024-4.654s-2.799 8.392-5.902 10.466c-3.103 2.073-11.373 6.2-11.373 6.2z" fill="#003057" fill-rule="nonzero"/><path d="M290.029 373.11c.076 2.763-7.494 5.704-14.659 8.685-6.465 2.688-19.709 10.445-27.887 7.028-4.183-1.744-4.65-4.056-4.366-5.618a4.954 4.954 0 0 0 .461 3.864c4.615 8.112 16.789 3.498 32.811-4.254l1.425.618 6.83-2.758c6.53-2.81 5.385-4.98 5.385-7.565z" fill="#004980" fill-rule="nonzero"/><path d="M286.621 354.547c4.761 2.748 4.787 7.205.056 9.953-4.73 2.748-11.9 2.429-16.661-.32-4.761-2.747-4.787-7.21-.056-9.958 4.73-2.748 11.895-2.423 16.661.325z" fill="#0C1F50" fill-rule="nonzero"/><path d="M334.02 382.713a5.501 5.501 0 0 1-.507 2.454c-1.36 2.956-3.28 5.755-9.249 6.44-9.659 1.1-13.274-2.465-14.572-4.685a5.73 5.73 0 0 1-.756-2.363l-10.181-102.676-4.092-32.578-4.482 23.943 1.237 83.86a7.54 7.54 0 0 1-1.065 4.056c-1.52 2.535-3.879 4.436-9.127 5.035-9.223 1.054-12.94-2.15-14.384-4.376a5.866 5.866 0 0 1-.918-2.92l-4.056-83.156c-2.242-47.814-1.557-56.403 2.95-117.177l68.35 4.436c1.567 27.67-2.799 49.802-2.799 49.802s1.567 45.03.482 67.726l3.169 102.18z" fill="#8E95B3" fill-rule="nonzero"/><path d="M272.647 182.898c22.31 15.338 55.521 4.117 58.761 0l-.856-9.802H313.15l-40.503 9.802z" fill="#888EAB" fill-rule="nonzero"/><path d="M334.02 382.713l-3.154-102.194c1.085-22.696-.482-67.726-.482-67.726s3.783-19.171 3.043-44.138l-5.487 10.78c-.258 23.866-12.28 34.007-11.063 59.526a77.354 77.354 0 0 0 6.591 27.38c1.785 4.098 5.192 8.732 4.726 13.437-.223 2.277-1.521 4.442-2.444 6.506-1.785 4.056-4.01 8.112-4.467 12.63-.467 4.599-.046 9.228.334 13.812.675 8.057 1.522 16.099 2.384 24.135.933 8.61 1.915 17.213 2.946 25.809 1.977 16.732.436 25.646-4.356 29.058.558-.035 1.11-.066 1.714-.131 5.968-.685 7.89-3.484 9.248-6.44.34-.768.5-1.604.467-2.444zM281.84 197.166a3.118 3.118 0 0 0 2.885 3.042h.32a3.113 3.113 0 0 0 3.042-3.205c-.35-12.447.887-25.757 1.455-31.036l-6.237-.35c-.618 5.608-1.825 18.822-1.465 31.549z" fill="#888EAB" fill-rule="nonzero"/><path d="M311.583 53.277c-1.982-3.387-7.453-4.62-7.453-4.62l4.964 4.255.82-.228.812.593h.857z" fill="#8CC8FF" fill-rule="nonzero"/><path d="M351.224 102.693c-3.55-19.328-3.235-30.503-17.94-38.824a176.32 176.32 0 0 0-16.494-8.422h.026s-3.59-2.104-7.885-4.72a7.94 7.94 0 0 1 2.667 2.651c-.659-.248-1.293-.507-1.957-.76-1.171-.538-3.6-1.1-3.787-3.484l-1.486 1.816c-.096.116-2.2-.604-2.45-.67-.922-.236-1.848-.463-2.778-.679a118.99 118.99 0 0 0-5.861-1.171c-5.36-.918-10.886-1.623-16.322-1.42-14.577.558-13.421 16.296-13.553 25.352-.081 5.532.471 9.842.755 15.369l.644 10.267.507 11.88c-.147 4.199-.243 13.183.061 30.093.105 6.522-.26 13.042-1.09 19.511-.269 2.495-1.07 9.938-.684 13.148 1.014 3.681 2.565 5.233 5.74 7.377 8.32 5.618 14.485 7.606 24.459 8.062 4.126.215 8.262.045 12.357-.507 7.362-1.014 14.75-3.138 20.9-7.438.289-.203.588-.431.887-.654 0 0 3.626-3.042 4.767-4.305-.508-1.982.796-39.002 1.267-54.208.325-10.48-.248-21.093-.68-31.62a6008.14 6008.14 0 0 0 17.93 13.356z" fill="#0070CC" fill-rule="nonzero"/><path d="M334.06 114.249v-.543c0-1.744-.025-3.483-.06-5.232v-.157a.228.228 0 0 1 0-.056v-.193a437.91 437.91 0 0 0-.173-5.75v-.228-.669c-.07-1.861-.142-3.722-.223-5.578l-8.584-18.405a150.085 150.085 0 0 0-1.293 15.049s-2.297 15.51-4.97 22.051a3.468 3.468 0 0 1-2.646 2.11l-21.108-2.8v.827l19.572 4.73c3.326 1.223 4.938 5.67 4.29 12.585l.572 15.323a36.507 36.507 0 0 0-.253 8.184l1.014 12.458.705 5.1a8.174 8.174 0 0 1-1.43 5.812c-.903 1.282-1.521 2.342-1.714 3.483l-.426 2.601a39.27 39.27 0 0 0 9.71-4.862c.289-.203.588-.431.887-.655 0 0 3.443-2.895 4.665-4.203v-.142-.507-3.944-1.223V168.265v-1.045-.274-.507c0-.538 0-1.095.03-1.668s0-1.161.036-1.765c0-.304 0-.618.025-.968v-.076c0-1.141.056-2.333.086-3.55v-.207c.036-1.248.066-2.536.102-3.834a.086.086 0 0 0 0-.035V154.01v-.152l.076-2.576v-.05-.213a1.374 1.374 0 0 0 0-.147v-.198l.152-5.096v-.07-.199-.172-.233c.046-1.49.096-2.982.142-4.457v-.218c.05-1.577.101-3.134.152-4.655.04-1.41.086-2.794.132-4.127.046-1.334.086-2.632.127-3.869 0-.618.035-1.222.055-1.81.041-1.171.077-2.282.107-3.316 0-.507.03-1.014.046-1.486.065-2.099.086-4.203.086-6.307l.111-.411z" fill="#005EAB" fill-rule="nonzero"/><path d="M336.504 144.332l10.861-4.173 7.048-1.613 1.521.928v4.23l-5.871 4.953-6.795.603s-2.621-1.054-2.682-1.171c-.06-.117-2.997-2.434-2.997-2.434l-1.085-1.323z" fill="#E6AAA4" fill-rule="nonzero"/><path d="M355.944 143.06c-.137 12.584-13.938 35.7-19.41 58.644 0 0-4.056 5.45-10.302-.462l5.49-33.059 1.867-13.153 3.27-11.97s1.826 3.63 10.425 3.675c7.104.036 8.66-3.676 8.66-3.676zM322.763 217.944l-1.795 3.55a2.327 2.327 0 0 1-1.921 1.267 2.317 2.317 0 0 1-2.064-1.014l-3.833-5.623 1.825-1.896 2.88 4.056.37-1.612.974-.507 3.564 1.78z" fill="#E6AAA4" fill-rule="nonzero"/><path d="M321.465 204.442a10.648 10.648 0 0 0-1.784 1.85c-2.307 3.043-2.951 4.625-4.594 6.004-1.217 1.014-2.936 2.576-3.95 3.504a1.293 1.293 0 0 0-.188 1.698 1.293 1.293 0 0 0 1.658.406c.903-.472 2.434-.629 3.752-1.48 2.226-1.43 4.6-2.962 5.07-5.3l.594-3.473 1.014-4.563-1.572 1.354z" fill="#E6AAA4" fill-rule="nonzero"/><path d="M316.141 215.678c-1.825.776-3.995 1.638-4.593 2.266.342.142.729.127 1.06-.04.902-.472 2.433-.629 3.751-1.48 2.226-1.43 4.6-2.962 5.07-5.3l.112-.628c-1.09 1.78-3.33 4.305-5.4 5.182z" fill="#D4877F" fill-rule="nonzero"/><path d="M336.545 201.719l-.507-.756-9.827.28-3.884 2.702a5.476 5.476 0 0 0-2.25 3.428l-1.862 9.289 1.521 2.19 13.898-10.247 2.91-6.886zM334.542 214.72l-1.136 3.316a1.683 1.683 0 0 1-1.085 1.064 1.704 1.704 0 0 1-2.028-.836l-.847-1.638 1.699-1.369.948-.913 2.449.376z" fill="#E6AAA4" fill-rule="nonzero"/><path d="M329.923 216.444l-1.014 3.042a2.535 2.535 0 0 1-1.704 1.648 2.535 2.535 0 0 1-2.48-.614l-1.308-1.273 2.216-3.742 4.29.939z" fill="#E6AAA4" fill-rule="nonzero"/><path d="M327.966 217.047l-2.617-1.014-1.921 3.25 1.308 1.273c.345.328.775.553 1.242.649.119-.14.22-.296.3-.462l1.688-3.696z" fill="#D4877F" fill-rule="nonzero"/><path d="M326.663 217.66l-1.689 3.682a2.241 2.241 0 0 1-1.977 1.308 2.251 2.251 0 0 1-1.973-1.075l-.42-.69 2.616-4.563 3.443 1.338z" fill="#E6AAA4" fill-rule="nonzero"/><path d="M322.763 217.944l-1.79 3.55.051.08c.086.142.188.273.304.391.064-.078.123-.159.178-.243l1.79-3.55-.533-.228z" fill="#D4877F" fill-rule="nonzero"/><path d="M327.099 195.949c-.594 3.093-2.465 5.542-4.057 7.144a5.45 5.45 0 0 0-1.247 5.679l10.349-5.481 1.424-3.839-.654-2.449-5.815-1.054z" fill="#E6AAA4" fill-rule="nonzero"/><path d="M336.545 201.719l-.183 4.792a20.905 20.905 0 0 1-1.014 5.638l-.826 2.57-7.88 2.941-6.916 1.192 2.297-11.2 5.659-4.346 8.863-1.587zM344.085 74.705c.01.028.021.055.035.08 2.419 5.837 3.068 11.592 4.107 17.88 1.11 6.692 2.804 13.426 3.985 20.306 2.176 12.707 3.955 25.16 3.955 25.16s-.507 4.908-8.929 6.83c-7.331 1.886-10.724-.675-10.724-.675s-3.513-18.152-5.359-27.801c-1.815-9.477-5.415-20.789-6.156-35.914-.283-5.755 4.432-9.67 7.383-10.237 4.74-.913 9.619-.522 11.703 4.37z" fill="#E6AAA4" fill-rule="nonzero"/><path d="M356.167 138.13s-1.78-12.452-3.955-25.159c-.43-2.5-.927-4.984-1.44-7.448l-8.518 1.227c-1.267 27.887 16.271 25.448 13.041 40.796l.127.127c.705-3.285 1.13-6.723.745-9.542z" fill="#D4877F" fill-rule="nonzero"/><path d="M349.104 91.082c-.507-2.718-1.1-5.4-1.698-8.062-1.065-4.761-4.72-12.869-8.62-15.1a9.248 9.248 0 0 0-9.573 0c-7.068 4.26-6.51 15.384-4.959 22.31.507 2.176.77 4.61 2.474 13.183a3612.314 3612.314 0 0 0 4.143 20.591s2.596 6.82 13.421 4.168c9.482-2.327 9.923-8.138 9.923-8.138s-2.373-14.486-5.11-28.952z" fill="#0070CC" fill-rule="nonzero"/><path d="M267.567 54.342c3.387 5.03 11.109 5.385 16.53 4.984 7.468-.548 15.611-.892 22.553 2.535 4.913 2.414 10.323 4.777 14.836 7.707 4.056 2.627 7.869 1.902 12.356 1.41 3.514-.38 7.92-.365 10.141 2.905-2.271-3.838-5.552-7.098-10.698-10.019a184.731 184.731 0 0 0-16.47-8.442s-3.59-2.104-7.884-4.72a8.067 8.067 0 0 1 2.642 2.59v.061c-.66-.248-1.293-.507-1.957-.76-1.172-.538-3.6-1.1-3.788-3.484l-1.485 1.815c-.198.239-4.96-1.288-5.517-1.414-2.094-.472-4.198-.832-6.308-1.227a71.23 71.23 0 0 0-15.586-1.298c-2.369.02-4.697.615-6.784 1.734a9.127 9.127 0 0 0-2.723 2.21c-.877 1.177-.654 2.231.142 3.413z" fill="#006EC7" fill-rule="nonzero"/><path d="M303.77 49.013c3.853 2.302 3.838 6.318-.046 8.96-3.884 2.64-10.14 2.925-14.015.618-3.874-2.307-3.823-6.318.061-8.965 3.884-2.646 10.151-2.92 14-.613z" fill="#E29D9C" fill-rule="nonzero"/><path d="M307.395 47.654c-.107 4.26 1.942 4.852 3.985 5.577a.274.274 0 0 1 .178.32c-.29 1.394-2.094 8.518-8.62 8.751-7.21.264-14.152-4.36-14.152-4.36l8.498-4.695 10.11-5.593z" fill="#E29D9C" fill-rule="nonzero"/><path d="M307.395 47.654c.046-.507.086-.969.117-1.44.065-1.07.116-2.094.177-3.113.446-3.61.842-6.328.923-6.87 0-.046 0-.087.025-.133.127-.299 1.846-4.441 3.55-9.562l-25.408 10.14.096 16.976c-.233 1.521.416 3.093 1.932 4.315l.055.04c.268.214.549.408.842.584.368.208.749.39 1.141.547 2.586 1.354 7.281 3.367 12.113 3.19 6.425-.228 8.26-7.19 8.585-8.701a.33.33 0 0 0-.213-.385c-2.034-.746-4.062-1.36-3.935-5.588z" fill="#DE938A" fill-rule="nonzero"/><path d="M307.41 47.654c.046-.507.086-.969.117-1.44.066-1.075.116-2.094.177-3.113.446-3.61.842-6.328.923-6.87 0-.046 0-.087.025-.133.071-.157.589-1.414 1.319-3.326l-3.306-1.572-6.44 1.238-10.105 11.606c2.337 7.534 13.396-.37 14.248 6.865.436 3.747.177 7.743.228 11.155 3.778-1.602 6.135-6.642 6.805-8.24a.507.507 0 0 0-.295-.674c-1.947-.705-3.797-1.425-3.696-5.496z" fill="#D1877D" fill-rule="nonzero"/><path d="M190.207 88.902l-6.951.608.613 2.389c2.855.248 3.265 1.196 2.83 2.57-.437 1.374-2.196 2.175-2.465 3.823-.284 1.75 1.765 1.364 2.535.69a19.82 19.82 0 0 1 3.64-2.419 6.45 6.45 0 0 0 1.015-.933 3.29 3.29 0 0 1 4.234-.167l1.582 1.146-.29-4.71-6.743-2.997z" fill="#E6AAA4" fill-rule="nonzero"/><path d="M317.855 218.3l-.355 1.455-.841-1.228c.15-.374.51-.622.912-.633l.284.405z" fill="#D4877F" fill-rule="nonzero"/><path d="M284.497 52.45c-.938 3.322 1.318 6.217 4.056 7.86 2.92 1.744 6.546 2.631 9.918 2.885 2.905.218 5.958-.03 8.62-1.232a10.293 10.293 0 0 0 4.056-3.19 4.71 4.71 0 0 0 .365-5.496c-.223-.081-.461-.284-.68-.365-.329-.117-.724-.178-1.06-.294 1.208 2.23.543 4.979-2.316 6.926-4.006 2.728-13.69 1.405-17.66-.973-3.97-2.378-3.94-6.51.06-9.239.697-.453 1.442-.829 2.221-1.12-1.24-.203-2.515-.39-3.823-.558-1.653 1.242-3.25 2.986-3.757 4.797z" fill="#8CC8FF" fill-rule="nonzero"/><path d="M280.679 16.45c-3.91 4.68-1.572 12.028 2.682 14.984l4.67-2.586-1.12-13.143-6.232.745z" fill="#30261F" fill-rule="nonzero"/><path d="M313.86 12.136c-2.414-5.973-9.335-9.401-17.194-8.575-7.758.812-11.495 6.993-11.495 6.993l-.43.72a14.025 14.025 0 0 0-1.938 6.206l-.867 2.297a11.865 11.865 0 0 0-.755 4.64l.06 1.414c.051.937-.024 1.876-.222 2.794-.36 1.559-.4 3.175-.117 4.75l.821 4.564 1.253 5.78c.3 1.51 1.06 2.89 2.175 3.95a7.286 7.286 0 0 0 8.047 1.278l10.328-4.797a5.07 5.07 0 0 0 2.83-3.615l1.191-6.115a34.357 34.357 0 0 0 3.701-2.976c4.457-4.133 5.046-13.335 2.612-19.308z" fill="#E6AAA4" fill-rule="nonzero"/><path d="M303.526 43.357a5.07 5.07 0 0 0 2.83-3.615l1.191-6.115a34.357 34.357 0 0 0 3.701-2.976c1.78-1.648 2.936-4.112 3.55-6.85v-6.313l-10.684 1.207c-2.413 7.25 0 13.117-1.206 15.88-1.207 2.764-8.316 4.467-9.163 7.763-.461 1.75-1.212 4.27-1.815 6.252.436-.103.86-.25 1.268-.436l10.328-4.797z" fill="url(#g)" fill-rule="nonzero" opacity=".42" transform="translate(0 .778)"/><path d="M306.082 35.257a.603.603 0 0 1-.842-.553v-2.398a2.865 2.865 0 0 0-1.014-2.211l-3.428-2.875a2.687 2.687 0 0 1-.902-2.611l.725-3.484c-5.552 3.651-25.97 2.723-21.337-8.33.888-2.115 3.61-5.197 8.554-8.235 0 0 6.15-3.382 11.039-3.706 4.112-.274 7.418.218 10.81 2.738 7.098 5.278 8.112 14.932 6.023 22.98-.831 3.204-5.07 9.278-5.07 9.278l.147-2.535-4.705 1.942z" fill="#574438" fill-rule="nonzero"/><path d="M316.136 24.64c-5.4 1.55-4.852-9.417-10.876-7.693-3.072.883-6.034 2.176-9.228 2.566a10.394 10.394 0 0 1-6.252-1.014 8.493 8.493 0 0 1-2.905-2.94c-.898-1.375-1.521-3.423-3.509-3.358-3.159.107-3.21 4.214-2.631 6.4.185.712.449 1.403.786 2.058 5.07 3.296 15.393 2.905 19.1.471l-.725 3.479a2.687 2.687 0 0 0 .907 2.621l3.423 2.865c.65.55 1.021 1.36 1.014 2.21v2.78a.365.365 0 0 0 .507.339l7.443-2.946c1.522-2.398 2.88-5.263 2.972-7.839h-.026z" fill="#574438" fill-rule="nonzero"/><path d="M288.776 4.068c-10.333.65-11.936 9.056-10.277 13.184 1.658 4.127 4.056.507 4.056.507l6.211-3.474.01-10.217z" fill="#574438" fill-rule="nonzero"/><path d="M307.816 30.15a4.056 4.056 0 0 1 2.783-3.254c3.91-.938 2.495 4.41 1.42 6.17-1.075 1.76-4.365 3.651-4.675 1.795l.472-4.71z" fill="#E6AAA4" fill-rule="nonzero"/><path d="M309.19 29.049c1.384-1.552 2.418-1.121 2.657-.3.238.822-.801 4.401-3.129 4.29l.472-3.99z" fill="url(#h)" fill-rule="nonzero" transform="translate(0 .778)"/><path d="M231.719 100.29l-.599.776c3.737 2.657 7.19 6.231 7.743 12.022a.507.507 0 1 0 .963-.086c-.659-6.607-5.065-10.537-8.107-12.712zM350.58 147.181a.507.507 0 0 0-.568-.36c-1.17.222-2.36.322-3.55.3a19.82 19.82 0 0 1-7.54-1.329 8.488 8.488 0 0 1-2.418-1.48l-.284 1.014a10.03 10.03 0 0 0 2.323 1.348c2.099.893 4.756 1.354 7.89 1.385h.116a18.254 18.254 0 0 0 3.66-.325.477.477 0 0 0 .37-.553z" fill="#D4877F" fill-rule="nonzero"/><g opacity=".89" fill-rule="nonzero"><path d="M488.333 194.093a1.638 1.638 0 0 1-.725-1.293c0-.482.33-.695.73-.461l30.24 17.457c.435.295.705.778.725 1.303 0 .482-.33.685-.73.457l-30.24-17.463m.457-6.166a2.601 2.601 0 0 1-1.141-2.028v-2.535c0-.766.507-1.085 1.146-.72a2.586 2.586 0 0 1 1.15 2.028v2.535c0 .766-.506 1.085-1.155.72m29.408 16.971a2.576 2.576 0 0 1-1.14-2.028v-2.606c0-.766.506-1.09 1.15-.725a2.586 2.586 0 0 1 1.146 2.028v2.611c0 .766-.507 1.085-1.156.72m-14.704-8.483a2.601 2.601 0 0 1-1.151-2.028v-6.363c0-.771.507-1.09 1.156-.725a2.611 2.611 0 0 1 1.146 2.053v6.364c0 .77-.507 1.09-1.151.725m-7.352-4.244a2.58 2.58 0 0 1-1.141-2.028v-8.808c0-.765.507-1.09 1.15-.725a2.611 2.611 0 0 1 1.147 2.054v8.807c0 .766-.507 1.085-1.156.72m14.704 8.483a2.591 2.591 0 0 1-1.146-2.028l.036-12.088c0-.76.507-1.08 1.156-.715a2.601 2.601 0 0 1 1.14 2.028l-.035 12.088c0 .766-.507 1.085-1.151.72m16.565-16.677l-47.662-27.527c-1.38-.796-2.535-.091-2.535 1.577l-.112 39.245c.07 1.802 1 3.46 2.5 4.462l47.662 27.527c1.39.801 2.535.102 2.535-1.566l.112-39.246a5.654 5.654 0 0 0-2.5-4.472" fill="#CCF0FF"/><path d="M518.198 199.539c-.634-.365-1.15-.04-1.15.725v2.606c.035.82.459 1.572 1.14 2.028.634.365 1.151.046 1.156-.72v-2.611a2.586 2.586 0 0 0-1.146-2.028M503.494 187.273c-.639-.365-1.156-.045-1.156.725v6.364c.042.82.469 1.571 1.15 2.028.635.365 1.152.046 1.152-.725V189.3a2.611 2.611 0 0 0-1.146-2.053M510.866 185.803c-.639-.365-1.156-.046-1.156.715l-.035 12.088c.04.82.464 1.571 1.146 2.028.633.365 1.15.046 1.15-.72l.036-12.088a2.601 2.601 0 0 0-1.14-2.028M488.79 182.603c-.63-.365-1.146-.045-1.146.72v2.536c.04.818.462 1.57 1.14 2.028.64.365 1.157.045 1.157-.72v-2.535a2.586 2.586 0 0 0-1.151-2.029M496.157 180.59c-.639-.365-1.151-.04-1.151.726v8.807a2.58 2.58 0 0 0 1.14 2.028c.64.365 1.152.046 1.157-.72v-8.807a2.611 2.611 0 0 0-1.146-2.054M518.578 209.796l-30.24-17.457c-.4-.234-.725 0-.73.461.022.522.291 1.002.725 1.293l30.24 17.463c.4.228.73.025.73-.457a1.653 1.653 0 0 0-.725-1.303" fill="#5DB4E2"/></g><path d="M44.113 130.926a17.711 17.711 0 0 1-1.41-6.622c0-5.897 3.996-8.382 8.894-5.578 4.898 2.804 8.853 9.893 8.837 15.79-.015 5.896-4 8.376-8.898 5.552a14.243 14.243 0 0 1-2.566-1.942l2.596-8.732-2.596 8.732a21.052 21.052 0 0 1-4.857-7.2m23.1-14.01l-31.172-18c-1.263-.73-2.287-.091-2.292 1.43l-.107 37.521a5.141 5.141 0 0 0 2.277 4.056l31.173 18c1.262.725 2.292.092 2.297-1.435l.106-37.52a5.141 5.141 0 0 0-2.281-4.057" fill="#4EC2FF" fill-rule="nonzero"/><path d="M51.612 118.752l-.03 10.647-2.597 8.732c.78.742 1.64 1.393 2.566 1.942 4.898 2.824 8.883.34 8.899-5.552.015-5.892-3.94-12.96-8.838-15.79" fill="#FF8297" fill-rule="nonzero" opacity=".72"/><path d="M51.612 118.752c-4.898-2.83-8.878-.345-8.894 5.577a17.711 17.711 0 0 0 1.395 6.597l7.453-1.522.03-10.647" fill="#F6E7A2" fill-rule="nonzero" opacity=".94"/><path d="M51.582 129.42l-7.454 1.52a21.052 21.052 0 0 0 4.857 7.226l2.597-8.731" fill="#0082C4" fill-rule="nonzero" opacity=".69"/><path d="M212.167 212.823a3.914 3.914 0 0 1-1.76-3.072v-8.803c0-1.14.797-1.597 1.775-1.014a3.894 3.894 0 0 1 1.765 3.083v8.802c0 1.131-.801 1.592-1.785 1.014m-26.315-15.21a3.93 3.93 0 0 1-1.77-3.074l.066-23.38c0-1.135.806-1.591 1.785-1.013a3.935 3.935 0 0 1 1.77 3.082l-.072 23.375c0 1.13-.8 1.587-1.78 1.014m103.488 39.707l.091-.137c3.626-5.578 7.378-11.373 14.999-6.972 11.018 6.358 14.83 25.281 15.013 26.103l-2.652-.73c-.035-.173-3.422-17.037-12.341-22.189-5.618-3.245-8.782.903-11.956 5.745l17.462 10.075v3.169l-18.978-10.957c-3.418 5.177-7.205 9.816-14.365 5.684-9.03-5.218-12.843-18.046-13.604-24.095l2.718 1.065c0 .142 1.927 14.669 10.896 19.85 5.182 2.987 8.3-.096 11.211-4.32l-13.386-7.727v-3.169l14.897 8.62m-89.828-31.837a3.9 3.9 0 0 1-1.77-3.073l.097-34.6c0-1.131.796-1.593 1.78-1.015a3.889 3.889 0 0 1 1.764 3.068l-.086 34.59c0 1.131-.801 1.592-1.775 1.014m67.047-38.814a3.904 3.904 0 0 1-1.765-3.077c0-1.136.801-1.593 1.775-1.015l49.63 28.653a3.93 3.93 0 0 1 1.769 3.073c0 1.141-.806 1.597-1.785 1.014l-49.624-28.653m.035-15.814a3.92 3.92 0 0 1-1.764-3.073c0-1.141.8-1.597 1.774-1.014l49.63 28.648a3.95 3.95 0 0 1 1.77 3.088c0 1.13-.807 1.587-1.785 1.014l-49.625-28.663m39.043 7.844a3.904 3.904 0 0 1-1.765-3.078c0-1.13.796-1.602 1.775-1.04l10.622 6.136a3.95 3.95 0 0 1 1.77 3.082c0 1.131-.806 1.598-1.785 1.014l-10.617-6.135m41.73 48.676c-2.358-1.359-4.265-4.685-4.26-7.418l.056-18.76c0-2.738 1.927-3.849 4.284-2.49l16.271 9.396c2.363 1.364 4.26 4.68 4.255 7.418l-.056 18.76c0 2.733-1.917 3.854-4.28 2.49l-16.266-9.36M154.197 95.34a32.35 32.35 0 0 1-2.728-12.361c.03-10.947 7.712-15.404 17.158-9.949 9.447 5.456 17.083 18.761 17.052 29.698-.03 10.937-7.717 15.399-17.163 9.943a27.538 27.538 0 0 1-4.949-3.701l5.005-16.12-5.005 16.12a40.188 40.188 0 0 1-9.37-13.63m236.982 72L140.259 22.49c-4.128-2.383-7.49-.43-7.505 4.36l-.066 23.984v4.98l-.35 125.98c0 4.79 3.326 10.612 7.454 12.995L390.667 339.63c4.132 2.388 7.494.436 7.509-4.356l.081-29.408-37.45-21.62a4.746 4.746 0 0 1-2.145-3.738c0-1.374.974-1.926 2.16-1.242l37.45 21.62.34-120.57c0-4.79-3.326-10.612-7.459-13" fill="#CCF0FF" fill-rule="nonzero" opacity=".71"/><path d="M316.283 160.73l-10.622-6.136c-.979-.562-1.77-.09-1.775 1.04a3.904 3.904 0 0 0 1.765 3.078l10.617 6.135c.979.563 1.78.096 1.785-1.014a3.95 3.95 0 0 0-1.77-3.083M316.243 175.409l-49.63-28.648c-.973-.563-1.77-.107-1.774 1.014a3.92 3.92 0 0 0 1.764 3.088l49.625 28.647c.978.568 1.78.112 1.784-1.014a3.95 3.95 0 0 0-1.77-3.087M316.197 191.243l-49.63-28.653c-.973-.562-1.769-.106-1.774 1.015a3.904 3.904 0 0 0 1.765 3.077l49.624 28.653c.979.563 1.78.107 1.785-1.014a3.93 3.93 0 0 0-1.77-3.072" fill="#5CC6FF" fill-rule="nonzero" opacity=".829"/><path d="M212.208 199.914c-.979-.563-1.775-.107-1.775 1.014v8.802a3.914 3.914 0 0 0 1.76 3.073c.983.568 1.78.106 1.784-1.014v-8.802a3.894 3.894 0 0 0-1.764-3.083M199.618 166.814c-.984-.568-1.775-.106-1.78 1.014l-.091 34.611a3.9 3.9 0 0 0 1.77 3.073c.973.562 1.769.101 1.774-1.014l.096-34.601a3.889 3.889 0 0 0-1.764-3.068M185.933 170.13c-.979-.563-1.78-.106-1.785 1.014l-.066 23.38a3.93 3.93 0 0 0 1.77 3.073c.978.563 1.78.106 1.78-1.014l.07-23.375a3.935 3.935 0 0 0-1.77-3.078" fill="#1FB1FF" fill-rule="nonzero" opacity=".446"/><path d="M355.534 204.102c-3.002-1.734-5.43-5.973-5.42-9.456.01-3.484 2.453-4.914 5.46-3.174 3.007 1.739 5.44 5.942 5.44 9.436 0 3.493-2.453 4.908-5.47 3.169m8.199-15.952l-16.282-9.375c-2.357-1.359-4.279-.249-4.284 2.49l-.056 18.76c0 2.733 1.902 6.06 4.26 7.418l16.27 9.36c2.363 1.364 4.275.244 4.28-2.49l.056-18.76c0-2.738-1.892-6.054-4.255-7.418" fill="#5CC6FF" fill-rule="nonzero" opacity=".446"/><path d="M355.574 191.426c-3.007-1.74-5.45-.32-5.46 3.174-.01 3.494 2.418 7.722 5.42 9.456 3.001 1.735 5.46.315 5.47-3.169.01-3.483-2.418-7.722-5.43-9.461" fill="#DBF5FF" fill-rule="nonzero" opacity=".85"/><path d="M168.551 73.021l-.055 19.82-5.005 16.12a27.538 27.538 0 0 0 4.949 3.7c9.44 5.457 17.133 1.015 17.163-9.942.03-10.957-7.605-24.247-17.052-29.698" fill="#F6FCFF" fill-rule="nonzero" opacity=".881"/><path d="M168.551 73.021c-9.446-5.455-17.128-1.014-17.158 9.948a32.253 32.253 0 0 0 2.748 12.362l14.375-2.49.056-19.82" fill="#1FB1FF" fill-rule="nonzero" opacity=".79"/><path d="M168.496 92.842l-14.355 2.49a40.188 40.188 0 0 0 9.37 13.629l5.005-16.12" fill="#ABE5FF" fill-rule="nonzero" opacity=".79"/><path d="M265.69 224.1l-2.717-1.065c.76 6.05 4.563 18.877 13.604 24.095 7.16 4.132 10.947-.507 14.364-5.684l-3.143-1.815c-2.91 4.223-6.029 7.306-11.211 4.32-8.97-5.182-10.881-19.71-10.896-19.851m38.717 6.125c-7.605-4.401-11.373 1.384-14.998 6.972l-.091.137 3.123 1.805c3.174-4.842 6.338-8.99 11.956-5.745 8.92 5.152 12.306 22.016 12.342 22.188l2.697.746c-.157-.807-3.97-19.73-14.983-26.088" fill="#1FB1FF" fill-rule="nonzero" opacity=".72"/><path fill="#1FB1FF" fill-rule="nonzero" opacity=".72" d="M309.95 249.234l-17.488-10.095-3.123-1.805-14.897-8.6-.01 3.17 13.386 7.727 3.144 1.815 18.978 10.957.01-3.169"/><path d="M132.688 50.833L111.62 38.664c-1.18-.684-2.144-.127-2.15 1.258a4.736 4.736 0 0 0 2.135 3.721l21.068 12.17v-4.98M410.477 307.96l-12.205-7.048v4.979l12.205 7.048c1.186.684 2.155.132 2.16-1.252a4.74 4.74 0 0 0-2.145-3.727" fill="#FFF" fill-rule="nonzero" opacity=".53"/><path d="M398.272 300.912l-37.45-21.62c-1.186-.685-2.16-.132-2.16 1.242a4.746 4.746 0 0 0 2.145 3.737l37.45 21.62v-4.98" fill="#E1F6FF" fill-rule="nonzero" opacity=".78"/><path d="M218.88 341.181c-1.374-.436-1.759-.121-1.759.969a4.056 4.056 0 0 0 1.75 3.118v-4.087m1.084-5.577v3.762c1.395.466 1.704.066 1.704-.928a3.696 3.696 0 0 0-1.694-2.834m-50.106-9.076a3.042 3.042 0 0 1-1.343-2.404c0-.892.608-1.272 1.354-.841l29.317 16.925a3.042 3.042 0 0 1 1.343 2.403c0 .898-.608 1.273-1.353.842l-29.318-16.925m.036-12.504a3.042 3.042 0 0 1-1.344-2.403c0-.898.609-1.273 1.354-.842l29.317 16.925a3.042 3.042 0 0 1 1.344 2.403c0 .893-.608 1.278-1.354.847l-29.353-16.93m45.513 21.007c.197-2.257 1.47-2.804 3.519-1.856v-1.729l1.064.613v1.714c2.155 1.42 3.55 3.818 3.55 5.938 0 2.423-1.232 2.753-3.585 1.87v4.3c1.521.64 1.86-.207 1.993-1.374l1.962 1.136c-.157 2.216-1.248 3.448-3.96 2.104v2.414l-1.065-.614v-2.413c-2.332-1.521-3.701-4.107-3.696-6.338 0-2.581 1.374-2.748 3.721-1.85v-3.915c-.968-.365-1.46 0-1.637 1.08l-1.876-1.08m-24.207-20.343a3.042 3.042 0 0 1-1.343-2.403c0-.898.603-1.273 1.348-.842l8.088 4.665a3.042 3.042 0 0 1 1.343 2.403c0 .893-.608 1.273-1.353.842l-8.083-4.665m45.69 6.592l-80.255-46.344c-1.48-.857-2.682-.106-2.687 1.673l-.147 52.652a6.019 6.019 0 0 0 2.667 4.76l80.244 46.33c1.476.851 2.683.1 2.688-1.669l.147-52.651a6.024 6.024 0 0 0-2.667-4.766" fill="#8ADE89" fill-rule="nonzero" opacity=".48"/><path d="M218.87 345.268a4.056 4.056 0 0 1-1.749-3.118c0-1.09.385-1.405 1.76-.969v4.087m1.084-5.917v-3.762a3.696 3.696 0 0 1 1.694 2.834c0 1.014-.31 1.394-1.704.928m0-7.292l-1.064-.613v1.729c-2.029-.948-3.322-.4-3.52 1.856l1.877 1.08c.177-1.065.669-1.445 1.637-1.08v3.914c-2.347-.897-3.716-.73-3.721 1.85 0 2.232 1.364 4.808 3.696 6.339v2.413l1.065.614v-2.414c2.713 1.344 3.803.112 3.96-2.104l-1.962-1.136c-.132 1.167-.482 2.029-1.993 1.374v-4.3c2.353.883 3.575.553 3.585-1.87 0-2.12-1.405-4.518-3.55-5.938v-1.714" fill="#3BD093" fill-rule="nonzero"/><path d="M199.238 316.108l-8.083-4.665c-.745-.43-1.348-.056-1.348.842.04.97.54 1.863 1.348 2.403l8.083 4.665c.745.431 1.348.05 1.353-.842a3.042 3.042 0 0 0-1.343-2.403M199.202 327.704l-29.317-16.925c-.746-.431-1.354-.056-1.354.842.039.97.538 1.862 1.344 2.403l29.317 16.93c.745.431 1.354.046 1.354-.847a3.042 3.042 0 0 0-1.344-2.403M199.167 340.208l-29.308-16.925c-.745-.431-1.353-.051-1.353.841.039.97.538 1.863 1.343 2.404l29.318 16.925c.745.43 1.353.056 1.353-.842a3.042 3.042 0 0 0-1.343-2.403" fill="#FFF" fill-rule="nonzero"/><path d="M204.04 218.223L75.853 292.556M171.928 111.05l-72.132 41.917a7.383 7.383 0 0 1-7.458 0L71.6 140.722" stroke="#3884E2" stroke-linecap="round" stroke-linejoin="round" stroke-dasharray="0,5"/><path d="M58.016 303.128l-3.093 1.8a3.747 3.747 0 0 0 3.26.04c.827-.482.872-.923-.167-1.84m3.681-3.316a3.397 3.397 0 0 0-3.042-.117c-.75.441-.893.852.172 1.775l2.845-1.658m2.773 3.427l-1.785-1.014c.72-.608.756-1.171 0-1.785l-2.96 1.724c1.885 1.486 2.458 2.657.506 3.788-1.688.984-4.35 1.014-6.708-.188l-1.825 1.06-1.014-.588 1.825-1.06c-2.408-1.587-2.028-2.997-.43-4.097l1.865 1.08c-.821.614-1.278 1.268 0 2.196l3.255-1.892c-1.87-1.52-2.256-2.621-.42-3.686 1.602-.933 4.147-.852 6.322.254l1.318-.771 1.015.583-1.319.766c1.77 1.227 2.028 2.484.4 3.63m-4.42-15.718c-1.867-1.08-4.828-1.11-6.618-.071l-21.508 12.483c-1.79 1.014-1.724 2.753.142 3.833l23.674 13.69c1.865 1.08 4.832 1.111 6.591.072l21.514-12.524c1.79-1.014 1.724-2.754-.142-3.834l-23.674-13.69" fill="#ACDEAB" fill-rule="nonzero" opacity=".54"/><path d="M54.923 304.928l3.093-1.8c1.014.917 1.014 1.358.167 1.84a3.747 3.747 0 0 1-3.26-.04m3.93-3.458c-1.065-.923-.923-1.334-.173-1.775a3.397 3.397 0 0 1 3.042.117l-2.87 1.642m5.542-3.194l-1.303.755c-2.175-1.105-4.72-1.186-6.322-.253-1.836 1.065-1.45 2.185.42 3.686l-3.255 1.891c-1.257-.927-.8-1.582 0-2.195l-1.866-1.08c-1.607 1.1-1.977 2.51.431 4.097l-1.825 1.06 1.014.588 1.825-1.06c2.358 1.192 5.02 1.171 6.709.188 1.947-1.131 1.374-2.302-.508-3.788l2.962-1.724c.775.614.74 1.176 0 1.785l1.784 1.014c1.608-1.146 1.37-2.403-.4-3.63l1.318-.766-1.014-.583" fill="#36BD85" fill-rule="nonzero" opacity=".86"/><g opacity=".68"><path d="M504.64 84.693l-77.907 45.274a8.478 8.478 0 0 0 .076 14.705l45.912 26.051" stroke="#3884E2" stroke-linecap="round" stroke-linejoin="round" stroke-dasharray="0,5"/><path d="M519.167 74.852l-2.693 1.566a3.26 3.26 0 0 0 2.84.036c.72-.42.76-.806-.147-1.602m3.21-2.89a2.94 2.94 0 0 0-2.627-.102c-.654.38-.781.74.142 1.521l2.484-1.44m2.414 2.987l-1.552-.898c.624-.507.654-1.014 0-1.556l-2.58 1.52c1.642 1.299 2.144 2.318.445 3.302-1.47.857-3.787.877-5.846-.163l-1.587.923-.882-.507 1.587-.923c-2.094-1.384-1.775-2.61-.375-3.549l1.627.938c-.715.538-1.115 1.11 0 1.917l2.835-1.648c-1.628-1.308-1.962-2.287-.365-3.215 1.4-.811 3.615-.74 5.511.223l1.136-.659.887.507-1.15.664c1.52 1.07 1.754 2.165.35 3.164m-3.85-13.69a6.363 6.363 0 0 0-5.77-.06l-18.704 10.865c-1.557.908-1.521 2.404.127 3.342l20.626 11.91a6.368 6.368 0 0 0 5.765.061l18.705-10.871c1.557-.908 1.521-2.403-.127-3.341l-20.621-11.906" fill="#ACDEAB" fill-rule="nonzero" opacity=".54"/><path d="M516.474 76.418l2.693-1.566c.907.796.867 1.181.147 1.602a3.26 3.26 0 0 1-2.84-.036m3.418-3.042c-.923-.8-.796-1.16-.142-1.52a2.94 2.94 0 0 1 2.626.1l-2.484 1.44m4.811-2.793l-1.135.659c-1.897-.964-4.112-1.014-5.512-.223-1.597.928-1.262 1.906.365 3.214l-2.834 1.648c-1.095-.806-.695-1.379 0-1.916l-1.628-.938c-1.4.958-1.719 2.185.375 3.549l-1.587.923.883.507 1.587-.923c2.058 1.014 4.375 1.014 5.846.162 1.699-.983 1.197-2.003-.446-3.3l2.58-1.522c.675.538.645 1.014 0 1.557l1.552.897c1.405-1.014 1.197-2.094-.35-3.164l1.151-.664-.887-.507" fill="#36BD85" fill-rule="nonzero" opacity=".86"/><path d="M493.399 128.882l11.743-6.779c1.08-.624 1.07-1.643 0-2.271a4.325 4.325 0 0 0-3.92 0l-11.738 6.779c-1.08.623-1.08 1.648 0 2.276a4.345 4.345 0 0 0 3.93 0" fill="#ACDEAB" fill-rule="nonzero" opacity=".54"/></g><path d="M4.74 262.184l11.744-6.78c1.075-.623 1.065-1.642 0-2.27a4.325 4.325 0 0 0-3.92 0L.807 259.876c-1.075.623-1.075 1.648 0 2.276a4.345 4.345 0 0 0 3.93 0M126.852 401.048l20.312-11.824c1.08-.624 1.08-1.638 0-2.267a4.31 4.31 0 0 0-3.92 0l-20.311 11.824c-1.08.624-1.085 1.643 0 2.277a4.325 4.325 0 0 0 3.92 0M435.86 268.775l22.461-12.955c1.08-.623 1.075-1.637 0-2.266a4.31 4.31 0 0 0-3.92 0l-22.461 12.955c-1.08.624-1.085 1.643 0 2.277a4.325 4.325 0 0 0 3.92 0" fill="#5CC6FF" fill-rule="nonzero" opacity=".79"/></g></svg>