<svg id="Layer_1" data-name="Layer 1" xmlns="http://www.w3.org/2000/svg" xmlns:xlink="http://www.w3.org/1999/xlink" viewBox="0 0 150 150"><defs><style>.cls-1,.cls-11,.cls-12{fill:none;}.cls-2{clip-path:url(#clip-path);}.cls-3{opacity:0.12;}.cls-4{clip-path:url(#clip-path-2);}.cls-5{clip-path:url(#clip-path-3);}.cls-6{fill:#0d1641;}.cls-7{clip-path:url(#clip-path-4);}.cls-8{clip-path:url(#clip-path-5);}.cls-9{fill:#fff;}.cls-10{fill:#29abe2;}.cls-11{stroke:#29abe2;}.cls-11,.cls-12{stroke-miterlimit:10;stroke-width:2px;}.cls-12{stroke:#fff;}</style><clipPath id="clip-path"><path class="cls-1" d="M411.23038,268A6.76962,6.76962,0,0,1,418,274.76962V418.197H267.803V274.76962"/></clipPath><clipPath id="clip-path-2"><rect class="cls-1" x="38.49468" y="194.62133" width="498.74566" height="498.74566" rx="22.47928"/></clipPath><clipPath id="clip-path-3"><rect class="cls-1" width="150" height="150"/></clipPath><clipPath id="clip-path-4"><path class="cls-1" d="M143.23038-4A6.76962,6.76962,0,0,1,150,2.76962V146.197H-.197V2.76962"/></clipPath><clipPath id="clip-path-5"><rect class="cls-1" x="-229.50532" y="-77.37867" width="498.74566" height="498.74566" rx="22.47928"/></clipPath></defs><title>smlcse</title><g class="cls-5"><rect class="cls-6" x="-4" y="-7.90152" width="158" height="158"/><g class="cls-7"><g class="cls-3"><g class="cls-8"><path class="cls-9" d="M56.45483-5.02372c-2.1813-.67334-3.02722-.08116-3.87523,1.97452-2.50025,6.06188,3.93378,14.81108-4.33153,18.7982-.37645.182-.16814.72593.20033.73987,4.06828.155,2.08863,12.39421,2.66541,15.5918.718,3.9806,4.42289,3.985,7.72939,3.85338.51025-.01977.51171-.81367,0-.7932-16.79282.66522-.09726-17.01153-8.67027-19.36993,5.2337,1.4395.18569-21.84443,6.07138-20.02925.49056.15129.69817-.61479.21052-.76539Z"/><path class="cls-9" d="M60.50209,7.7133c-2.71223,2.78389-2.62316,15.14446,3.36491,13.58656,3.85185-1.003,4.52076-5.67363,4.07556-9.08182-.3589-2.74657-3.89937-5.92661-6.33233-3.49441a.39721.39721,0,0,0,.56145.56145c1.96723-1.96724,4.34464.92695,4.83957,2.36131a9.7536,9.7536,0,0,1,.07311,4.46159c-.48765,3.11719-3.91262,6.3777-6.28988,2.88176-1.77-2.60249-2.03966-8.34563.26893-10.71568.35676-.36625-.20394-.92847-.56132-.56076Z"/><path class="cls-9" d="M65.94106,5.61379a137.58852,137.58852,0,0,0-5.81854,21.73185c-.08477.50083.67993.715.76546.21129A137.557,137.557,0,0,1,66.70638,5.825c.1667-.48543-.60023-.69228-.76532-.21122Z"/><path class="cls-9" d="M68.60564,28.40938c1.31234-2.48562,1.57553-5.33818,3.06093-7.74187q-.36958-.10083-.73971-.20026c-.19743,1.696-.699,3.24074-.82256,4.93529a.39363.39363,0,0,0,.29169.38235c3.27146.64407,3.5807-2.29478,4.34464-4.79788.14983-.49125-.61633-.69963-.76533-.21129-.23771.78-.41536,1.57539-.63248,2.36131q-.352,2.36963-2.0835-.10093a13.168,13.168,0,0,0,.46129-2.56885c.04828-.4153-.54827-.50957-.73979-.20033-1.49416,2.41833-1.73992,5.24161-3.06087,7.74179-.23835.45255.44665.85391.68569.40067Z"/><path class="cls-9" d="M85.79405,2.09156c-7.04147,4.94264-8.43483,22.7795,3.63044,20.43574.50235-.09718.28877-.86264-.21052-.76539-11.09734,2.15515-9.2712-14.59612-3.01926-18.98466.41524-.29169.0197-.98029-.40066-.68569Z"/><path class="cls-9" d="M90.98523,10.8013c2.92277-2.95786,2.12228,5.48,2.07913,6.40031-.02413.5147.75894.50589.7939,0,.128-1.82545-.45324-8.108,3.11282-6.80389.48175.17619.68791-.59066.21129-.76539-4.40241-1.60979-3.936,4.96894-4.118,7.56928h.7939c.12652-2.7012.8736-5.78843-.84578-8.12851a.4009.4009,0,0,0-.44811-.182,5.37615,5.37615,0,0,0-2.14045,1.34876.39716.39716,0,0,0,.56131.56146Z"/><path class="cls-9" d="M98.53856,3.28244c6.40829,4.175,5.20568,16.38134-.83129,20.28806-.42764.27712-.03073.965.40059.68576,6.56923-4.25182,7.76157-17.14388.83122-21.65957-.42972-.28-.82754.40725-.40052.68575Z"/><path class="cls-9" d="M108.15922-4.24445c8.93989.71572-1.07914,16.23878,4.13321,19.29237,1.33274.78009.49493-.17834.28877.02781-1.06734,1.06735-1.20913,2.46148-1.4087,3.887-.58268,4.17,2.91756,18.43417-5.95588,16.69723-.50006-.098-.71267.66744-.21129.76539,12.13762,2.37587,3.16693-18.26165,9.03881-21.2209a.39945.39945,0,0,0-.2004-.73987c-4.68675.30119,2.95488-18.81062-5.68452-19.50289-.51116-.04024-.50672.75366,0,.7939Z"/><path class="cls-9" d="M119.90048,10.90361c2.54992-.58337,5.07057-.2946,7.6519-.239a.39681.39681,0,0,0,0-.7932c-2.653-.05772-5.25258-.3304-7.86243.26685-.49922.114-.28724.87943.21053.76539Z"/><path class="cls-9" d="M120.90345,13.697h7.48015a.39721.39721,0,0,0,0-.794h-7.48015a.39721.39721,0,0,0,0,.794Z"/><path class="cls-9" d="M119.62343,17.97872a45.505,45.505,0,0,1,9.59132-.49125.39716.39716,0,0,0,0-.7939,46.5983,46.5983,0,0,0-9.80192.51976c-.50145.10232-.28877.867.2106.76539Z"/><path class="cls-9" d="M142.89633-3.76048c-1.53286-.49056-3.21222-.56368-3.87953,1.26691-1.76267,4.83221,1.6229,13.25172-2.79416,16.80024-.32741.26317.02921.753.386.66376,4.15381-1.041.80126,15.20294.87145,17.28567.125,3.70861,4.17351,4.06835,6.97273,4.18384.51249.02116.51026-.77274,0-.794-9.432-.38817-5.33519-9.80191-4.69917-14.81614.22732-1.794.98847-5.50188-1.06734-6.70664-1.50817-.8831.4642-.97522.88165-3.68669.3238-2.10327-2.83724-15.33744,3.11719-13.43159.489.15642.69665-.60966.21122-.76539Z"/><path class="cls-9" d="M152.03885-1.48623a5.79693,5.79693,0,0,0-3.22978-.05917c-.231.03212-.30778.29828-.27774.48834,1.53446,9.6937-2.24727,20.484,1.13088,29.85093a.39821.39821,0,0,0,.38235.291,12.05209,12.05209,0,0,0,2.82565-.49278.39726.39726,0,0,0-.21143-.76539c-4.80662,1.21793-3.3672-11.31445-3.23339-14.06248.09865-2.02571-.976-15.072,2.40224-14.485.50075.087.715-.67771.21122-.76546Z"/><path class="cls-9" d="M33.97292,51.88046c2.26766-3.03167,3.86871,4.17281,4.09325,4.82417.6739,1.9519,1.57455,3.82924,2.2866,5.76873.106.288.56728.43638.72592.095a34.6581,34.6581,0,0,1,5.44854-7.95094q.46822-.534.93645-1.06734,1.74918-.92989.31728-1.50449c-.98036,1.20039-1.87734,2.47243-2.77577,3.73352-4.10484,5.7577-7.53932,11.91461-12.14567,17.31417-.33047.38672.22884.95109.56145.56145,5.931-6.95157,10.10379-15.15319,15.88057-22.221.31951-.3904-.2244-.95255-.56145-.56146-2.17338,2.52654-4.4104,4.98143-6.35425,7.69359-1.17334,1.63684-1.25228,3.59236-2.39059.79321a48.485,48.485,0,0,1-2.05713-5.78774c-.753-2.82038-2.54763-4.90318-4.6502-2.09154-.30708.41016.38235.80562.685.40066Z"/><path class="cls-9" d="M56.09225,45.66507c-4.12967,6.52677-4.69334,16.6416,4.1604,19.14546a.39715.39715,0,0,0,.21053-.76546c-8.39828-2.37442-7.4954-11.95776-3.68593-17.9794.27491-.43424-.41232-.83192-.685-.4006Z"/><path class="cls-9" d="M61.92675,54.3404c1.46066-2.24942,4.15971,6.03337,4.43529,6.945a.39892.39892,0,0,0,.78-.1053c-.05556-2.04326-.30992-6.61452,3.40888-5.98578.50077.084.715-.68063.21129-.76546-4.15235-.70179-4.49953,3.57924-4.41407,6.75124.2595-.0358.51976-.0709.77926-.106-.49049-1.6229-3.11934-11.39484-5.88637-7.13428-.27927.43056.40794.82824.68569.40059Z"/><path class="cls-9" d="M72.90858,45.53709c5.8981,3.89577,5.34837,13.27808,1.574,18.46705-.302.41453.3874.81.685.40066,4.05288-5.57138,4.3936-15.42373-1.85834-19.5534-.42917-.28294-.82608.405-.40066.68569Z"/><path class="cls-9" d="M83.36261,55.8252c1.53959-.79612,3.7854-.23765,5.439-.16961.51242.02047.51026-.77274,0-.794-1.90369-.07817-4.072-.63525-5.83962.27782-.45539.23543-.05327.91966.40059.68576Z"/><path class="cls-9" d="M83.65285,56.77337c1.881.04384,3.75834.16155,5.63929.2237.51248.01748.51039-.77642,0-.7932-1.88095-.06292-3.75829-.18056-5.63929-.22371a.39681.39681,0,0,0,0,.79321Z"/><path class="cls-9" d="M96.78615,54.24613q3.16686.693.753,2.31227a12.198,12.198,0,0,1-2.59889,1.8781.39983.39983,0,0,0,.09434.72516,35.36919,35.36919,0,0,0,7.25345.29612.3972.3972,0,0,0,0-.794c-1.60466.0256-3.20349.08262-4.80814.04461-2.6179-.06139-1.17694-.03434-.07013-.99132.9189-.79459,2.6215-2.20482,2.28452-3.65964-.58705-2.53084-3.24733-2.76773-3.67352-.02262-.07823.50076.68645.71566.76539.21129Z"/><path class="cls-9" d="M119.79518,49.91461c-1.3926-3.24143-8.92026-1.12506-11.5213-1.11188a.399.399,0,0,0-.10606.78,9.50957,9.50957,0,0,1,4.10719,2.85547c1.114,1.15211.54009,1.44526-.48916,2.25525a17.678,17.678,0,0,0-5.14153,5.93251.4018.4018,0,0,0,.34288.59724c4.09755.05557,8.27114.82241,12.30591-.18278a.39688.39688,0,0,0,.27691-.48834,10.79341,10.79341,0,0,0-1.00068-2.13906c-.24792-.4481-.93368-.04751-.68583.40067,1.52426,2.75385-2.12588,1.94531-3.64931,1.94309-1.44317-.00215-2.88918-.12722-4.32861-.21712-2.15-.1345-2.78895.26464-.9182-2.11054a26.76247,26.76247,0,0,1,5.0186-4.455.40688.40688,0,0,0,.08046-.62284c-1.593-1.94969-3.24434-3.78027-5.70734-4.534q-.05265.38935-.10523.77933c2.17048-.011,9.73255-1.851,10.83561.71864.20172.46857.8854.0643.68569-.40066Z"/><path class="cls-9" d="M108.02527,46.06567c1.18138-2.05353,1.31888-1.94386,1.76843.34287a.39968.39968,0,0,0,.66378.17467,6.26469,6.26469,0,0,0,1.28591-3.2963c.09871-.5-.666-.71274-.76539-.21053q-.1645.863-.35308,1.72092c-.30119,1.42479-.65211-1.70628-.64774-1.68582a.40142.40142,0,0,0-.66294-.17473,9.01259,9.01259,0,0,0-1.97466,2.72832.39729.39729,0,0,0,.68569.4006Z"/><path class="cls-9" d="M113.185,42.629a15.04177,15.04177,0,0,1-1.18651,4.15457c-.24417.44963.44159.85023.6859.40059a15.63218,15.63218,0,0,0,1.266-4.34456c.1046-.49937-.6601-.71136-.7654-.2106Z"/><path class="cls-9" d="M116.15691,44.40545q-.41256.84654-.82553,1.6924c-.17106.19881-.14678.61625.17549.663a20.26,20.26,0,0,0,3.21.17258.39721.39721,0,0,0,0-.794c-1.34439.01242-2.593.50444-1.72889-1.03079a2.84832,2.84832,0,0,0,.10668-2.0067.39849.39849,0,0,0-.48834-.277c-.88165.21712-.99491.46933-1.215,1.36923-.12139.49715.64476.70837.76553.21129Z"/><path class="cls-9" d="M106.3088,67.98328a9.0166,9.0166,0,0,1,2.78166-3.36136l-.54321-.54321c-.70615,1.20039-1.55346,2.94614-.0541,3.83,1.26982.74861,2.20121-2.34452,2.48055-2.96077q-.36969-.09978-.73987-.20033c.14255,1.55936.40719,2.53459,2.10757,2.5375a.39717.39717,0,0,0,0-.7939l-1.31367-1.7436c-.032-.3494-.56-.59579-.73986-.20026-.1345.29751-.24563.571-.36771.87866-.92181,2.32989-1.1469-.16592-.68715-.94664.19222-.32755-.20615-.77711-.54321-.54321a10.24934,10.24934,0,0,0-3.066,3.64646.397.397,0,0,0,.685.40066Z"/><path class="cls-9" d="M115.87972,67.49418c3.08868-.48321,2.16243-3.9813-.59586-4.13411-.51172-.02851-.50867.76546,0,.794q.193,1.2873.38526,2.57475c-.50512.07894-.28947.84433.2106.76539Z"/><path class="cls-9" d="M119.31274,63.82136c-3.29783-.58192-1.35612,3.70424.7699,4.34394a.39722.39722,0,0,0,.21115-.76539q-.59652-1.40582-1.19234-2.81309c.50076.08844.715-.67626.21129-.76546Z"/><path class="cls-9" d="M131.08258,53.19849c-2.99657-1.05708-8.56857,4.4455-5.19264,6.63575,2.02287,1.313,4.35927.72814,6.07575-.82026,2.25164-2.03085-.2851-4.25835-2.01392-5.21672-.44825-.24784-.84884.43785-.40073.68569,5.49828,3.047-3.21223,8.26746-3.724,3.463-.24125-2.26628,2.9922-4.70576,5.04428-3.98206.48465.17037.69081-.59648.21121-.76539Z"/><path class="cls-9" d="M131.60748,50.73854c-1.47293.606-1.98465,2.26989-2.5316,3.65743a41.27215,41.27215,0,0,0-2.65008,9.36768c-.068.50006.69678.71572.76546.21052a36.22135,36.22135,0,0,1,1.8276-6.92812c.56006-1.62658,1.02343-4.81182,2.79921-5.54211.46712-.19229.26242-.96059-.21059-.7654Z"/><path class="cls-9" d="M131.92261,63.1408c-.038.03947-.07679.07894-.11479.11841a.39174.39174,0,0,0-.10149.386l.01519.04162a.4008.4008,0,0,0,.66307.17473c1.25963-1.49575,2.362-3.11282,3.754-4.49232q-.3114-.24015-.62353-.481c-.4855.90357-1.27933,1.802-.99576,2.86568a.39114.39114,0,0,0,.27705.27781c1.34016.25222,2.02065-.90579,2.79922-1.878q-.31143-.24129-.62361-.48106c-.89039,1.47085-.15718,3.0273,1.56151,2.07913.44818-.24785.04828-.93285-.40059-.68576q-.238-.49674-.47523-.99278c.22884-.37867-.33684-.8385-.62354-.481-.89482,1.117-1.61852,1.15724-.83344-.30341a.39873.39873,0,0,0-.62353-.48106,12.216,12.216,0,0,0-1.574,1.718c-.09572.1148-2.131,3.808-1.51913,3.17644.35606-.36772-.20463-.92993-.56138-.56146Z"/><path class="cls-9" d="M135.92582,49.43653c-1.02863.45907-.73327.21129-1.38684,1.02344a.3985.3985,0,0,0-.10155.386c1.05631,2.59743,3.82411.88679,2.09223-1.1236-.33469-.38893-.89337.17543-.56131.56139.11972-.054.23889-.10814.35883-.16156.46635-.20831.06208-.89261-.40136-.68569Z"/><path class="cls-9" d="M144.74885,48.38965c-2.72744.03587-3.06824,5.27894-3.22832,7.21621-.35968,4.33437,1.938,7.1621,5.43756,9.30261.43791.26831.83629-.41814.40059-.685-2.35179-1.43943-4.12238-2.97611-4.85926-5.73877-.3261-1.22155-.36043-9.26751,2.24943-9.30116a.39718.39718,0,0,0,0-.7939Z"/><path class="cls-9" d="M150.37134,55.55758c1.04175-.44152,1.2853,5.86085,1.36923,6.64892.05341.49709.81443.52053.794,0-.03719-.95545.21052-7.81636,2.70855-6.064.42029.2946.81582-.39407.40059-.68576-3.50981-2.46147-3.97977,4.79205-3.90312,6.74978h.794c-.14478-1.35535.26317-8.53208-2.56379-7.33392-.47011.19888-.06507.88242.40058.685Z"/><path class="cls-9" d="M.368,87.63754c.01463.41009,2.02293.53149,2.68518.71864a.39727.39727,0,0,0,.21122-.76546A9.5865,9.5865,0,0,0-.03335,87.117a.40217.40217,0,0,0-.397.397l.00444.12354c.019.51026.81214.51248.7939,0Z"/><path class="cls-9" d="M.0485,88.98707c.90954-.46351,2.02579-.03878,2.98783.0541.50964.049.50443-.745,0-.794-1.155-.11112-2.313-.49417-3.38842.05411-.45615.23251-.0541.91751.40059.68576Z"/><path class="cls-9" d="M14.66584,80.43375a44.26382,44.26382,0,0,0-8.051-.11917c-.31943.01242-.56.44013-.28072.67771,1.44386,1.226,6.90475,3.92428,4.98579,5.51867-2.62372,2.17929-5.29649,3.85629-7.66071,6.328a.40136.40136,0,0,0,.1755.66384,37.34191,37.34191,0,0,0,13.39572.299.39526.39526,0,0,0,.277-.48834,4.49441,4.49441,0,0,0-.76462-1.51476c-.28073-.42542-.96871-.02851-.68576.40066.95039,1.44165-5.439.984-5.68022.96787-.42181-.02851-5.54939-.40059-5.376-.58261a34.52451,34.52451,0,0,1,8.13136-6.325.40015.40015,0,0,0,.08039-.6236,32.07658,32.07658,0,0,0-3.63113-3.0821c-2.10762-1.58128-2.48845-1.45552-.32089-1.5586a26.81869,26.81869,0,0,1,5.1948.20394c.50006.07166.71572-.693.21052-.76539Z"/><path class="cls-9" d="M14.777,80.59315a4.44953,4.44953,0,0,0,.25957,1.67118.39724.39724,0,0,0,.7654-.21129q-.11624-.73032-.231-1.45989c-.01978-.51032-.81367-.51248-.794,0Z"/><path class="cls-9" d="M5.55773,77.90943l.00438.29758a.1771.1771,0,0,0,.32754.08845c.61626-.94089,2.07837-2.14565,1.75671-.10385-.022.13749.1155.29315.25805.19812a10.98517,10.98517,0,0,0,2.48922-2.70488c.14116-.174-.1053-.424-.24854-.24854-.5951.73542-1.82178,3.52659-1.98118,1.67991-.04821-.557.03884-.71787-.48321-1.02419-.70109-.41079-1.77717,1.45919-1.772,1.8174a.17555.17555,0,0,0-.35093,0Z"/><path class="cls-9" d="M12.05537,74.77836c-.15871,1.378-1.33864,2.34889-1.34814,3.68961a.17555.17555,0,0,0,.35093,0c.00951-1.28737,1.196-2.36859,1.34876-3.68961.0256-.22516-.32533-.22225-.35155,0Z"/><path class="cls-9" d="M13.486,76.87941q-.28521.60421-.57172,1.20913c-.125.09-.10308.34725.0892.32755a6.52889,6.52889,0,0,1,2.85915.10966.1757.1757,0,0,0,.09358-.33851c-1.37075-.39913-2.62448.48252-1.6478-.79535.68208-.89337.81658-1.15072.13887-1.94754a.176.176,0,0,0-.24778,0c-.81006.74278-.54029.38089-1.01614,1.2581-.10821.19888.19526.37653.30264.177Z"/><path class="cls-9" d="M2.9603,98.76553a6.53122,6.53122,0,0,0,2.88031-2.827c-.51172.85827-.70324,1.33641-.07158,2.036a.17463.17463,0,0,0,.17106.04536,4.3269,4.3269,0,0,0,2.09077-1.86783c-.30632.39768-.03218.74638.245,1.10313a.17655.17655,0,0,0,.171.04461c.21421-.03288.4291-.06653.64331-.09941.22377-.0344.12791-.37284-.09358-.3385q-.31348-.58341-.62721-1.16751a.17653.17653,0,0,0-.321-.1352,16.70256,16.70256,0,0,1-1.31006,1.5937Q5.68351,96.36,6.46207,95.58181c.1096-.18347-.128-.33039-.27567-.21267-1.1777.93714-1.86852,2.47527-3.31967,3.058-.20762.08331-.117.42328.09357.33844Z"/><path class="cls-9" d="M11.12614,95.92546A29.47365,29.47365,0,0,0,13.73682,97.965c.182.13527.35662-.1696.17681-.30264q-1.306-.9452-2.53895-1.98555c-.16593-.1542-.41447.09357-.24854.24861Z"/><path class="cls-9" d="M11.49531,97.19306c1.03952.08553,1.82177-.75443,2.653-1.2735.43278-.2697.03447-.95691-.40059-.685-.965.60238-1.88615,1.22161-2.79117,1.911a.40187.40187,0,0,0,0,.685,1.13544,1.13544,0,0,0,.53877.15642c.511.04169.50665-.75221,0-.7939Z"/><path class="cls-9" d="M27.37817,81.82934c-.73334,2.08349-3.115,4.73794-2.9718,7.00713.163,2.59521,3.73275,4.61218,4.60635,6.92084.17987.47371.94741.26831.76539-.21129a13.14289,13.14289,0,0,0-2.76994-3.94037c-2.92415-3.3255-.027-6.26144,1.13532-9.565.17043-.48474-.59655-.69089-.76532-.21129Z"/><path class="cls-9" d="M32.27982,96.78005c2.51627-.68645,3.33064-4.12169,4.39652-6.16127q-.36959-.10094-.7391-.20034c-.10745,1.35536-.51248,3.096,1.449,3.096,2.02273,0,2.95925-2.35978,3.4958-3.94252.16682-.49416-.5797-.674-.76539-.21129-.62944,1.56887-1.39559,5.287,1.41237,4.099.47017-.19887.06507-.88241-.40059-.685-1.47092.62215-.42841-2.74948-.24639-3.20273q-.38269-.10528-.76539-.21129a9.2519,9.2519,0,0,1-.79467,1.8627q-1.36961.32465-2.73921.64844.10737-.72263.14768-1.4533a.39891.39891,0,0,0-.7391-.20033c-.889,1.69969-1.81886,5.22261-3.92213,5.79648a.39717.39717,0,0,0,.2106.76546Z"/><path class="cls-9" d="M43.71122,81.48722V92.96836a.39718.39718,0,0,0,.79391,0V81.48722a.39718.39718,0,0,0-.79391,0Z"/><path class="cls-9" d="M47.81169,89.433a100.23627,100.23627,0,0,1-1.96141,10.139.39724.39724,0,0,0,.76539.21129,100.29364,100.29364,0,0,0,1.96141-10.139c.0899-.5-.6748-.71419-.76539-.21129Z"/><path class="cls-9" d="M47.74149,90.62682q.203.73251.40718,1.46426c-.3838-.33483-.94817.22371-.56145.56145,1.06881.93285,3.60921.87728,3.84388-.98694.32311-2.57767-2.38836-2.66319-4.0902-1.72376-.44887.24708-.04828.93277.40059.685Z"/><path class="cls-9" d="M51.91507,88.32108q1.53515-.26106.88908.886a.17577.17577,0,0,0,.12194.21566,5.381,5.381,0,0,0,1.80714.14255.17555.17555,0,0,0,0-.35093c-1.89045.02268-1.14192-1.01178-1.3195-2.07982a.17568.17568,0,0,0-.21642-.12285c-1.14046.43132-.73681.13894-1.53085,1.06076-.14616.17112.10093.42036.24861.24861Z"/><path class="cls-9" d="M58.75038,81.0405v14.015a.39725.39725,0,0,0,.794,0V81.0405a.39723.39723,0,0,0-.794,0Z"/><path class="cls-9" d="M61.25639,88.99366a35.92485,35.92485,0,0,1,2.1215,4.7079c.1053.28441.571.44083.72523.095.60529-1.35314.95768-2.76551,1.47522-4.15236.1791-.48029-.5876-.68568-.76539-.21129A23.70992,23.70992,0,0,0,63.68789,92.257a28.42326,28.42326,0,0,0-1.74568-3.664c-.24424-.45032-.92922-.04966-.68582.40067Z"/><path class="cls-9" d="M68.18458,82.06622c1.34072,1.39483,5.1882,6.472,3.03971,7.96405a13.81972,13.81972,0,0,0-3.7562,4.97407c-.2339.45393.45109.85529.68576.40059,1.07831-2.09008,2.506-4.44695,4.74523-5.40685a.39061.39061,0,0,0,.182-.4481c-1.11479-2.87525-2.161-5.78337-4.33507-8.04521-.35591-.36917-.916.193-.56145.56145Z"/><path class="cls-9" d="M81.8113,85.00133c.03586-.01457.071-.03.10675-.04453a.407.407,0,0,0,.27705-.48834c-.54536-2.03674-3.07987-3.32779-4.38334-1.10321a2.87266,2.87266,0,0,0,.03142,2.95932,2.18852,2.18852,0,0,0,1.1587.90579,8.41555,8.41555,0,0,0,1.00519.08039c6.15982.45616-3.41547,7.68991-2.332,2.03522.09579-.5-.6689-.71351-.76539-.21053-.56,2.9213,1.95045,3.67865,4.22761,2.30061a3.27876,3.27876,0,0,0,1.29841-3.56967c-.2507-.91169-.59-.94817-1.37735-1.343a.39439.39439,0,0,0-.20025-.054q-.42557.024-.851.04751-4.12745-3.54414,1.5937-2.28091c-.465.1945-.261.96281.21053.76539Z"/><path class="cls-9" d="M82.80407,82.40251a4.47767,4.47767,0,0,0,1.68145.155.17557.17557,0,0,0,0-.35093q-.795-.07126-1.58857-.14255c-.22078-.04314-.31512.29537-.09288.33851Z"/><path class="cls-9" d="M87.57857,80.74229a10.59013,10.59013,0,0,1-.32012,3.08425c-.0469.22079.29161.31513.33837.09357a15.302,15.302,0,0,0,.33337-3.17782.17591.17591,0,0,0-.35162,0Z"/><path class="cls-9" d="M82.64765,97.41608a19.01923,19.01923,0,0,0,3.36865-4.31031c.18056-.28731,1.98478-3.61066,1.17555-1.44892a3.05984,3.05984,0,0,0-.19658,1.46724c.00062.78294,1.15939,1.011,1.62429.53877a7.01226,7.01226,0,0,0,1.46724-2.38108c.0899-.21635-.36992.35821-.4386.81367a5.00456,5.00456,0,0,0-.02047,1.10168c.05785,1.08344.99423.82172,1.64851.51907.20538-.095.02705-.39768-.17766-.30341-1.6639.76983-.97439-2.06664-.87069-2.54693a.17566.17566,0,0,0-.33844-.09358,8.21109,8.21109,0,0,1-.693,1.609q-.83229-.3158-1.66535-.63089.22808-.63824.48911-1.26323c.06721-.166-.17988-.29467-.29322-.17113-1.97528,2.153-3.13253,4.88785-5.32784,6.85141-.16891.15135.0804.3992.24854.24861Z"/><path class="cls-9" d="M92.83406,90.52222A10.21072,10.21072,0,0,1,93.957,94.02911a.177.177,0,0,0,.33851,0c.51317-1.47307.85237-3.58583,2.94024-3.71811.22516-.01464.22663-.36557,0-.35169a2.58052,2.58052,0,0,0-2.29916,1.42631,8.59387,8.59387,0,0,0-.78585,1.9936c.28587-.85605-.54536-2.32912-1.01324-3.03465-.125-.18785-.4291-.01165-.30341.17765Z"/><path class="cls-9" d="M99.63213,85.5752a11.06473,11.06473,0,0,0-.81076,3.46008c.03586.50811.82976.511.7932,0a11.37036,11.37036,0,0,1,.78295-3.24879.39724.39724,0,0,0-.76539-.21129Z"/><path class="cls-9" d="M97.86959,87.24055q.56135.36845,1.1236.73688,1.18317.10093,2.37005.11335a.39717.39717,0,0,0,0-.7939c-.91308-.02636-3.1077-.56881-3.865.06652a.39914.39914,0,0,0,.28073.677c.03-.00146.06062-.00368.09066-.0059.50818-.03357.51095-.82754,0-.7939Z"/><path class="cls-9" d="M112.49428,84.87342a4.06361,4.06361,0,0,0,.08616-1.73548.40457.40457,0,0,0-.39692-.397c-3.00246-.12937-6.04509.05411-9.05392.06507a.40055.40055,0,0,0-.28088.67771,21.71566,21.71566,0,0,0,5.53407,3.69176c1.7925.9986-2.54992,3.32626-3.10041,3.74517-1.36631,1.04175-2.71217,2.11422-4.06314,3.17643a.39941.39941,0,0,0,.28072.67764c3.69849-.27559,7.3172-.09572,11.0118-.076a.40286.40286,0,0,0,.383-.50222,7.398,7.398,0,0,0-.48244-1.93067c-.15649-.48474-.92264-.27705-.76546.21129.99277,3.07841-7.28182.14983-8.87275,1.40065,2.28237-1.79473,5.64519-3.42352,7.38948-5.76506a.38987.38987,0,0,0,0-.40059c-.837-1.44747-3.20563-2.24727-4.58811-3.06094-2.74358-1.61485.484-1.0534,1.968-1.05195.96357.0007,4.95361-.8729,4.1853,1.06291-.18861.47592.57894.68062.76546.21129Z"/><path class="cls-9" d="M106.48422,80.66772c.03879-.59509.48335-3.0814.94894-1.00449a.17721.17721,0,0,0,.32089.04169q.579-1.4618,1.23916.59a.17593.17593,0,0,0,.35163,0,5.16108,5.16108,0,0,0-.23759-2.29479.17643.17643,0,0,0-.258-.10529c-.89407.66307-.99708,1.53376-1.57032.03731a.17864.17864,0,0,0-.32165-.04168,4.7693,4.7693,0,0,0-.82464,2.77729c-.01463.22586.33706.2244.35162,0Z"/><path class="cls-9" d="M107.36518,97.86051c.03434.12722.06944.25513.10377.38235.05556.20546.32242.13963.3451-.04676.21635-1.77724-1.31887-2.911-2.19316-.82248-.878,2.09813.03808,4.29934,2.03743,1.98042.14768-.1703-.10016-.4196-.24784-.24778q-3.658-1.17888.29315-1.33933a.17566.17566,0,0,0-.33845.09358Z"/><path class="cls-9" d="M125.24518,84.81127a1.99887,1.99887,0,0,1-.16218-1.00152.4099.4099,0,0,0-.397-.397c-2.5828-.19222-5.14805-.05113-7.73306.00076a.39993.39993,0,0,0-.20033.7391c1.61853,1.23473,5.31327,3.19614,3.26265,5.40317-1.4166,1.52426-3.0309,2.93587-4.57417,4.33a.39907.39907,0,0,0,.1755.66308,32.46455,32.46455,0,0,0,8.95828.26387c1.51836-.21122,1.61936-.78294,1.242-2.17409a.39722.39722,0,0,0-.76539.21122c.61264,2.25823-7.86756.52934-8.05326.69748a41.73689,41.73689,0,0,0,5.16344-5.30453.39384.39384,0,0,0-.06215-.48106,48.85043,48.85043,0,0,0-4.94625-4.29413q-.09989.36948-.20033.7391c1.71939-.03441,3.43739-.10384,5.15679-.12507,1.514-.01824,1.89931-.231,2.37011.94089.18784.46864.95621.26394.76539-.21129Z"/><path class="cls-9" d="M119.07073,78.1185c-.02623.0351-.05335.06951-.07971.10454a.17661.17661,0,0,0,.10468.25811c.25353.07235,1.36547.05112.83544.65059a.17771.17771,0,0,0,.07755.29391c-.06949.1148-.13811.22953-.20692.34433-.20165-.10093-.38013.20179-.17764.30334,1.05347.52934.62575.48252,1.74207.25368a.17625.17625,0,0,0,.10453-.258c-.367-.58115-1.27274-2.84743-2.0966-1.7728.13825-.1798-.16744-.35453-.3034-.17765Z"/><path class="cls-9" d="M117.10931,96.39694a5.714,5.714,0,0,1,0,2.01337c-.0453.51026.7486.50582.7939,0a5.714,5.714,0,0,0,0-2.01337c-.0453-.50513-.83982-.5095-.7939,0Z"/><path class="cls-9" d="M118.38135,97.74938q.613.11185,1.22606.22371c.50069.09066.71413-.674.21115-.76539q-.61275-.11186-1.22592-.22371c-.50075-.09136-.71426.67327-.21129.76539Z"/><path class="cls-9" d="M118.97714,98.58351q.409.03736.81735.07457c.51027.04606.50589-.74784,0-.7939q-.408-.03725-.81735-.07457c-.50949-.04682-.50512.74785,0,.7939Z"/><path class="cls-9" d="M121.4364,96.7727q.24451.249.48848.49784c-.05349.10752.00867.27712.15191.26394q.59455,1.669-.64768,1.37069a.176.176,0,0,0,0,.35169c4.68239.05258,1.03079-3.51051-.17036-2.7875a.17587.17587,0,0,0,.17765.30334Z"/><path class="cls-9" d="M131.927,88.66174q-1.10209-.76435,1.15649-.24931c2.17706.00222,1.45336,1.26768.13526,2.22389-1.07026.77636-2.23845,1.40287-3.297,2.19754-.234.17612-.28954.671.095.72592a59.15569,59.15569,0,0,0,7.551.33407.39991.39991,0,0,0,.34212-.59725q-.30372-.488-.6082-.976c-.26978-.43347-.95692-.03509-.685.40067.27046.43347-3.71736.3333-4.02881.32456-3.07467-.08844-.29245-.848,1.03148-1.72452,1.17334-.77566,2.48853-1.69532,2.39287-3.20716a.40077.40077,0,0,0-.29183-.38235,14.59309,14.59309,0,0,0-4.92288.07748c-.31582.05265-.35307.462-.17542.66308a3.87,3.87,0,0,0,.74347.75082c.38672.33039.95108-.22808.56145-.56145Z"/><path class="cls-9" d="M138.63667,95.85089c.27476-.33851,2.08349-3.02,1.43859-1.62512a1.16931,1.16931,0,0,0-.09212,1.19088.176.176,0,0,0,.16961.12861c1.42119-.02407,1.57323-2.351,1.911-.75513a.17492.17492,0,0,0,.12277.12278c.66967.20255.49126.08629,1.1902-.47883.17612-.14255-.07388-.38964-.24785-.24854q-.38488-.32787-.76983-.65718c.01686-.19374-.23467-.21206-.32748-.08852-1.101,1.46947-1.82906,1.48188-1.14628-.19075.0738-.18056-.17474-.26831-.29315-.17037a15.90774,15.90774,0,0,0-2.204,2.52356c-.14192.174.10516.424.24861.24861Z"/><path class="cls-9" d="M146.616,87.67479a21.98879,21.98879,0,0,1-1.21212,5.33672.39723.39723,0,0,0,.7654.21122,22.02535,22.02535,0,0,0,1.24-5.54794.39685.39685,0,0,0-.79327,0Z"/><path class="cls-9" d="M146.31264,89.596q1.22143.04059,2.44232.08186-.96933.454-1.97743.81221.10519.3827.21122.76539c1.11341-.43715.97308,2.33349,2.69761,2.61713.5.08262.71495-.68277.21052-.76539-.6696-.11036-.42543-2.06594-.67328-2.6464-.34287-.802-2.05422-.12424-2.44607.02927-.46863.18424-.27268.94595.21122.76539.95261-.35453,4.10928-1.25741,3.11213-2.95932-1.04174-1.77932-3.4396-.16883-4.34977.73841a.39725.39725,0,0,0,.56153.56145Z"/><path class="cls-9" d="M3.73374,122.3295c-4.04768-4.59831-8.82814,1.03293-9.44662,5.25694-.72446,4.95361,4.73136,7.80471,7.63511,3.33431.35745-.55118-.522-1.05922-.87728-.51241q-5.97849,2.25675-5.80085-1.88392a8.463,8.463,0,0,1,.56437-3.017c.91307-2.87962,4.62169-5.39589,7.20663-2.45926.43354.492,1.14927-.22884.71864-.71863Z"/><path class="cls-9" d="M8.81019,125.63017c-2.88766-.25222-4.48926.37506-4.92655,3.60921a2.63607,2.63607,0,0,0,2.854,2.89862c3.32044-.26907,3.751-5.64006.182-6.07721-.6492-.079-.64185.93722,0,1.01615,2.44829.29974,1.49644,2.43.71128,3.41548q-5.4366-1.92888.26478-3.93309.45491.06472.91445.08629c.65281.057.647-.95913,0-1.01545Z"/><path class="cls-9" d="M14.85376,125.64772c-1.52281-.62576-2.419-.24854-3.11428,1.23326a.5159.5159,0,0,0,.182.6945,10.08364,10.08364,0,0,0,2.145.85314q2.57471.38384-.405,3.7569a5.05173,5.05173,0,0,1-2.36492-1.44893c-.47523-.44964-1.19532.26754-.71864.71856,1.80652,1.70774,4.70576,2.8672,6.26436.33123a3.08289,3.08289,0,0,0-.05778-2.96958,2.58956,2.58956,0,0,0-1.13678-.92327,8.14739,8.14739,0,0,0-1.31138-.4445q-1.56168-.16233.24771-.82172c.60529.2493.867-.734.26977-.97959Z"/><path class="cls-9" d="M28.05505,117.672c-5.03768,1.59661-7.29147,7.57809-6.68472,12.49729.62007,5.01943,5.93833,6.08088,10.1287,5.961a.508.508,0,0,0,0-1.01545c-3.64064.10384-7.65412-.43792-8.97215-4.36656-1.46433-4.36656,1.4723-10.726,5.79863-12.09663.62145-.19742.35606-1.17777-.27046-.97966Z"/><path class="cls-9" d="M30.33443,128.85925c.50735-2.59889,2.41542-1.08566,1.31083,0-.799.78585-1.68214,1.44012-2.43443,2.27862-.23029.25666-.17834.78155.22372.84877a36.02349,36.02349,0,0,0,6.55541.26394.50837.50837,0,0,0,0-1.01615,34.28287,34.28287,0,0,1-6.285-.22738l.22371.84877c1.756-1.95628,4.34172-3.18081,4.24447-6.105a.51207.51207,0,0,0-.508-.508,4.52971,4.52971,0,0,0-4.31038,3.34673c-.125.63963.8539.91231.97959.26977Z"/><path class="cls-9" d="M42.25716,131.81413c-2.82627-3.251,1.3942-9.8502,2.699-13.07116q-.49788-.06806-.99721-.13527c.13159,4.73358-.04238,9.49927,1.18374,14.11291a.5104.5104,0,0,0,.99777-.1352c.01533-.20914.03142-.41821.04676-.62728.049-.65357-.96642-.64913-1.01533,0-.01615.20907-.03156.41814-.04758.62728q.499-.068.998-.13526c-1.20267-4.5252-1.0185-9.20321-1.14773-13.84245a.51027.51027,0,0,0-.99729-.13526c-1.53217,3.781-5.75118,10.24932-2.438,14.06032.43069.49493,1.14552-.22662.71787-.71863Z"/><path class="cls-9" d="M39.87248,126.62731c1.85174.66967,4.56758-.40135,6.51581-.413a.508.508,0,0,0,0-1.01546c-1.81664.011-4.53172,1.06957-6.246.44888-.61708-.223-.881.75887-.26983.97959Z"/><path class="cls-9" d="M50.6628,118.1691c2.11707-1.12659,4.762,3.57043,5.19992,5.08588a8.78884,8.78884,0,0,1-3.58584,9.55775.50848.50848,0,0,0,.51325.87728c3.87891-2.36422,5.04642-7.26518,3.8307-11.4724-.6207-2.14634-3.92941-6.27747-6.47045-4.925-.57838.30778-.06513,1.1843.51242.87652Z"/><path class="cls-9" d="M60.68252,126.49718c1.08857,1.16092,2.95127.647,4.37751.57976.65136-.03142.655-1.04688,0-1.01615-.94886.0453-2.91464.51172-3.65881-.28218-.44894-.47884-1.16612.24119-.7187.71857Z"/><path class="cls-9" d="M61.27831,128.80147c1.18214.00881,2.36276-.00874,3.54491,0a.50835.50835,0,0,0,0-1.01615c-1.18215-.00881-2.36277.0095-3.54491,0a.50836.50836,0,0,0,0,1.01615Z"/><path class="cls-9" d="M79.47635,117.6544c-4.29927-.0358-6.972,3.24809-7.26081,7.5459-.33483,4.99675,2.78826,8.19726,7.36243,9.61844.62721.1952.8933-.78585.26977-.9796-3.251-1.00956-5.68834-2.786-6.5473-6.19346a9.17,9.17,0,0,1,.99353-5.83886c1.06658-2.35326,2.699-3.15743,5.18238-3.137a.508.508,0,0,0,0-1.01545Z"/><path class="cls-9" d="M87.14066,124.78584c-5.561,1.6419-3.80586,8.87274,2.161,6.58379.6053-.23176.34288-1.21427-.26977-.97884-1.65869.636-4.1253,1.10536-4.41476-1.40946-.19666-1.71064,1.3926-2.80213,2.79408-3.2159a.50842.50842,0,0,0-.27053-.97959Z"/><path class="cls-9" d="M95.683,125.43282c-5.07569-2.14052-5.73364,9.05768-.29169,6.62034,4.12239-1.8466,4.55-8.459-1.16023-7.05166-.636.15642-.36625,1.136.26977.97959,3.14862-.77635,3.6611,1.34218,2.27432,3.60332a3.432,3.432,0,0,1-2.46438,1.67922c-3.06309.31951-1.85979-6.10058,1.10245-4.852.6032.25444.86333-.72883.26976-.97883Z"/><path class="cls-9" d="M104.9,124.35451c-2.24505-.74936-3.75828-.16155-4.161,2.27211a.52256.52256,0,0,0,.35446.62506,22.0692,22.0692,0,0,0,2.2721.58115c2.12082.45324,1.09586,5.78406-2.0228,2.6881a.50812.50812,0,0,0-.71787.71856c1.70551,1.69317,4.86,1.99291,6.18188-.30556a2.65727,2.65727,0,0,0-.33421-2.59229,3.22074,3.22074,0,0,0-1.33128-1.022,7.63479,7.63479,0,0,0-1.50519-.46642c-.26616-.05633-.53148-.11335-.79758-.17037q-2.50353-.33774,1.79181-1.34876c.62285.20831.88817-.77344.2697-.9796Z"/><path class="cls-9" d="M115.51416,116.94089c-1.20254,1.27572-1.48916,2.74075-2.03293,4.39361-1.10182,3.34534-2.06241,6.73737-3.02882,10.12364-.155.54605.66814.91453.9284.39178q.3389-.67986.677-1.36049c.29036-.58406-.5856-1.09876-.87729-.51241q-.33774.67986-.677,1.35973.465.19633.92847.39185.90576-3.17457,1.84593-6.33893c.69809-2.33349,1.23034-5.90247,2.95486-7.73083.44887-.47593-.2683-1.196-.71863-.718Z"/><path class="cls-9" d="M115.12889,118.16174c.11772,2.06671,1.01837,3.85415,1.585,5.828a56.28362,56.28362,0,0,0,2.26621,7.36236c.26317.598,1.13823.08115.87729-.51242a35.12137,35.12137,0,0,1-1.85252-5.8974c-.55118-2.23992-1.72819-4.46672-1.85979-6.78052-.03724-.65058-1.0534-.65426-1.01615,0Z"/><path class="cls-9" d="M112.09223,126.64562c1.96863-.22447,3.93441-.47009,5.90823-.647.647-.05778.65281-1.07393,0-1.01546-1.97382.177-3.9396.42258-5.90823.647-.6433.07311-.65065,1.08926,0,1.01545Z"/><path class="cls-9" d="M120.364,119.10118c3.45494.095,5.03178,3.00752,5.95069,5.90177,1.22674,3.8665-1.14393,7.62554-3.9462,10.04463-.49709.4291.22447,1.14406.71788.71857,3.31682-2.86276,5.14664-6.63866,4.20721-11.03373-.73472-3.43739-3.2992-6.54723-6.92958-6.6474a.50837.50837,0,0,0,0,1.01616Z"/><path class="cls-9" d="M129.14385,118.3774c-.068.9146-.28863.99791-.92625,1.59009a.5134.5134,0,0,0,.22447.8487,6.77933,6.77933,0,0,0,4.11.20693c.63895-.14547.36778-1.12513-.26975-.9796a4.91043,4.91043,0,0,1-3.57045-.20692q.11185.42442.2244.84877c.522-.48466,3.387-2.93,1.83128-3.84679-1.30056-.76616-2.52722.02483-2.63982,1.53882-.04828.65358.968.64921,1.01615,0Z"/><path class="cls-9" d="M131.01912,127.86939c1.46564-.80708,3.54913-.60821,5.17938-.57678a.50836.50836,0,0,0,0-1.01616c-1.8079-.0344-4.05-.18791-5.69194.71642-.57387.31583-.06146,1.193.51256.87652Z"/><path class="cls-9" d="M144.82049,116.72523c-5.72558,4.515-4.7043,16.43107,3.06018,18.09351.63894.13672.91086-.84218.27046-.9796-7.06263-1.51184-7.73375-12.357-2.612-16.396.51394-.405-.20983-1.11923-.71864-.718Z"/><path class="cls-9" d="M155.12609,122.89678c-2.46142-1.41314-4.98275-.20762-6.12765,2.27792a.52017.52017,0,0,0,.182.6945,4.49576,4.49576,0,0,0,2.425.65357c1.54681.08193,2.90875,1.97314.52553,2.19171a5.03639,5.03639,0,0,1-2.67707-.42841c-.58413-.29168-1.09876.58483-.51248.87728,1.90293.94887,5.5143,1.02129,6.7622-1.01546.46358-.75734-.1791-1.58343-.63893-2.11415-.33484-.38672-1.17556-.44526-1.6193-.50589a4.0748,4.0748,0,0,0-.97668-.03q-.432.00438-.86327.00951-4.23732-1.191,3.00822-1.73333a.50826.50826,0,0,0,.51243-.87728Z"/><path class="cls-9" d="M9.08142,150.28117c.05556-3.53388-.99937-7.57878-3.8812-9.85824-2.9666-2.3466-5.84108,1.1039-7.3061,3.38405-2.19677,3.41693-3.23852,8.89835-1.3188,12.65815,2.17194,4.25322,6.02164,6.40913,10.12793,3.308.5154-.38964.01028-1.272-.51317-.87721-4.56758,3.45057-8.22576-.61556-9.31725-4.81175-.85015-3.26634.348-6.92161,1.8978-9.76467.86424-1.58488,2.3072-3.4462,4.3103-3.62891,1.45927-.133,2.60112,1.53592,3.24955,2.53889A12.8623,12.8623,0,0,1,8.066,150.28117a.508.508,0,0,0,1.01546,0Z"/><path class="cls-9" d="M27.85257,151.70895c.68132-3.8212-4.5902-.84149-5.44271.94449a.51565.51565,0,0,0,.30341.74569c2.35985.68715,5.91343,1.04612,6.3272,4.22692.51394,3.94987-5.82131.95469-6.73875.29974-.5344-.38166-1.04106.5-.51248.87721,1.62664,1.16168,7.04514,3.43378,8.03639.204a4.10613,4.10613,0,0,0-1.27641-4.44993,7.34116,7.34116,0,0,0-2.44753-1.23549c-.77636-.29529-1.60834-.47884-2.40952-.69519-.71136-.19229,3.50606-3.00829,3.18163-1.18721-.11494.64039.864.91376.97877.26977Z"/><path class="cls-9" d="M44.83267,139.17212a14.02625,14.02625,0,0,0,1.06367,23.83442.50827.50827,0,0,0,.51241-.87728,12.992,12.992,0,0,1-1.06367-22.08056c.53225-.37215.0256-1.2538-.51241-.87658Z"/><path class="cls-9" d="M52.68712,153.51463a6.75116,6.75116,0,0,1,1.81948-4.50113c.81145-1.0344,3.34528-3.20418,4.45653-.26533.38963,1.03225-.26679,2.52869-.67112,3.43448a19.13,19.13,0,0,1-6.6868,7.668.51022.51022,0,0,0,.391.9284,33.80934,33.80934,0,0,1,9.39979-1.26032c.65586.0256.65281-.99056,0-1.01546a34.611,34.611,0,0,0-9.66956,1.29619q.19624.46384.39109.9284c2.86276-1.86125,10.21492-8.84639,7.57656-12.89206-3.028-4.64215-8.274,2.17784-8.02314,5.67884.04668.64913,1.06283.6535,1.01615,0Z"/><path class="cls-9" d="M66.98489,145.821c-2.28376,4.12017-3.17712,8.584-3.88842,13.20053a.50846.50846,0,0,0,.9796.27053,6.15972,6.15972,0,0,0,.30993-1.57469c.07165-.65066-.94512-.64331-1.01615,0q-.136.6525-.27338,1.30416.49019.135.9796.27053c.69817-4.53255,1.53668-8.90056,3.78533-12.95858.318-.57317-.55923-1.08565-.87651-.51248Z"/><path class="cls-9" d="M67.28753,145.94236c-1.39114,4.86884.25077,9.79685.69159,14.68539.05778.64692,1.07393.65281,1.01545,0-.43208-4.79059-2.08932-9.64986-.72737-14.41562a.50835.50835,0,0,0-.97967-.26977Z"/><path class="cls-9" d="M70.60943,139.57493q-.3081.2983-.6148.59731a.51166.51166,0,0,0,.359.867c12.05862-.59579,9.29819,14.80962,3.80074,20.84583-.44013.48328.27628,1.20407.71787.71864a20.44152,20.44152,0,0,0,4.96672-14.94628,9.23017,9.23017,0,0,0-2.31886-5.49022c-1.11631-1.25887-4.97261-3.06087-6.1927-1.87436.47-.45768-.2486-1.17486-.71794-.71794Z"/><path class="cls-9" d="M101.068,152.04593a41.69407,41.69407,0,0,0,2.878-4.31391q-.46386-.06035-.92841-.12139c.84364,3.10478-.88456,6.27317-1.24207,9.35235-.07527.64989.94157.64261,1.01614,0,.37576-3.23859,2.09737-6.34038,1.20552-9.62212a.512.512,0,0,0-.92847-.12132,41.7548,41.7548,0,0,1-2.878,4.31391c-.38609.53072.49556,1.03661.87729.51248Z"/><path class="cls-9" d="M119.79019,152.08616a3.04877,3.04877,0,0,1,.19873-1.612q.7961-3.07144,3.41839-.30043c-.2595,1.33635-1.5586,2.62664-2.41243,3.57849a47.43855,47.43855,0,0,1-4.35268,4.06973c-.40718.35239.03.95546.49347.84877a23.33321,23.33321,0,0,1,7.6007-.33705c.65212.0607.64636-.95545,0-1.01615a24.0844,24.0844,0,0,0-7.8704.3743q.2466.42443.4941.84877c1.76038-1.52641,8.86255-6.7717,6.953-9.818-2.18512-3.48637-6.30827.63671-5.5025,3.63328a.50831.50831,0,0,0,.97959-.2697Z"/><path class="cls-9" d="M139.49043,137.50392c-5.33082,2.033-7.7762,6.84405-8.448,12.275-.74569,6.02164,3.18226,10.8429,8.09051,13.6589a.50829.50829,0,0,0,.51254-.87728c-4.49822-2.57981-7.30838-6.17224-7.6315-11.45041-.32166-5.24675,2.78527-10.73475,7.74692-12.62666.6053-.23106.34288-1.21356-.27046-.97959Z"/><path class="cls-9" d="M146.44561,148.73132c-1.71647-3.26634-5.79578-.10745-7.23146,1.89051a.50852.50852,0,0,0,.182.69526,13.69144,13.69144,0,0,0,4.19182,1.0183q1.33017,3.51564-1.22231,2.645-.6908-.1283-1.36631-.32165a14.89909,14.89909,0,0,1-2.53528-.93645c-.5892-.27559-1.10536.59947-.51248.87721,1.2735.59655,7.78279,3.21445,8.19656.15358a2.794,2.794,0,0,0-1.51039-3.13405,8.76443,8.76443,0,0,0-2.99289-.61334c-2.441-.337,2.57988-4.31828,3.92351-1.76184.30487.57976,1.18139.06652.87728-.51248Z"/></g></g></g><circle class="cls-10" cx="42.22508" cy="71.38512" r="4.8728"/><circle class="cls-9" cx="76.62133" cy="57.91325" r="3.43963"/><circle class="cls-9" cx="31.9062" cy="98.04222" r="3.43963"/><circle class="cls-10" cx="80.63422" cy="94.02932" r="6.30598"/><circle class="cls-10" cx="118.4701" cy="55.0469" r="5.15944"/><polyline class="cls-11" points="-5 100 42.225 70.525 80.061 94.603 117.897 54.474 152 71"/><polyline class="cls-12" points="-1.344 53.327 31.333 97.469 77.161 57.159 154 109"/><circle class="cls-9" cx="100.6987" cy="73.96484" r="5.73271"/></g></svg>