<svg height="164" width="193" xmlns="http://www.w3.org/2000/svg" xmlns:xlink="http://www.w3.org/1999/xlink"><linearGradient id="a" x1="5.041%" x2="74.315%" y1="111.079%" y2="13.802%"><stop offset="0" stop-color="#99c1d3"/><stop offset=".35095" stop-color="#d1d9df"/><stop offset=".45739" stop-color="#c5d6dc" stop-opacity=".832"/><stop offset="1" stop-color="#fff" stop-opacity="0"/></linearGradient><linearGradient id="b"><stop offset="0" stop-color="#244f66"/><stop offset=".32" stop-color="#4dabdb"/><stop offset="1" stop-color="#e1fcff" stop-opacity="0"/></linearGradient><linearGradient id="c" x1="22.509%" x2="66.538%" xlink:href="#b" y1="111.924%" y2="12.73%"/><linearGradient id="d" x1="12.463%" x2="61.556%" xlink:href="#b" y1="107.714%" y2="32.099%"/><linearGradient id="e" x1="22.502%" x2="66.55%" xlink:href="#b" y1="111.913%" y2="12.722%"/><linearGradient id="f" x1="32.381%" x2="63.577%" xlink:href="#b" y1="70.125%" y2="34.488%"/><linearGradient id="g" x1="41.494%" x2="84.055%" y1="62.474%" y2="-1.351%"><stop offset="0" stop-color="#a7aab3"/><stop offset=".35" stop-color="#d1d4df"/><stop offset="1" stop-color="#fff" stop-opacity="0"/></linearGradient><linearGradient id="h" x1="22.494%" x2="66.542%" y1="111.941%" y2="12.716%"><stop offset="0" stop-color="#244f66"/><stop offset=".33416" stop-color="#4dabdb"/><stop offset="1" stop-color="#e1fcff" stop-opacity="0"/></linearGradient><g fill="none" fill-rule="evenodd"><path d="m68.62 85.79-.388 77.88-68.232-39.43.135-77.836z" fill="#cfeeff" opacity=".24"/><path d="m68.507 7.155-.135 77.324-68.372 39.762.135-77.836z" fill="#c5ebff" opacity=".6"/><path d="m136.393 124.13-68.113-39.552 61.97-36.818 68.604 40.053z" fill="url(#a)" fill-rule="nonzero" transform="translate(0 -.379)"/><path d="m136.598 46.486-.248 77.265-67.978-39.272.135-77.324z" fill="#fff"/><path d="m41.825 33.317-18.055 10.495-14.146-8.23 18.055-10.494z" fill="url(#c)" transform="translate(55.772 71.59)"/><path d="m68.46 85.546-12.038-6.951 11.962-6.952 12.042 6.952z" fill="#f47f64"/><path d="m80.389 114.912-11.967 6.951.037-36.317 11.967-6.951z" fill="#f43516"/><path d="m68.422 121.863-12.037-6.951.037-36.317 12.037 6.951z" fill="#fea084"/><path d="m47.51 14.628.098-.054-27.936 16.152c-1.127.647-2.988.874-5.328.54a19.744 19.744 0 0 1 -6.714-2.38c-1.963-1.132-3.5-2.518-4.142-3.882s-.259-2.48.879-3.139l27.962-16.145c1.117-.653 2.983-.88 5.334-.54a19.873 19.873 0 0 1 6.709 2.379c1.963 1.132 3.5 2.518 4.142 3.888.641 1.37.21 2.53-1.003 3.182z" fill="url(#d)" transform="translate(15 95.621)"/><path d="m40.25 103.31c.011-3.995-5.57-7.248-12.464-7.267-6.895-.02-12.494 3.202-12.505 7.197-.011 3.994 5.57 7.247 12.464 7.266 6.895.02 12.494-3.203 12.505-7.197z" fill="#ffd7e2"/><path d="m18.925 125.414c-2.46-1.424-3.69-3.29-3.684-5.15l.043-17.021c0 1.86 1.225 3.726 3.684 5.15 4.891 2.82 12.797 2.82 17.662 0 2.41-1.402 3.618-3.236 3.624-5.08l-.043 17.032c0 1.839-1.214 3.678-3.624 5.08-4.865 2.81-12.77 2.81-17.662-.011z" fill="#ffb3c3"/><path d="m32.768 109.94a14.944 14.944 0 0 0 3.862-1.52c2.41-1.402 3.618-3.236 3.624-5.08l-.043 17.005c0 1.839-1.214 3.678-3.624 5.08a14.944 14.944 0 0 1 -3.862 1.52l.043-17.004z" fill="#ff8297"/><path d="m82.367 121.681-19.944 11.595-15.623-9.098 19.943-11.59z" fill="url(#e)" transform="translate(0 -.379)"/><path d="m50.181 110.458-13.299-7.68 13.213-7.68 13.305 7.68z" fill="#1fb1ff"/><path d="m63.356 132.352-13.212 7.68.037-29.574 13.219-7.68z" fill="#008ad1"/><path d="m50.144 140.032-13.305-7.68.043-29.574 13.3 7.68z" fill="#73d4ff"/><g transform="translate(40 86.621)"><path d="m24.212 6.542c3.723 2.114 2.535 6.311-2.656 9.382-5.192 3.07-12.41 3.844-16.133 1.734s-2.531-6.311 2.656-9.381c5.188-3.07 12.414-3.845 16.133-1.735z" fill="url(#f)"/><circle cx="9.575" cy="9.711" fill="#ffd036" r="9.044"/><path d="m14.436 2.083c2.949 2.57 2.808 7.378-.482 10.808-3.415 3.571-8.804 4.175-11.829 1.28a6.106 6.106 0 0 1 -1.036-1.302 9.047 9.047 0 1 0 13.336-10.797z" fill="#ffc20c"/><ellipse cx="6.231" cy="5.73" fill="#f9e4aa" rx="2.63" ry="2.015" transform="matrix(.66483932 -.74698639 .74698639 .66483932 -2.191846 6.574943)"/></g><path d="m38.54 33.745-22.27-11.462 26.932-3.895z" fill="url(#g)" transform="translate(70 93.35)"/><path d="m70.114 127.08 19.221 11.096 19.221-11.096-19.22-32.896z" fill="#0c5eff"/><path d="m89.335 138.176v-43.992l-19.221 32.896z" fill="#7ca7ff"/><path d="m33.788 26.76-9.19 5.53-14.784-8.606 14.784-2.377 9.355-5.952z" fill="url(#h)" transform="translate(55.33 111.59)"/><path d="m68.343 131.409-12.586-7.266 12.508-12.099 12.582 7.266z" fill="#87eebf"/><path d="m80.808 143.364-12.504 7.267.04-19.222 12.503-12.099z" fill="#259975"/><path d="m68.304 150.63-12.586-7.261.04-19.226 12.585 7.266z" fill="#4fd497"/><path d="m136.598 46.486-67.978 39.304-68.485-39.385 68.372-39.25z" fill="#edf9ff" opacity=".523"/><path d="m81.53 36.509-28.9 16.394 5.76 3.355 28.9-16.395z" fill="#044460" opacity=".106"/><path d="m81.53 36.509v6.622l-23.14 13.127-5.76-3.355z" fill="#9dd2ee"/><path d="m136.598 46.486-.253 77.265-68.108 39.918.383-77.88z" fill="#bee9ff" opacity=".303"/><g fill="#fbb03b"><path d="m70.96 3.935 5.56 3.236c-2.038-1.18-4.853-1.019-7.97.777l-5.56-3.236c3.106-1.812 5.932-1.98 7.97-.777z"/><path d="m60.65 34.465-5.561-3.236c-2.017-1.17-3.263-3.656-3.273-7.183-.044-7.103 4.988-15.796 11.174-19.35l5.56 3.236c-6.186 3.554-11.196 12.242-11.174 19.35.005 3.527 1.256 6.013 3.273 7.183z"/></g><path d="m76.52 7.171-5.56-3.236c2.012 1.17 3.236 3.657 3.274 7.184 0 7.102-4.994 15.785-11.174 19.355-3.112 1.796-5.932 1.958-7.971.777l5.555 3.236c2.044 1.18 4.853 1.019 7.976-.777 6.18-3.592 11.196-12.274 11.196-19.377-.033-3.527-1.284-6.013-3.295-7.162z" fill="#ffb127"/><path d="m72.605 1.077c-2.459-1.456-5.867-1.235-9.626.933-7.47 4.315-13.526 14.804-13.482 23.384 0 4.266 1.52 7.264 3.953 8.683l5.56 3.235c-2.433-1.413-3.943-4.416-3.953-8.682 0-8.58 6.029-19.07 13.482-23.384 3.775-2.157 7.167-2.362 9.626-.933l-5.56-3.236z" fill="#ffb127"/><path d="m62.445 11.313c-5.706 8.03-6.72 15.041-5.506 19.587 2.028 2.25 5.441 2.53 9.297.302 6.175-3.565 11.196-12.247 11.174-19.355 0-3.376-1.159-5.792-3.02-7.01-3.575-.395-8.057 1.035-11.945 6.476z" fill="#ffe182"/><path d="m68.54 5.24c7.468-4.314 13.557-.83 13.584 7.75s-6.03 19.07-13.482 23.379c-7.454 4.309-13.564.836-13.585-7.745-.022-8.58 6.013-19.07 13.482-23.383zm.08 28.448c6.18-3.564 11.196-12.252 11.196-19.355 0-7.102-5.07-9.977-11.25-6.407s-11.19 12.248-11.174 19.35c.016 7.103 5.07 9.983 11.25 6.412z" fill="#ffeaa6" fill-rule="nonzero"/><path d="m67.752 23.782-1.16-.67 2.907 1.656 1.16.675z" fill="#ff7210"/><path d="m70.971 16.949-1.16-.674.761-.443 1.16.674zm-5.031 7.954-1.16-.674c-.243-.14-.307-.54-.15-.976.127-.38.38-.705.716-.922l.114-.06c.134-.051.264-.115.388-.188.117-.066.23-.138.34-.216a6.067 6.067 0 0 0 2.157-3.236l1.16.674a6.089 6.089 0 0 1 -2.158 3.236c-.11.078-.223.15-.34.216a2.567 2.567 0 0 1 -.388.189l-.113.059a1.753 1.753 0 0 0 -.712.922c-.162.442-.102.836.146.976z" fill="#a67754"/><path d="m67.73 15.8 1.16.674.091.06c.37.295.602.73.642 1.202l-1.132-.685a1.704 1.704 0 0 0 -.642-1.203zm-1.127 5.199-1.16-.674-.728-1.111 1.16.674z" fill="#8c6547"/><path d="m65.875 19.888-1.16-.674 3.749-2.163 1.159.674zm-1.289-3.376-1.488-.847 6.989-4.034 1.483.852z" fill="#a67754"/><path d="m65.314 17.623-1.483-.847-.733-1.11 1.488.846z" fill="#8c6547"/><path d="m71.57 12.483.728 1.079-2.33 1.348a2.696 2.696 0 0 1 1.003 2.012l.76-.443.578 1.198-1.43.825a9.238 9.238 0 0 1 -3.127 5.253l2.896 1.688-.939 1.617-3.775-2.157c-.248-.14-.307-.539-.15-.976.126-.38.379-.706.717-.922l.113-.06c.134-.051.264-.114.388-.188.117-.066.23-.138.34-.216a6.089 6.089 0 0 0 2.157-3.236l-2.89 1.672-.729-1.11 3.748-2.158a1.726 1.726 0 0 0 -.641-1.203c-.507-.356-1.23-.307-1.985.13l-1.683.97-.728-1.11z" fill="#d69f72"/></g></svg>